<?xml version="1.0" encoding="utf-8"?>
<!-- Generator: Adobe Illustrator 18.1.1, SVG Export Plug-In . SVG Version: 6.00 Build 0)  -->
<!DOCTYPE svg PUBLIC "-//W3C//DTD SVG 1.1//EN" "http://www.w3.org/Graphics/SVG/1.1/DTD/svg11.dtd">
<svg version="1.1" id="Layer_1" xmlns="http://www.w3.org/2000/svg" xmlns:xlink="http://www.w3.org/1999/xlink" x="0px" y="0px"
	 viewBox="6.4 161.2 612 612" enable-background="new 6.4 161.2 612 612" xml:space="preserve">
<g>
	<path d="M613,686.9c7.5,13.3,7.1,29.7-0.7,43c-7.8,13.3-22.2,21.5-37.6,21.5H50.1c-15.4,0-29.7-8.1-37.6-21.5s-8.1-29.7-0.7-43
		L274.1,206c7.5-14,22.2-22.9,38.3-22.9s30.8,8.9,38.3,22.9L613,686.9z M361.6,368.1c0-2-1-4.8-3.5-6.5c-2-1.7-5.1-3.8-8.1-3.8
		h-75.2c-3.1,0-6.1,2-8.1,3.8c-2.3,1.7-3.5,5.1-3.5,7.1l5.8,156.1c0,4.5,5.1,7.8,11.6,7.8h63.2c6.1,0,11.3-3.5,11.6-7.8L361.6,368.1
		z M356.1,587.8c0-6.1-4.8-11.3-10.9-11.3h-65.6c-6.1,0-10.9,5.1-10.9,11.3v64.9c0,6.1,4.8,11.3,10.9,11.3h65.6
		c6.1,0,10.9-5.1,10.9-11.3V587.8z"/>
</g>
</svg>
