<?xml version="1.0" encoding="utf-8"?>
<!-- Generator: Adobe Illustrator 18.0.0, SVG Export Plug-In . SVG Version: 6.00 Build 0)  -->
<!DOCTYPE svg PUBLIC "-//W3C//DTD SVG 1.1//EN" "http://www.w3.org/Graphics/SVG/1.1/DTD/svg11.dtd">
<svg version="1.1" id="Layer_1" xmlns="http://www.w3.org/2000/svg" xmlns:xlink="http://www.w3.org/1999/xlink" x="0px" y="0px"
	 viewBox="0 0 612 792" enable-background="new 0 0 612 792" xml:space="preserve">
<g>
	<path d="M601.9,565.8c7.4,13.1,7,29.2-0.7,42.2c-7.7,13.1-21.8,21.1-36.9,21.1h-515c-15.1,0-29.2-8-36.9-21.1
		c-7.7-13.1-8-29.2-0.7-42.2L269.2,93.7c7.4-13.7,21.8-22.5,37.6-22.5s30.2,8.7,37.6,22.5L601.9,565.8z M355.1,252.9
		c0-2-1-4.7-3.4-6.4c-2-1.7-5-3.7-8-3.7h-73.8c-3,0-6,2-8,3.7c-2.3,1.7-3.4,5-3.4,7l5.7,153.2c0,4.4,5,7.7,11.4,7.7h62
		c6,0,11.1-3.4,11.4-7.7L355.1,252.9z M349.7,468.5c0-6-4.7-11.1-10.7-11.1h-64.4c-6,0-10.7,5-10.7,11.1v63.7
		c0,6,4.7,11.1,10.7,11.1H339c6,0,10.7-5,10.7-11.1V468.5z"/>
</g>
</svg>
