<?xml version="1.0" encoding="utf-8"?>
<!-- Generator: Adobe Illustrator 18.1.1, SVG Export Plug-In . SVG Version: 6.00 Build 0)  -->
<!DOCTYPE svg PUBLIC "-//W3C//DTD SVG 1.1//EN" "http://www.w3.org/Graphics/SVG/1.1/DTD/svg11.dtd">
<svg version="1.1" id="Layer_1" xmlns="http://www.w3.org/2000/svg" xmlns:xlink="http://www.w3.org/1999/xlink" x="0px" y="0px"
	 viewBox="46.2 101.8 791.7 791.7" enable-background="new 46.2 101.8 791.7 791.7" xml:space="preserve">
<g enable-background="new    ">
	<path d="M706,266.8c0,17.9-4.4,34.4-13.4,49.7c-8.9,15.3-20.9,27.3-36.1,35.8C655.9,451,617,522.1,540.1,565.8
		c-23.4,13.1-58.2,27-104.6,41.7c-44.1,13.8-73.1,26-87.4,36.6c-14.3,10.6-21.3,27.8-21.3,51.6v13.4c15.1,8.5,27.1,20.5,36.1,35.8
		c8.9,15.3,13.4,31.9,13.4,49.7c0,27.5-9.6,50.9-28.9,70.1c-19.3,19.3-42.7,28.9-70.1,28.9c-27.5,0-50.9-9.6-70.1-28.9
		c-19.3-19.3-28.9-42.7-28.9-70.1c0-17.9,4.4-34.4,13.4-49.7c8.9-15.3,20.9-27.3,36.1-35.8V286.3c-15.1-8.5-27.1-20.5-36.1-35.8
		c-8.9-15.3-13.4-31.9-13.4-49.7c0-27.5,9.6-50.9,28.9-70.1c19.3-19.3,42.7-28.9,70.1-28.9c27.5,0,50.9,9.6,70.1,28.9
		c19.3,19.3,28.9,42.7,28.9,70.1c0,17.9-4.4,34.4-13.4,49.7s-20.9,27.3-36.1,35.8v256.3c18.6-8.9,45-18.7,79.4-29.3
		c18.9-5.8,34-10.9,45.2-15.1c11.2-4.3,23.3-9.6,36.3-16c13.1-6.3,23.3-13.2,30.4-20.4c7.2-7.2,14.2-16,20.9-26.3
		s11.6-22.3,14.5-35.8c2.9-13.6,4.4-29.3,4.4-47.2c-15.1-8.5-27.1-20.5-36.1-35.8c-8.9-15.3-13.4-31.9-13.4-49.7
		c0-27.5,9.6-50.9,28.9-70.1c19.3-19.3,42.7-28.9,70.1-28.9c27.5,0,50.9,9.6,70.1,28.9C696.3,215.8,706,239.2,706,266.8z M312,235.8
		c9.6-9.6,14.5-21.3,14.5-35.1c0-13.8-4.8-25.5-14.5-35.1c-9.6-9.6-21.3-14.5-35.1-14.5c-13.8,0-25.5,4.8-35.1,14.5
		c-9.6,9.6-14.5,21.3-14.5,35.1c0,13.8,4.8,25.5,14.5,35.1c9.6,9.6,21.3,14.5,35.1,14.5C290.8,250.2,302.3,245.4,312,235.8z
		 M312,829.8c9.6-9.6,14.5-21.3,14.5-35.1s-4.8-25.5-14.5-35.1c-9.6-9.6-21.3-14.5-35.1-14.5c-13.8,0-25.5,4.8-35.1,14.5
		c-9.6,9.6-14.5,21.3-14.5,35.1s4.8,25.5,14.5,35.1c9.6,9.6,21.3,14.5,35.1,14.5C290.8,844.3,302.3,839.5,312,829.8z M642.1,301.9
		c9.6-9.6,14.5-21.3,14.5-35.1c0-13.8-4.8-25.5-14.5-35.1c-9.6-9.6-21.3-14.5-35.1-14.5s-25.5,4.8-35.1,14.5
		c-9.6,9.6-14.5,21.3-14.5,35.1c0,13.8,4.8,25.5,14.5,35.1c9.6,9.6,21.3,14.5,35.1,14.5S632.5,311.5,642.1,301.9z"/>
</g>
</svg>
