<?xml version="1.0" encoding="utf-8"?>
<!-- Generator: Adobe Illustrator 18.1.1, SVG Export Plug-In . SVG Version: 6.00 Build 0)  -->
<svg version="1.1" id="Layer_1" xmlns="http://www.w3.org/2000/svg" xmlns:xlink="http://www.w3.org/1999/xlink" x="0px" y="0px"
	 viewBox="-11 3 39.2 60" enable-background="new -11 3 39.2 60" xml:space="preserve">
<g>
	<path d="M-10.3,33c0-1.3,0.5-2.5,1.4-3.5L16,4.6c0.9-0.9,2.1-1.4,3.4-1.4s2.5,0.5,3.4,1.4l2.9,2.9c0.9,1,1.4,2.2,1.4,3.5
		c0,1.4-0.5,2.5-1.4,3.4L7.2,33l18.6,18.5c0.9,1,1.4,2.2,1.4,3.5c0,1.4-0.5,2.5-1.4,3.4l-2.9,2.9c-0.9,1-2.1,1.5-3.4,1.5
		c-1.4,0-2.5-0.5-3.4-1.5L-8.9,36.4C-9.9,35.5-10.3,34.4-10.3,33L-10.3,33z"/>
</g>
</svg>
