<?xml version="1.0" encoding="utf-8"?>
<!-- Generator: Adobe Illustrator 18.1.1, SVG Export Plug-In . SVG Version: 6.00 Build 0)  -->
<!DOCTYPE svg PUBLIC "-//W3C//DTD SVG 1.1//EN" "http://www.w3.org/Graphics/SVG/1.1/DTD/svg11.dtd">
<svg version="1.1" id="Layer_1" xmlns="http://www.w3.org/2000/svg" xmlns:xlink="http://www.w3.org/1999/xlink" x="0px" y="0px"
	 viewBox="-302.4 372 50 50" enable-background="new -302.4 372 50 50" xml:space="preserve">
<g>
	<path fill="#010101" d="M-291,408.4c0-0.4,0.2-0.8,0.5-1.2s0.7-0.5,1.2-0.5h23.7c0.4,0,0.8,0.2,1.2,0.5c0.3,0.3,0.5,0.7,0.5,1.2
		c0,0.5-0.2,0.9-0.5,1.2l-11.9,11.9c-0.3,0.3-0.7,0.5-1.2,0.5s-0.8-0.2-1.2-0.5l-11.9-11.9C-290.8,409.3-291,408.9-291,408.4z"/>
</g>
<g>
	<path fill="#010101" d="M-291,385.6c0-0.5,0.2-0.9,0.5-1.2l11.9-11.9c0.3-0.3,0.7-0.5,1.2-0.5s0.9,0.2,1.2,0.5l11.9,11.9
		c0.3,0.3,0.5,0.7,0.5,1.2c0,0.4-0.2,0.8-0.5,1.2c-0.3,0.3-0.7,0.5-1.2,0.5h-23.7c-0.4,0-0.8-0.2-1.2-0.5
		C-290.8,386.4-291,386.1-291,385.6z"/>
</g>
</svg>
