<?xml version="1.0" encoding="utf-8"?>
<!-- Generator: Adobe Illustrator 17.0.2, SVG Export Plug-In . SVG Version: 6.00 Build 0)  -->
<!DOCTYPE svg PUBLIC "-//W3C//DTD SVG 1.1//EN" "http://www.w3.org/Graphics/SVG/1.1/DTD/svg11.dtd">
<svg version="1.1" id="Layer_1" xmlns="http://www.w3.org/2000/svg" xmlns:xlink="http://www.w3.org/1999/xlink" x="0px" y="0px"
	 width="27.103px" height="50px" viewBox="0 0 27.103 50" enable-background="new 0 0 27.103 50" xml:space="preserve">
<g>
	<path fill="#010101" d="M0,36.426c0-0.442,0.173-0.839,0.521-1.188s0.743-0.521,1.188-0.521h23.733c0.442,0,0.83,0.173,1.163,0.521
		c0.333,0.348,0.499,0.743,0.499,1.188c0,0.474-0.158,0.869-0.474,1.188L14.764,49.479C14.416,49.827,14.021,50,13.576,50
		s-0.839-0.173-1.188-0.521L0.523,37.614C0.173,37.266,0,36.871,0,36.426z"/>
</g>
<g>
	<path fill="#010101" d="M0,13.617c0-0.474,0.173-0.886,0.521-1.234L12.386,0.517C12.705,0.198,13.1,0.04,13.574,0.04
		s0.869,0.158,1.188,0.474L26.627,12.38c0.316,0.316,0.474,0.728,0.474,1.234c0,0.442-0.165,0.83-0.499,1.163
		c-0.333,0.333-0.721,0.499-1.163,0.499H1.708c-0.442,0-0.839-0.165-1.188-0.499C0.173,14.446,0,14.059,0,13.617z"/>
</g>
</svg>
