<?xml version="1.0" encoding="utf-8"?>
<!-- Generator: Adobe Illustrator 18.1.1, SVG Export Plug-In . SVG Version: 6.00 Build 0)  -->
<!DOCTYPE svg PUBLIC "-//W3C//DTD SVG 1.1//EN" "http://www.w3.org/Graphics/SVG/1.1/DTD/svg11.dtd">
<svg version="1.1" id="Layer_1" xmlns="http://www.w3.org/2000/svg" xmlns:xlink="http://www.w3.org/1999/xlink" x="0px" y="0px"
	 viewBox="68.7 150.4 461.5 496.3" enable-background="new 68.7 150.4 461.5 496.3" xml:space="preserve">
<g enable-background="new    ">
	<path d="M509.5,448.3c9.9,5.6,16.3,14,19.2,25c2.9,11.1,1.6,21.6-4,31.5L504,540.4c-5.6,9.9-14,16.3-25,19.2
		c-11.1,2.9-21.6,1.6-31.5-4l-86-49.4v99.2c0,11.2-4.1,20.9-12.3,29.1c-8.2,8.2-17.9,12.3-29.1,12.3h-41.4
		c-11.2,0-20.9-4.1-29.1-12.3c-8.2-8.2-12.3-17.9-12.3-29.1v-99.2l-86,49.4c-9.9,5.6-20.4,6.9-31.5,4c-11.1-2.9-19.4-9.3-25-19.2
		l-20.7-35.5c-5.6-9.9-6.9-20.4-4-31.5c2.9-11.1,9.3-19.4,19.2-25l86-49.8l-86-49.8c-9.9-5.6-16.3-13.9-19.2-25
		c-2.9-11.1-1.6-21.6,4-31.5l20.7-35.5c5.6-9.9,13.9-16.3,25-19.2c11.1-2.9,21.6-1.6,31.5,4l86,49.4v-99.2
		c0-11.2,4.1-20.9,12.3-29.1c8.2-8.2,17.9-12.3,29.1-12.3h41.4c11.2,0,20.9,4.1,29.1,12.3c8.2,8.2,12.3,17.9,12.3,29.1v99.2l86-49.4
		c9.9-5.6,20.4-6.9,31.5-4c11.1,2.9,19.4,9.3,25,19.2l20.7,35.5c5.6,9.9,6.9,20.4,4,31.5c-2.9,11.1-9.3,19.4-19.2,25l-86,49.8
		L509.5,448.3z"/>
</g>
</svg>
