<?xml version="1.0" encoding="utf-8"?>
<!-- Generator: Adobe Illustrator 17.0.2, SVG Export Plug-In . SVG Version: 6.00 Build 0)  -->
<!DOCTYPE svg PUBLIC "-//W3C//DTD SVG 1.1//EN" "http://www.w3.org/Graphics/SVG/1.1/DTD/svg11.dtd">
<svg version="1.1" id="Layer_1" xmlns="http://www.w3.org/2000/svg" xmlns:xlink="http://www.w3.org/1999/xlink" x="0px" y="0px"
	 width="60px" height="60px" viewBox="0 0 60 60" enable-background="new 0 0 60 60" xml:space="preserve">
<g>
	<path d="M29.139,50.811c1.265,0,2.32-0.474,3.163-1.423c0.844-0.949,1.265-2.109,1.265-3.479c0-0.474-1.476-0.712-4.428-0.712
		c-2.952,0-4.428,0.237-4.428,0.712c0,1.371,0.422,2.531,1.265,3.479S27.874,50.811,29.139,50.811z M57.291,50.178
		c0,2.214-1.661,4.112-4.982,5.694c-3.321,1.582-7.064,2.715-11.229,3.4c-4.165,0.685-8.158,1.028-11.98,1.028
		c-3.822,0-7.802-0.343-11.941-1.028c-4.138-0.685-7.855-1.819-11.15-3.4c-3.295-1.582-4.942-3.479-4.942-5.694
		c0-1.054,0.395-2.03,1.186-2.926c2.689-5.536,4.705-10.86,6.05-15.974c1.344-5.114,2.359-9.265,3.045-12.455
		c0.685-3.19,1.766-5.76,3.242-7.71c2.425-3.374,5.615-5.483,9.569-6.326c0.158-1.371,0.699-2.478,1.621-3.321
		S27.821,0.2,29.139,0.2c1.318,0,2.451,0.448,3.4,1.344s1.45,1.977,1.502,3.242c3.954,0.844,7.17,2.952,9.648,6.326
		c1.423,1.951,2.478,4.521,3.163,7.71c0.685,3.19,1.7,7.341,3.045,12.455c1.344,5.114,3.387,10.438,6.129,15.974
		C56.869,48.254,57.291,49.229,57.291,50.178z M29.139,54.132c11.651,0,19.084-1.951,22.3-5.852
		c-3.216-3.901-10.662-5.852-22.34-5.852S9.976,44.379,6.76,48.28C10.186,52.339,17.646,54.29,29.139,54.132z"/>
</g>
</svg>
