<?xml version="1.0" encoding="utf-8"?>
<!-- Generator: Adobe Illustrator 17.0.2, SVG Export Plug-In . SVG Version: 6.00 Build 0)  -->
<!DOCTYPE svg PUBLIC "-//W3C//DTD SVG 1.1//EN" "http://www.w3.org/Graphics/SVG/1.1/DTD/svg11.dtd">
<svg version="1.1" id="Layer_1" xmlns="http://www.w3.org/2000/svg" xmlns:xlink="http://www.w3.org/1999/xlink" x="0px" y="0px"
	 width="19.555px" height="20px" viewBox="0 0 19.555 20" enable-background="new 0 0 19.555 20" xml:space="preserve">
<path fill="#010101" d="M19.11,3.444c-0.298-0.297-0.651-0.446-1.057-0.446h-1.505V1.869c0-0.517-0.185-0.96-0.552-1.328
	c-0.369-0.368-0.812-0.552-1.328-0.552h-0.752c-0.518,0-0.96,0.184-1.328,0.552c-0.368,0.368-0.552,0.812-0.552,1.328v1.129H7.522
	V1.869c0-0.517-0.185-0.96-0.554-1.328C6.6,0.173,6.158-0.011,5.64-0.011H4.89c-0.518,0-0.96,0.184-1.328,0.552
	C3.193,0.91,3.008,1.353,3.008,1.869v1.129H1.505c-0.408,0-0.761,0.149-1.057,0.446C0.149,3.742,0,4.095,0,4.502v13.993
	c0,0.408,0.149,0.76,0.447,1.058C0.744,19.851,1.097,20,1.505,20h16.547c0.406,0,0.759-0.149,1.057-0.446
	c0.297-0.298,0.446-0.65,0.446-1.058V4.502C19.555,4.095,19.406,3.742,19.11,3.444z M6.017,18.002H1.747v-4.74h4.271V18.002z
	 M6.017,11.758H1.747v-4.74h4.271V11.758z M6.093,5.254c0,0.102-0.038,0.19-0.111,0.264C5.906,5.593,5.819,5.63,5.716,5.63H4.965
	c-0.103,0-0.19-0.038-0.266-0.112C4.626,5.444,4.588,5.356,4.588,5.254V1.869c0-0.102,0.038-0.189,0.111-0.264
	c0.075-0.075,0.163-0.112,0.266-0.112h0.751c0.103,0,0.19,0.038,0.266,0.112C6.055,1.68,6.093,1.767,6.093,1.869V5.254z
	 M12.034,18.002H7.521v-4.74h4.513V18.002z M12.034,11.758H7.521v-4.74h4.513V11.758z M13.613,1.869
	c0-0.102,0.038-0.189,0.113-0.264c0.074-0.075,0.161-0.112,0.264-0.112h0.752c0.101,0,0.189,0.038,0.264,0.112
	c0.074,0.075,0.111,0.162,0.111,0.264v3.385c0,0.102-0.038,0.19-0.111,0.264c-0.075,0.075-0.163,0.112-0.264,0.112h-0.752
	c-0.103,0-0.19-0.038-0.264-0.112c-0.075-0.074-0.113-0.162-0.113-0.264V1.869z M17.808,18.002h-4.271v-4.74h4.271V18.002z
	 M17.808,11.758h-4.271v-4.74h4.271V11.758z"/>
</svg>
