<?xml version="1.0" encoding="utf-8"?>
<!-- Generator: Adobe Illustrator 17.0.2, SVG Export Plug-In . SVG Version: 6.00 Build 0)  -->
<!DOCTYPE svg PUBLIC "-//W3C//DTD SVG 1.1//EN" "http://www.w3.org/Graphics/SVG/1.1/DTD/svg11.dtd">
<svg version="1.1" id="Layer_1" xmlns="http://www.w3.org/2000/svg" xmlns:xlink="http://www.w3.org/1999/xlink" x="0px" y="0px"
	 width="22.566px" height="17.833px" viewBox="0 2.167 22.566 17.833" enable-background="new 0 2.167 22.566 17.833"
	 xml:space="preserve">
<g>
	<path fill="#010101" d="M22.492,5.552c0,0.387-0.135,0.716-0.406,0.987L11.58,17.044l-1.973,1.973
		c-0.271,0.271-0.599,0.406-0.987,0.406c-0.387,0-0.716-0.135-0.987-0.406L5.66,17.045l-5.253-5.253C0.135,11.521,0,11.192,0,10.805
		c0-0.387,0.135-0.716,0.406-0.987L2.38,7.845c0.271-0.271,0.599-0.406,0.987-0.406s0.716,0.135,0.987,0.406l4.266,4.281
		l9.518-9.533c0.271-0.271,0.599-0.406,0.987-0.406c0.387,0,0.716,0.135,0.987,0.406l1.973,1.973
		C22.356,4.836,22.492,5.166,22.492,5.552z"/>
</g>
</svg>
