<?xml version="1.0" encoding="utf-8"?>
<!-- Generator: Adobe Illustrator 18.1.1, SVG Export Plug-In . SVG Version: 6.00 Build 0)  -->
<!DOCTYPE svg PUBLIC "-//W3C//DTD SVG 1.1//EN" "http://www.w3.org/Graphics/SVG/1.1/DTD/svg11.dtd">
<svg version="1.1" id="Layer_1" xmlns="http://www.w3.org/2000/svg" xmlns:xlink="http://www.w3.org/1999/xlink" x="0px" y="0px"
	 viewBox="-294 387.7 22.5 22.5" enable-background="new -294 387.7 22.5 22.5" xml:space="preserve">
<g>
	<path fill="#010101" d="M-271.5,393.7c0,0.4-0.1,0.7-0.4,1l-10.5,10.5l-2,2c-0.3,0.3-0.6,0.4-1,0.4c-0.4,0-0.7-0.1-1-0.4l-2-2
		l-5.3-5.3c-0.3-0.3-0.4-0.6-0.4-1s0.1-0.7,0.4-1l2-2c0.3-0.3,0.6-0.4,1-0.4s0.7,0.1,1,0.4l4.3,4.3l9.5-9.5c0.3-0.3,0.6-0.4,1-0.4
		c0.4,0,0.7,0.1,1,0.4l2,2C-271.6,393-271.5,393.3-271.5,393.7z"/>
</g>
</svg>
