<?xml version="1.0" encoding="utf-8"?>
<!-- Generator: Adobe Illustrator 18.1.1, SVG Export Plug-In . SVG Version: 6.00 Build 0)  -->
<!DOCTYPE svg PUBLIC "-//W3C//DTD SVG 1.1//EN" "http://www.w3.org/Graphics/SVG/1.1/DTD/svg11.dtd">
<svg version="1.1" id="Layer_1" xmlns="http://www.w3.org/2000/svg" xmlns:xlink="http://www.w3.org/1999/xlink" x="0px" y="0px"
	 viewBox="-295.3 367.2 59.6 59.6" enable-background="new -295.3 367.2 59.6 59.6" xml:space="preserve">
<g>
	<path d="M-246.8,397c0,1.3-0.5,2.5-1.4,3.5l-24.9,24.9c-0.9,0.9-2.1,1.4-3.4,1.4s-2.5-0.5-3.4-1.4l-2.9-2.9c-0.9-1-1.4-2.2-1.4-3.5
		c0-1.4,0.5-2.5,1.4-3.4l18.6-18.6l-18.6-18.5c-0.9-1-1.4-2.2-1.4-3.5c0-1.4,0.5-2.5,1.4-3.4l2.9-2.9c0.9-1,2.1-1.5,3.4-1.5
		s2.5,0.5,3.4,1.5l24.9,24.9C-247.3,394.5-246.8,395.6-246.8,397L-246.8,397z"/>
</g>
</svg>
