<?xml version="1.0" encoding="utf-8"?>
<!-- Generator: Adobe Illustrator 17.0.2, SVG Export Plug-In . SVG Version: 6.00 Build 0)  -->
<!DOCTYPE svg PUBLIC "-//W3C//DTD SVG 1.1//EN" "http://www.w3.org/Graphics/SVG/1.1/DTD/svg11.dtd">
<svg version="1.1" id="Layer_1" xmlns="http://www.w3.org/2000/svg" xmlns:xlink="http://www.w3.org/1999/xlink" x="0px" y="0px"
	 width="39.25px" height="60px" viewBox="0 0 39.25 60" enable-background="new 0 0 39.25 60" xml:space="preserve">
<g>
	<path d="M38.215,29.999c0,1.325-0.472,2.485-1.415,3.48L11.871,58.37c-0.943,0.943-2.09,1.415-3.441,1.415
		c-1.351,0-2.498-0.472-3.441-1.415l-2.906-2.868c-0.943-0.994-1.415-2.154-1.415-3.48c0-1.351,0.472-2.498,1.415-3.441L20.665,30
		L2.083,11.455c-0.943-0.994-1.415-2.154-1.415-3.48c0-1.351,0.472-2.498,1.415-3.441l2.906-2.868
		C5.907,0.699,7.054,0.215,8.43,0.215c1.376,0,2.523,0.484,3.441,1.453L36.8,26.559c0.943,0.943,1.415,2.09,1.415,3.441V29.999z"/>
</g>
</svg>
