<?xml version="1.0" encoding="utf-8"?>
<!-- Generator: Adobe Illustrator 18.1.1, SVG Export Plug-In . SVG Version: 6.00 Build 0)  -->
<!DOCTYPE svg PUBLIC "-//W3C//DTD SVG 1.1//EN" "http://www.w3.org/Graphics/SVG/1.1/DTD/svg11.dtd">
<svg version="1.1" id="Layer_1" xmlns="http://www.w3.org/2000/svg" xmlns:xlink="http://www.w3.org/1999/xlink" x="0px" y="0px"
	 viewBox="-100.3 5.6 786.7 786.7" enable-background="new -100.3 5.6 786.7 786.7" xml:space="preserve">
<g>
	<path d="M45.5,399c0-17.2,6.6-33,18.5-46.2L392.7,24.1c11.9-11.9,27.7-18.5,44.9-18.5c17.2,0,33,6.6,44.9,18.5l38.3,38.3
		c11.9,13.2,18.5,29,18.5,46.2c0,18.5-6.6,33-18.5,44.9L276.5,399L522,643.2c11.9,13.2,18.5,29,18.5,46.2c0,18.5-6.6,33-18.5,44.9
		l-38.3,38.3c-11.9,13.2-27.7,19.8-44.9,19.8c-18.5,0-33-6.6-44.9-19.8L64,443.9C50.8,432,45.5,417.5,45.5,399L45.5,399z"/>
</g>
</svg>
