<?xml version="1.0" encoding="utf-8"?>
<!-- Generator: Adobe Illustrator 17.0.2, SVG Export Plug-In . SVG Version: 6.00 Build 0)  -->
<!DOCTYPE svg PUBLIC "-//W3C//DTD SVG 1.1//EN" "http://www.w3.org/Graphics/SVG/1.1/DTD/svg11.dtd">
<svg version="1.1" id="Layer_1" xmlns="http://www.w3.org/2000/svg" xmlns:xlink="http://www.w3.org/1999/xlink" x="0px" y="0px"
	 width="19.75px" height="20.75px" viewBox="492.25 491.25 19.75 20.75" enable-background="new 492.25 491.25 19.75 20.75"
	 xml:space="preserve">
<path d="M508.156,497.906v-3.203c0-0.352-0.288-0.641-0.641-0.641h-4.484v-1.281c0-0.705-0.577-1.281-1.281-1.281h-2.562
	c-0.705,0-1.281,0.577-1.281,1.281v1.281h-4.484c-0.352,0-0.641,0.288-0.641,0.641v12.812c0,0.352,0.288,0.641,0.641,0.641h5.766
	V512h8.969l3.844-3.844v-10.25H508.156z M499.188,492.784c0.001-0.001,0.001-0.002,0.002-0.002h2.558
	c0.001,0.001,0.002,0.002,0.002,0.002v1.279h-2.562V492.784z M495.344,496.625v-1.281h10.25v1.281H495.344z M508.156,510.188v-2.032
	h2.032L508.156,510.188z M510.719,506.875h-3.844v3.844h-6.406v-11.531h10.25V506.875z"/>
</svg>
