<?xml version="1.0" encoding="utf-8"?>
<!-- Generator: Adobe Illustrator 17.0.2, SVG Export Plug-In . SVG Version: 6.00 Build 0)  -->
<!DOCTYPE svg PUBLIC "-//W3C//DTD SVG 1.1//EN" "http://www.w3.org/Graphics/SVG/1.1/DTD/svg11.dtd">
<svg version="1.1" id="Layer_1" xmlns="http://www.w3.org/2000/svg" xmlns:xlink="http://www.w3.org/1999/xlink" x="0px" y="0px"
	 width="45px" height="60px" viewBox="7.5 0 45 60" enable-background="new 7.5 0 45 60" xml:space="preserve">
<g>
	<path d="M50.625,7.5h-3.75v3.75h1.875v30h-15v15h-22.5v-45h1.875V7.5h-3.75C8.344,7.5,7.5,8.344,7.5,9.375v48.75
		C7.5,59.156,8.344,60,9.375,60h29.531L52.5,46.406V9.375C52.5,8.344,51.656,7.5,50.625,7.5z M37.5,56.25V45h11.25L37.5,56.25z
		 M45,7.5h-7.5V3.75C37.5,1.687,35.812,0,33.75,0h-7.5c-2.063,0-3.75,1.688-3.75,3.75V7.5H15V15h30V7.5z M33.75,7.5h-7.5V3.757
		c0.002-0.002,0.004-0.005,0.007-0.007h7.486c0.002,0.002,0.005,0.004,0.007,0.007V7.5z"/>
</g>
</svg>
