<?xml version="1.0" encoding="utf-8"?>
<!-- Generator: Adobe Illustrator 17.0.2, SVG Export Plug-In . SVG Version: 6.00 Build 0)  -->
<!DOCTYPE svg PUBLIC "-//W3C//DTD SVG 1.1//EN" "http://www.w3.org/Graphics/SVG/1.1/DTD/svg11.dtd">
<svg version="1.1" id="Layer_1" xmlns="http://www.w3.org/2000/svg" xmlns:xlink="http://www.w3.org/1999/xlink" x="0px" y="0px"
	 width="14.985px" height="20px" viewBox="0 0 14.985 20" enable-background="new 0 0 14.985 20" xml:space="preserve">
<g>
	<g>
		<path fill="#010101" d="M14.36,2.506h-1.249v1.249h0.625v14.988H9.325H7.59H1.268V3.755h0.625V2.506H0.644
			c-0.343,0-0.625,0.281-0.625,0.625v16.237c0,0.343,0.281,0.625,0.625,0.625h6.843h0.031h6.843c0.343,0,0.625-0.281,0.625-0.625
			V3.13C14.985,2.787,14.704,2.506,14.36,2.506z"/>
		<path fill="#010101" d="M8.913,5.004h3.573V2.506H9.989V1.257c0-0.687-0.562-1.249-1.249-1.249H7.56H7.444h-1.18
			c-0.687,0-1.249,0.562-1.249,1.249v1.249H2.517v2.498h3.573H8.913z M6.264,2.506V1.259c0.001-0.001,0.001-0.002,0.002-0.002h2.471
			C8.738,1.258,8.739,1.259,8.74,1.259v1.247H6.264z M7.6,2.506H7.404"/>
	</g>
	<g>
		<path fill="#010101" d="M11.775,9.949c0,0.147-0.051,0.272-0.154,0.375l-3.992,3.992l-0.75,0.75
			c-0.103,0.103-0.228,0.154-0.375,0.154c-0.147,0-0.272-0.051-0.375-0.154l-0.75-0.75L3.383,12.32
			c-0.103-0.103-0.154-0.228-0.154-0.375c0-0.147,0.051-0.272,0.154-0.375l0.75-0.75c0.103-0.103,0.228-0.154,0.375-0.154
			s0.272,0.051,0.375,0.154l1.621,1.627l3.617-3.623c0.103-0.103,0.228-0.154,0.375-0.154c0.147,0,0.272,0.051,0.375,0.154
			l0.75,0.75C11.724,9.677,11.775,9.802,11.775,9.949z"/>
	</g>
</g>
</svg>
