<?xml version="1.0" encoding="utf-8"?>
<!-- Generator: Adobe Illustrator 18.1.1, SVG Export Plug-In . SVG Version: 6.00 Build 0)  -->
<svg version="1.1" id="Layer_1" xmlns="http://www.w3.org/2000/svg" xmlns:xlink="http://www.w3.org/1999/xlink" x="0px" y="0px"
	 viewBox="0 0 64 64" enable-background="new 0 0 64 64" xml:space="preserve">
<g>
	<path d="M32.4,61.8c-16.1,0-29.1-13-29.1-29.1s13-29.1,29.1-29.1c16.1,0,29.1,13,29.1,29.1S48.4,61.8,32.4,61.8z M46.1,39.6
		l-6.9-6.9l6.9-6.9c0.5-0.5,0.7-1.1,0.7-1.7s-0.3-1.3-0.7-1.7L42.7,19c-0.5-0.5-1.1-0.7-1.7-0.7s-1.3,0.3-1.7,0.7l-6.9,6.9L25.5,19
		c-0.5-0.5-1.1-0.7-1.7-0.7s-1.3,0.3-1.7,0.7l-3.4,3.4c-0.5,0.5-0.7,1.1-0.7,1.7s0.3,1.3,0.7,1.7l6.9,6.9l-6.9,6.9
		c-0.5,0.5-0.7,1.1-0.7,1.7s0.3,1.3,0.7,1.7l3.4,3.4c0.5,0.5,1.1,0.7,1.7,0.7s1.3-0.3,1.7-0.7l6.9-6.9l6.9,6.9
		c0.5,0.5,1.1,0.7,1.7,0.7s1.3-0.3,1.7-0.7l3.4-3.4c0.5-0.5,0.7-1.1,0.7-1.7S46.6,40,46.1,39.6z"/>
</g>
</svg>
