<?xml version="1.0" encoding="utf-8"?>
<!-- Generator: Adobe Illustrator 17.0.2, SVG Export Plug-In . SVG Version: 6.00 Build 0)  -->
<!DOCTYPE svg PUBLIC "-//W3C//DTD SVG 1.1//EN" "http://www.w3.org/Graphics/SVG/1.1/DTD/svg11.dtd">
<svg version="1.1" id="Layer_1" xmlns="http://www.w3.org/2000/svg" xmlns:xlink="http://www.w3.org/1999/xlink" x="0px" y="0px"
	 width="50px" height="50px" viewBox="0 0 50 50" enable-background="new 0 0 50 50" xml:space="preserve">
<g>
	<path fill="#010101" d="M49.969,40.261c0,1.121-0.397,2.072-1.174,2.856l-5.713,5.708C42.297,49.61,41.344,50,40.228,50
		c-1.121,0-2.074-0.392-2.859-1.174L25.025,36.482L12.682,48.826C11.897,49.61,10.949,50,9.828,50s-2.069-0.392-2.854-1.174
		l-5.713-5.708c-0.785-0.785-1.174-1.735-1.174-2.856c0-1.116,0.392-2.069,1.174-2.854l12.344-12.344L1.261,12.72
		c-0.785-0.785-1.174-1.735-1.174-2.856s0.392-2.069,1.174-2.856L6.974,1.3c0.785-0.785,1.732-1.174,2.854-1.174
		s2.069,0.392,2.854,1.174l12.344,12.344L37.369,1.3c0.785-0.785,1.737-1.174,2.859-1.174c1.114,0,2.069,0.392,2.854,1.174
		l5.713,5.708c0.777,0.787,1.174,1.735,1.174,2.856s-0.397,2.072-1.174,2.856L36.451,25.064l12.344,12.344
		C49.571,38.192,49.969,39.145,49.969,40.261z"/>
</g>
</svg>
