<?xml version="1.0" encoding="utf-8"?>
<!-- Generator: Adobe Illustrator 18.1.1, SVG Export Plug-In . SVG Version: 6.00 Build 0)  -->
<!DOCTYPE svg PUBLIC "-//W3C//DTD SVG 1.1//EN" "http://www.w3.org/Graphics/SVG/1.1/DTD/svg11.dtd">
<svg version="1.1" id="Layer_1" xmlns="http://www.w3.org/2000/svg" xmlns:xlink="http://www.w3.org/1999/xlink" x="0px" y="0px"
	 viewBox="-295 386.8 20.1 20.1" enable-background="new -295 386.8 20.1 20.1" xml:space="preserve">
<g>
	<path d="M-295,393.1v9.8c0,0.3,0.1,0.5,0.3,0.7c0.2,0.2,0.5,0.3,0.7,0.3h18c0.3,0,0.5-0.1,0.8-0.3c0.2-0.2,0.3-0.4,0.3-0.7v-9.8
		l-10,5.8L-295,393.1z"/>
</g>
<g>
	<path d="M-274.9,391.5v-0.8c0-0.3-0.1-0.5-0.3-0.7c-0.2-0.2-0.5-0.3-0.7-0.3h-18c-0.3,0-0.5,0.1-0.8,0.3c-0.2,0.2-0.3,0.4-0.3,0.7
		v0.8l10,5.7L-274.9,391.5z"/>
</g>
</svg>
