<?xml version="1.0" encoding="utf-8"?>
<!-- Generator: Adobe Illustrator 17.0.2, SVG Export Plug-In . SVG Version: 6.00 Build 0)  -->
<!DOCTYPE svg PUBLIC "-//W3C//DTD SVG 1.1//EN" "http://www.w3.org/Graphics/SVG/1.1/DTD/svg11.dtd">
<svg version="1.1" id="Layer_1" xmlns="http://www.w3.org/2000/svg" xmlns:xlink="http://www.w3.org/1999/xlink" x="0px" y="0px"
	 width="20.098px" height="14.287px" viewBox="0 0 20.098 14.287" enable-background="new 0 0 20.098 14.287" xml:space="preserve">
<g>
	<path d="M0,3.43l0,9.834c0,0.282,0.101,0.522,0.304,0.723c0.203,0.2,0.452,0.3,0.748,0.3h17.977c0.296,0,0.548-0.1,0.756-0.3
		c0.208-0.2,0.312-0.441,0.312-0.723V3.43L10.049,9.242L0,3.43z"/>
</g>
<g>
	<path d="M20.098,1.817V1.023c0-0.282-0.101-0.522-0.304-0.723C19.591,0.1,19.342,0,19.046,0L1.069,0c-0.296,0-0.548,0.1-0.756,0.3
		S0,0.742,0,1.023l0,0.794l10.049,5.675L20.098,1.817z"/>
</g>
</svg>
