<?xml version="1.0" encoding="utf-8"?>
<!-- Generated by IcoMoon.io -->
<!DOCTYPE svg PUBLIC "-//W3C//DTD SVG 1.1//EN" "http://www.w3.org/Graphics/SVG/1.1/DTD/svg11.dtd">
<svg version="1.1" xmlns="http://www.w3.org/2000/svg" xmlns:xlink="http://www.w3.org/1999/xlink" width="1072" height="1024" viewBox="0 0 1072 1024"><g id="icomoon-ignore">
</g>
<path d="M419.444 877.208h-204.29c-101.428 0-183.752-82.328-183.752-183.854v-449.13c0-101.476 82.328-183.854 183.752-183.854h204.29c10.772 0 20.394 9.576 20.394 20.448 0 17.848 8.28 61.236-20.394 61.236h-204.29c-56.098 0-102.070 45.97-102.070 102.17v449.182c0 56.198 45.972 102.172 102.070 102.172h183.854c15.91 0 40.838-3.14 40.838 20.448 0 17.85 8.28 61.186-20.394 61.186zM1019.868 497.59l-347.11 347.11c-7.73 7.63-17.85 12.12-28.726 12.12-22.342 0-40.84-18.402-40.84-40.738v-183.904h-285.87c-22.34 0-40.838-18.5-40.838-40.838v-245.034c0-22.342 18.5-40.84 40.838-40.84h285.87v-183.854c0-22.34 18.5-40.738 40.838-40.738 10.874 0 21.038 4.49 28.726 12.12l347.11 347.11c7.63 7.728 12.122 17.852 12.122 28.724s-4.49 21.038-12.12 28.776z"></path>
</svg>
