<?xml version="1.0" encoding="utf-8"?>
<!-- Generator: Adobe Illustrator 17.0.2, SVG Export Plug-In . SVG Version: 6.00 Build 0)  -->
<!DOCTYPE svg PUBLIC "-//W3C//DTD SVG 1.1//EN" "http://www.w3.org/Graphics/SVG/1.1/DTD/svg11.dtd">
<svg version="1.1" id="Layer_1" xmlns="http://www.w3.org/2000/svg" xmlns:xlink="http://www.w3.org/1999/xlink" x="0px" y="0px"
	 width="32px" height="24.96px" viewBox="0 7.04 32 24.96" enable-background="new 0 7.04 32 24.96" xml:space="preserve">
<g>
	<path d="M24,28.8H3.2V14.4h4.152c0,0,1.102-1.434,3.472-3.2l-9.224,0c-0.883,0-1.6,0.717-1.6,1.6v17.6C0,31.285,0.717,32,1.6,32h24
		c0.885,0,1.6-0.715,1.6-1.6v-5.994L24,27.038V28.8z M21.379,17.68v5.68L32,15.038L21.379,7.04v5.008
		C8.48,12.05,8.48,24.8,8.48,24.8C12.131,18.803,14.378,17.68,21.379,17.68z"/>
</g>
</svg>
