<?xml version="1.0" encoding="utf-8"?>
<!-- Generator: Adobe Illustrator 17.0.2, SVG Export Plug-In . SVG Version: 6.00 Build 0)  -->
<!DOCTYPE svg PUBLIC "-//W3C//DTD SVG 1.1//EN" "http://www.w3.org/Graphics/SVG/1.1/DTD/svg11.dtd">
<svg version="1.1" id="Layer_1" xmlns="http://www.w3.org/2000/svg" xmlns:xlink="http://www.w3.org/1999/xlink" x="0px" y="0px"
	 width="50px" height="50px" viewBox="0 0 50 50" enable-background="new 0 0 50 50" xml:space="preserve">
<path fill="#010101" d="M6.643,36.58C2.976,36.58,0,39.57,0,43.213c0,3.664,2.979,6.62,6.643,6.62c3.677,0,6.653-2.956,6.653-6.62
	C13.297,39.57,10.32,36.58,6.643,36.58z M0.008,16.936v9.566c6.228,0,12.089,2.436,16.5,6.85c4.406,4.401,6.839,10.287,6.839,16.541
	h9.609C32.954,31.718,18.169,16.936,0.008,16.936z M0.018-0.025v9.571c22.218,0,40.3,18.1,40.3,40.346h9.597
	C49.915,22.377,27.529-0.025,0.018-0.025z"/>
</svg>
