<?xml version="1.0" encoding="utf-8"?>
<!-- Generator: Adobe Illustrator 17.0.2, SVG Export Plug-In . SVG Version: 6.00 Build 0)  -->
<!DOCTYPE svg PUBLIC "-//W3C//DTD SVG 1.1//EN" "http://www.w3.org/Graphics/SVG/1.1/DTD/svg11.dtd">
<svg version="1.1" id="Layer_1" xmlns="http://www.w3.org/2000/svg" xmlns:xlink="http://www.w3.org/1999/xlink" x="0px" y="0px"
	 width="45.34px" height="60px" viewBox="0 0 45.34 60" enable-background="new 0 0 45.34 60" xml:space="preserve">
<g>
	<path d="M0,56.008V4.001C0,2.9,0.402,1.958,1.207,1.175S2.985,0,4.128,0h37.148c1.143,0,2.106,0.392,2.889,1.175
		C44.948,1.958,45.34,2.9,45.34,4.001v52.008c0,1.143-0.381,2.085-1.143,2.826c-0.762,0.741-1.736,1.111-2.921,1.111
		c-1.143,0-2.138-0.381-2.985-1.143L22.67,43.816L7.049,58.802c-0.889,0.804-1.863,1.207-2.921,1.207
		c-1.143,0-2.117-0.392-2.921-1.175C0.402,58.051,0,57.109,0,56.008z"/>
</g>
</svg>
