<?xml version="1.0" encoding="utf-8"?>
<!-- Generated by IcoMoon.io -->
<!DOCTYPE svg PUBLIC "-//W3C//DTD SVG 1.1//EN" "http://www.w3.org/Graphics/SVG/1.1/DTD/svg11.dtd">
<svg version="1.1" xmlns="http://www.w3.org/2000/svg" xmlns:xlink="http://www.w3.org/1999/xlink" width="1098" height="1024" viewBox="0 0 1098 1024"><g id="icomoon-ignore">
</g>
<path d="M0 758.856v-548.572q0-52.57 37.714-90.286t90.286-37.714h182.856q52.572 0 90.286 37.714t37.714 90.286v18.286h310.856q52.572 0 90.286 37.714t37.714 90.286v91.428h-475.428q-53.714 0-112.572 27.144t-93.714 68.286l-195.43 229.714q0-2.286-0.286-7.144t-0.286-7.144zM41.714 854.856q0-17.714 17.714-37.714l192-226.286q24.572-29.144 68.856-49.428t82-20.286h621.714q19.43 0 34.57 7.428t15.144 24.572q0 17.714-17.714 37.714l-192 226.286q-24.572 29.144-68.856 49.428t-82 20.286h-621.714q-19.43 0-34.57-7.428t-15.144-24.572z"></path>
</svg>
