<?xml version="1.0" encoding="utf-8"?>
<!-- Generator: Adobe Illustrator 18.1.1, SVG Export Plug-In . SVG Version: 6.00 Build 0)  -->
<svg version="1.1" id="Layer_1" xmlns="http://www.w3.org/2000/svg" xmlns:xlink="http://www.w3.org/1999/xlink" x="0px" y="0px"
	 viewBox="0 0 64 64" enable-background="new 0 0 64 64" xml:space="preserve">
<g>
	<path d="M54.9,37L33.3,57.8c-0.4,0.4-1,0.6-1.5,0.6c-0.6,0-1.1-0.2-1.5-0.6L8.7,37c-0.3-0.2-7.9-7.2-7.9-15.5
		C0.8,11.3,7,5.2,17.3,5.2c6.1,0,11.7,4.8,14.5,7.5c2.7-2.7,8.4-7.5,14.5-7.5c10.4,0,16.6,6.1,16.6,16.2
		C62.8,29.8,55.2,36.7,54.9,37z M46.3,9.7c-5.2,0-11,5.6-12.8,7.7c-0.8,1-2.6,1-3.4,0c-1.8-2.1-7.6-7.7-12.8-7.7
		c-5.5,0-12.1,2-12.1,11.8c0,6.3,6.4,12.2,6.5,12.3l20.1,19.4l20.1-19.4c0.1-0.1,6.5-6,6.5-12.3C58.4,11.7,51.8,9.7,46.3,9.7z"/>
</g>
</svg>
