<?xml version="1.0" encoding="utf-8"?>
<!-- Generator: Adobe Illustrator 17.0.2, SVG Export Plug-In . SVG Version: 6.00 Build 0)  -->
<!DOCTYPE svg PUBLIC "-//W3C//DTD SVG 1.1//EN" "http://www.w3.org/Graphics/SVG/1.1/DTD/svg11.dtd">
<svg version="1.1" id="Layer_1" xmlns="http://www.w3.org/2000/svg" xmlns:xlink="http://www.w3.org/1999/xlink" x="0px" y="0px"
	 width="20px" height="20px" viewBox="0 0 20 20" enable-background="new 0 0 20 20" xml:space="preserve">
<path d="M9.955-0.045C4.407-0.045-0.091,4.452-0.091,10c0,5.548,4.497,10.045,10.045,10.045C15.503,20.045,20,15.548,20,10
	C20,4.452,15.503-0.045,9.955-0.045z M9.975,17.589c-4.203,0-7.61-3.407-7.61-7.61s3.407-7.61,7.61-7.61
	c4.203,0,7.61,3.407,7.61,7.61S14.178,17.589,9.975,17.589z"/>
<path d="M8.28,4.977h1.674h1.674v1.674H9.955H8.28V4.977z M13.303,15.023h-1.674H9.955H8.28H6.606v-1.674H8.28v-1.674V10H6.606
	V8.326H8.28h1.674h1.674V10v1.674v1.674h1.674V15.023z"/>
</svg>
