<?xml version="1.0" encoding="utf-8"?>
<!-- Generator: Adobe Illustrator 18.0.0, SVG Export Plug-In . SVG Version: 6.00 Build 0)  -->
<!DOCTYPE svg PUBLIC "-//W3C//DTD SVG 1.1//EN" "http://www.w3.org/Graphics/SVG/1.1/DTD/svg11.dtd">
<svg version="1.1" id="Layer_1" xmlns="http://www.w3.org/2000/svg" xmlns:xlink="http://www.w3.org/1999/xlink" x="0px" y="0px"
	 viewBox="-245 -239 512 512" enable-background="new -245 -239 512 512" xml:space="preserve">
<g id="e2w1dq.tif">
	<g>
		<path d="M95-239c8,0,16,0,24,0c1.1,0.3,2.2,0.7,3.3,0.8c66.2,6.4,121.1,52.3,138.7,116.4c2.8,10,4,20.5,6,30.8c0,8,0,16,0,24
			c-0.3,1.3-0.6,2.6-0.9,3.9c-2.7,12.5-4.4,25.3-8.4,37.4C229.5,57.6,134.6,102.2,52.6,71c-2.7-1-4.4-0.9-6.5,1.3
			c-10.7,11-21.7,21.6-32.4,32.6c-1.5,1.6-2.6,4.3-2.6,6.4c-0.2,13.7-0.7,27.3,0,41c1,18.4-5.3,25.9-24.9,24.8
			c-12.9-0.7-25.9-0.1-39.3-0.1c0,2.3,0,4.1,0,5.9c0,13.7,0.1,27.3,0,41c-0.1,10.6-6.6,17-17.3,17.1c-12,0.1-24.1,0.9-36-0.2
			c-11.9-1.1-20.3,2.7-28,11.6c-6.6,7.7-15.1,13.8-22.7,20.6c-25.3,0-50.7,0-76,0c-5.6-2.4-9.6-6.4-12-12c0-25.3,0-50.7,0-76
			c2.7-3.5,5-7.4,8.1-10.5c63.9-64,127.9-128,191.9-191.9c2.1-2.1,3.3-3.8,2.1-7.2c-10.3-27.6-13.3-56.1-6.9-84.9
			c13.9-63,52.1-104.2,113.7-123.3C73.8-236,84.6-237,95-239z M138.9-159c-26.5,0-47.9,21.6-47.9,48c0,26.4,21.7,47.9,48.1,47.9
			c26.3,0,47.9-21.8,47.9-48.1C186.9-137.6,165.4-159,138.9-159z"/>
	</g>
</g>
</svg>
