<?xml version="1.0" encoding="utf-8"?>
<!-- Generator: Adobe Illustrator 18.1.1, SVG Export Plug-In . SVG Version: 6.00 Build 0)  -->
<svg version="1.1" id="Layer_1" xmlns="http://www.w3.org/2000/svg" xmlns:xlink="http://www.w3.org/1999/xlink" x="0px" y="0px"
	 viewBox="-95 43 60 60" enable-background="new -95 43 60 60" xml:space="preserve">
<g>
	<path d="M-38.9,94.2l-5.3,5.3c-2,2-4.6,3-7.3,3c-2.8,0-5.4-1.1-7.4-3.1l-7.5-7.5c-2-2-3-4.6-3-7.3c0-2.9,1.2-5.6,3.2-7.6l-3.2-3.2
		c-2,2-4.7,3.2-7.5,3.2c-2.8,0-5.4-1.1-7.4-3l-7.5-7.5c-2-2-3-4.6-3-7.4c0-2.8,1.1-5.4,3.1-7.3l5.3-5.3c2-2,4.6-3,7.3-3
		c2.8,0,5.4,1.1,7.4,3.1l7.5,7.5c2,2,3,4.6,3,7.3c0,2.9-1.2,5.6-3.2,7.6l3.2,3.2c2-2,4.7-3.2,7.5-3.2c2.8,0,5.4,1.1,7.4,3l7.5,7.5
		c2,2,3,4.6,3,7.4C-35.8,89.6-36.9,92.3-38.9,94.2z M-69.2,58.9l-7.5-7.5c-0.7-0.7-1.6-1-2.5-1c-0.9,0-1.8,0.4-2.5,1l-5.3,5.3
		c-0.7,0.7-1,1.5-1,2.4c0,0.9,0.4,1.8,1,2.5l7.5,7.5c0.7,0.7,1.6,1,2.5,1c1,0,1.9-0.4,2.6-1.1c-1.2-1.2-2.6-2.2-2.6-4.1
		c0-1.9,1.6-3.5,3.5-3.5c1.8,0,2.9,1.4,4.1,2.6c0.8-0.7,1.2-1.6,1.2-2.6C-68.2,60.5-68.5,59.5-69.2,58.9z M-43.7,84.4l-7.5-7.5
		c-0.7-0.7-1.6-1-2.5-1c-1,0-1.9,0.4-2.6,1.2c1.2,1.2,2.6,2.2,2.6,4.1c0,1.9-1.6,3.5-3.5,3.5c-1.8,0-2.9-1.4-4.1-2.6
		c-0.8,0.7-1.2,1.6-1.2,2.6c0,0.9,0.4,1.8,1,2.5l7.5,7.5c0.7,0.7,1.6,1,2.5,1c0.9,0,1.8-0.3,2.5-0.9l5.3-5.3c0.7-0.7,1-1.5,1-2.4
		C-42.7,85.9-43.1,85.1-43.7,84.4z"/>
</g>
</svg>
