<?xml version="1.0" encoding="utf-8"?>
<!-- Generator: Adobe Illustrator 17.0.2, SVG Export Plug-In . SVG Version: 6.00 Build 0)  -->
<!DOCTYPE svg PUBLIC "-//W3C//DTD SVG 1.1//EN" "http://www.w3.org/Graphics/SVG/1.1/DTD/svg11.dtd">
<svg version="1.1" id="Layer_1" xmlns="http://www.w3.org/2000/svg" xmlns:xlink="http://www.w3.org/1999/xlink" x="0px" y="0px"
	 width="20.621px" height="25.25px" viewBox="0 0 20.621 25.25" enable-background="new 0 0 20.621 25.25" xml:space="preserve">
<g>
	<path d="M5.727,11.458h9.166V8.02c0-1.265-0.447-2.345-1.343-3.24c-0.895-0.895-1.975-1.343-3.24-1.343S7.965,3.885,7.07,4.78
		C6.175,5.676,5.728,6.756,5.728,8.02L5.727,11.458L5.727,11.458z M20.621,13.177v10.312c0,0.477-0.167,0.883-0.502,1.218
		c-0.334,0.334-0.74,0.502-1.218,0.502H1.716c-0.477,0-0.883-0.167-1.218-0.502c-0.334-0.334-0.502-0.74-0.502-1.218V13.177
		c0-0.477,0.167-0.883,0.502-1.218s0.74-0.502,1.218-0.502h0.573V8.02c0-2.196,0.788-4.082,2.363-5.657S8.113,0,10.309,0
		s4.081,0.787,5.657,2.363c1.575,1.576,2.363,3.461,2.363,5.657v3.437h0.573c0.477,0,0.883,0.167,1.218,0.502
		C20.454,12.294,20.622,12.7,20.621,13.177L20.621,13.177L20.621,13.177z"/>
</g>
</svg>
