<?xml version="1.0" encoding="utf-8"?> <!-- Generator: IcoMoon.io --> <!DOCTYPE svg PUBLIC "-//W3C//DTD SVG 1.1//EN" "http://www.w3.org/Graphics/SVG/1.1/DTD/svg11.dtd"> <svg width="60" height="60" viewBox="0 0 60 60" xmlns="http://www.w3.org/2000/svg" xmlns:xlink="http://www.w3.org/1999/xlink" fill="#000000"><g><path d="M 43.125,0L 16.875,0 c-3.094,0-5.625,2.531-5.625,5.625l0,48.75 c0,3.094, 2.531,5.625, 5.625,5.625l 26.25,0 c 3.094,0, 5.625-2.531, 5.625-5.625L 48.75,5.625 C 48.75,2.531, 46.219,0, 43.125,0z M 22.5,2.813 l 15,0 l0,1.875 L 22.5,4.688 L 22.5,2.813 z M 30,56.25c-2.071,0-3.75-1.679-3.75-3.75s 1.679-3.75, 3.75-3.75s 3.75,1.679, 3.75,3.75S 32.071,56.25, 30,56.25z M 45,45L 15,45 L 15,7.5 l 30,0 L 45,45 z"></path></g></svg>