<?xml version="1.0" encoding="utf-8"?>
<!-- Generator: Adobe Illustrator 18.0.0, SVG Export Plug-In . SVG Version: 6.00 Build 0)  -->
<!DOCTYPE svg PUBLIC "-//W3C//DTD SVG 1.1//EN" "http://www.w3.org/Graphics/SVG/1.1/DTD/svg11.dtd">
<svg version="1.1" id="Layer_1" xmlns="http://www.w3.org/2000/svg" xmlns:xlink="http://www.w3.org/1999/xlink" x="0px" y="0px"
	 viewBox="0 0 20 20" enable-background="new 0 0 20 20" xml:space="preserve">
<path fill="#010101" d="M14.3,12.6c-0.3,0.5-0.6,0.9-1.1,1.3c-0.5,0.3-1,0.5-1.6,0.5c-0.4,0-0.8-0.1-1.1-0.2
	c-0.4-0.2-0.6-0.3-0.8-0.6c-0.1-0.1-0.2-0.2-0.3-0.3l-1.7,3.6l-5.2-2.4l3.2-7.2C6,6.8,6.3,6.4,6.8,6.1c0.5-0.3,1-0.5,1.6-0.5
	c0.4,0,0.8,0.1,1.1,0.2c0.4,0.2,0.5,0.3,0.8,0.5c0.1,0.1,0.2,0.2,0.3,0.3l1.7-3.7l5.2,2.4L14.3,12.6z"/>
</svg>
