<?xml version="1.0" encoding="utf-8"?>
<!-- Generator: Adobe Illustrator 18.1.1, SVG Export Plug-In . SVG Version: 6.00 Build 0)  -->
<!DOCTYPE svg PUBLIC "-//W3C//DTD SVG 1.1//EN" "http://www.w3.org/Graphics/SVG/1.1/DTD/svg11.dtd">
<svg version="1.1" id="Layer_1" xmlns="http://www.w3.org/2000/svg" xmlns:xlink="http://www.w3.org/1999/xlink" x="0px" y="0px"
	 viewBox="76.5 178.7 459 428.4" enable-background="new 76.5 178.7 459 428.4" xml:space="preserve">
<path fill="#010101" d="M437.6,475.6c-9.2,15.3-18.4,27.5-33.7,39.8c-15.3,9.2-30.6,15.3-49,15.3c-12.2,0-24.5-3.1-33.7-6.1
	c-12.2-6.1-18.4-9.2-24.5-18.4c-3.1-3.1-6.1-6.1-9.2-9.2l-52,110.2L76.5,533.7l97.9-220.3c9.2-15.3,18.4-27.5,33.7-36.7
	c15.3-9.2,30.6-15.3,49-15.3c12.2,0,24.5,3.1,33.7,6.1c12.2,6.1,15.3,9.2,24.5,15.3c3.1,3.1,6.1,6.1,9.2,9.2l52-113.2l159.1,73.4
	L437.6,475.6z"/>
</svg>
