<?xml version="1.0" encoding="utf-8"?>
<!-- Generator: Adobe Illustrator 17.0.2, SVG Export Plug-In . SVG Version: 6.00 Build 0)  -->
<!DOCTYPE svg PUBLIC "-//W3C//DTD SVG 1.1//EN" "http://www.w3.org/Graphics/SVG/1.1/DTD/svg11.dtd">
<svg version="1.1" id="Layer_1" xmlns="http://www.w3.org/2000/svg" xmlns:xlink="http://www.w3.org/1999/xlink" x="0px" y="0px"
	 width="20px" height="20px" viewBox="0 0 20 20" enable-background="new 0 0 20 20" xml:space="preserve">
<path fill="#010101" d="M17,0H3C1.343,0,0,1.343,0,3v14c0,1.657,1.343,3,3,3h14c1.657,0,3-1.343,3-3V3C20,1.343,18.657,0,17,0z
	 M14.274,12.633c-0.254,0.523-0.608,0.943-1.07,1.258c-0.461,0.317-0.98,0.474-1.558,0.474c-0.398,0-0.776-0.076-1.138-0.231
	c-0.359-0.152-0.563-0.289-0.834-0.561c-0.079-0.077-0.19-0.189-0.258-0.274l-1.733,3.649L2.5,14.54l3.232-7.187
	c0.235-0.523,0.591-0.939,1.07-1.246c0.479-0.307,1.005-0.461,1.586-0.461c0.394,0,0.771,0.078,1.121,0.231
	c0.354,0.154,0.543,0.251,0.814,0.523c0.075,0.074,0.212,0.232,0.279,0.312l1.736-3.661L17.5,5.45L14.274,12.633z"/>
</svg>
