<?xml version="1.0" encoding="utf-8"?>
<!-- Generator: Adobe Illustrator 18.0.0, SVG Export Plug-In . SVG Version: 6.00 Build 0)  -->
<!DOCTYPE svg PUBLIC "-//W3C//DTD SVG 1.1//EN" "http://www.w3.org/Graphics/SVG/1.1/DTD/svg11.dtd">
<svg version="1.1" id="Layer_1" xmlns="http://www.w3.org/2000/svg" xmlns:xlink="http://www.w3.org/1999/xlink" x="0px" y="0px"
	 viewBox="0 0 32 32" enable-background="new 0 0 32 32" xml:space="preserve">
<path d="M89.2-7.2h8v8h-8V-7.2z M101.2-5.2h20v4h-20V-5.2z M89.2,4.8h8v8h-8V4.8z M101.2,6.8h20v4h-20V6.8z M89.2,16.8h8v8h-8V16.8z
	 M101.2,18.8h20v4h-20V18.8z"/>
<g>
	<path d="M23,3.4L10.4,16L23,28.5c0.2,0.2,0.3,0.5,0.3,0.7c0,0.3-0.1,0.5-0.3,0.7l-1.6,1.6c-0.2,0.2-0.5,0.3-0.7,0.3
		c-0.3,0-0.5-0.1-0.7-0.3L5,16.7c-0.2-0.2-0.3-0.5-0.3-0.7c0-0.3,0.1-0.5,0.3-0.7L19.9,0.3C20.1,0.1,20.4,0,20.7,0
		c0.3,0,0.5,0.1,0.7,0.3L23,1.9c0.2,0.2,0.3,0.4,0.3,0.7C23.3,2.9,23.2,3.2,23,3.4z"/>
</g>
</svg>
