<?xml version="1.0" encoding="utf-8"?>
<!-- Generator: Adobe Illustrator 18.0.0, SVG Export Plug-In . SVG Version: 6.00 Build 0)  -->
<!DOCTYPE svg PUBLIC "-//W3C//DTD SVG 1.1//EN" "http://www.w3.org/Graphics/SVG/1.1/DTD/svg11.dtd">
<svg version="1.1" id="Layer_1" xmlns="http://www.w3.org/2000/svg" xmlns:xlink="http://www.w3.org/1999/xlink" x="0px" y="0px"
	 viewBox="0 0 32 32" enable-background="new 0 0 32 32" xml:space="preserve">
<path d="M89.2-7.2h8v8h-8V-7.2z M101.2-5.2h20v4h-20V-5.2z M89.2,4.8h8v8h-8V4.8z M101.2,6.8h20v4h-20V6.8z M89.2,16.8h8v8h-8V16.8z
	 M101.2,18.8h20v4h-20V18.8z"/>
<g>
	<path d="M7,28.5l12.6-12.6L7,3.4C6.8,3.2,6.7,2.9,6.7,2.7c0-0.3,0.1-0.5,0.3-0.7l1.6-1.6C8.8,0.1,9.1,0,9.4,0
		c0.3,0,0.5,0.1,0.7,0.3L25,15.2c0.2,0.2,0.3,0.5,0.3,0.7c0,0.3-0.1,0.5-0.3,0.7L10.1,31.6c-0.2,0.2-0.5,0.3-0.7,0.3
		c-0.3,0-0.5-0.1-0.7-0.3L7,30c-0.2-0.2-0.3-0.4-0.3-0.7C6.7,29,6.8,28.7,7,28.5z"/>
</g>
</svg>
