<?xml version="1.0" encoding="utf-8"?>
<!-- Generator: Adobe Illustrator 18.0.0, SVG Export Plug-In . SVG Version: 6.00 Build 0)  -->
<!DOCTYPE svg PUBLIC "-//W3C//DTD SVG 1.1//EN" "http://www.w3.org/Graphics/SVG/1.1/DTD/svg11.dtd">
<svg version="1.1" id="Layer_1" xmlns="http://www.w3.org/2000/svg" xmlns:xlink="http://www.w3.org/1999/xlink" x="0px" y="0px"
	 viewBox="0 0 32 32" enable-background="new 0 0 32 32" xml:space="preserve">
<path d="M89.2-7.2h8v8h-8V-7.2z M101.2-5.2h20v4h-20V-5.2z M89.2,4.8h8v8h-8V4.8z M101.2,6.8h20v4h-20V6.8z M89.2,16.8h8v8h-8V16.8z
	 M101.2,18.8h20v4h-20V18.8z"/>
<g>
	<path d="M18.8,30l-1.6,1.6c-0.2,0.2-0.5,0.3-0.7,0.3s-0.5-0.1-0.7-0.3L0.9,16.7c-0.2-0.2-0.3-0.5-0.3-0.7c0-0.3,0.1-0.5,0.3-0.7
		L15.7,0.4c0.2-0.2,0.5-0.3,0.7-0.3s0.5,0.1,0.7,0.3L18.8,2c0.2,0.2,0.3,0.5,0.3,0.7S19,3.3,18.8,3.5L6.3,16l12.5,12.5
		c0.2,0.2,0.3,0.5,0.3,0.7C19.1,29.5,19,29.8,18.8,30z M31,30l-1.6,1.6c-0.2,0.2-0.5,0.3-0.7,0.3c-0.3,0-0.5-0.1-0.7-0.3L13.1,16.7
		c-0.2-0.2-0.3-0.5-0.3-0.7c0-0.3,0.1-0.5,0.3-0.7L27.9,0.4c0.2-0.2,0.5-0.3,0.7-0.3c0.3,0,0.5,0.1,0.7,0.3L31,2
		c0.2,0.2,0.3,0.5,0.3,0.7S31.2,3.3,31,3.5L18.5,16L31,28.5c0.2,0.2,0.3,0.5,0.3,0.7C31.3,29.5,31.2,29.8,31,30z"/>
</g>
</svg>
