<?xml version="1.0" encoding="utf-8"?>
<!-- Generator: Adobe Illustrator 18.0.0, SVG Export Plug-In . SVG Version: 6.00 Build 0)  -->
<!DOCTYPE svg PUBLIC "-//W3C//DTD SVG 1.1//EN" "http://www.w3.org/Graphics/SVG/1.1/DTD/svg11.dtd">
<svg version="1.1" id="Layer_1" xmlns="http://www.w3.org/2000/svg" xmlns:xlink="http://www.w3.org/1999/xlink" x="0px" y="0px"
	 viewBox="0 0 32 32" enable-background="new 0 0 32 32" xml:space="preserve">
<g>
	<path d="M13.1,2l1.6-1.6c0.2-0.2,0.5-0.3,0.7-0.3c0.3,0,0.5,0.1,0.7,0.3L31,15.2c0.2,0.2,0.3,0.5,0.3,0.7c0,0.3-0.1,0.5-0.3,0.7
		L16.2,31.5c-0.2,0.2-0.5,0.3-0.7,0.3c-0.3,0-0.5-0.1-0.7-0.3L13.1,30c-0.2-0.2-0.3-0.5-0.3-0.7c0-0.3,0.1-0.5,0.3-0.7L25.6,16
		L13.1,3.5c-0.2-0.2-0.3-0.5-0.3-0.7C12.8,2.5,12.9,2.2,13.1,2z M0.9,2l1.6-1.6C2.7,0.2,3,0.1,3.2,0.1S3.8,0.2,4,0.4l14.8,14.8
		c0.2,0.2,0.3,0.5,0.3,0.7c0,0.3-0.1,0.5-0.3,0.7L4,31.5c-0.2,0.2-0.5,0.3-0.7,0.3s-0.5-0.1-0.7-0.3L0.9,30
		c-0.2-0.2-0.3-0.5-0.3-0.7c0-0.3,0.1-0.5,0.3-0.7L13.4,16L0.9,3.5C0.7,3.3,0.6,3,0.6,2.7C0.6,2.5,0.7,2.2,0.9,2z"/>
</g>
</svg>
