<?xml version="1.0" encoding="utf-8"?>
<!-- Generator: Adobe Illustrator 18.1.1, SVG Export Plug-In . SVG Version: 6.00 Build 0)  -->
<!DOCTYPE svg PUBLIC "-//W3C//DTD SVG 1.1//EN" "http://www.w3.org/Graphics/SVG/1.1/DTD/svg11.dtd">
<svg version="1.1" id="Layer_1" xmlns="http://www.w3.org/2000/svg" xmlns:xlink="http://www.w3.org/1999/xlink" x="0px" y="0px"
	 viewBox="-291.2 395.6 15.6 15.6" enable-background="new -291.2 395.6 15.6 15.6" xml:space="preserve">
<path d="M-280,402.7v-1.3l-6.3,0c-1.1,0-1.9,0.9-1.9,1.9c0,1.1,0.9,1.9,1.9,1.9l7.6,0c1.8,0,3.2-1.4,3.2-3.2c0-1.8-1.4-3.2-3.2-3.2
	h-8c0,0,0,0,0,0c-2.4,0-4.4,2-4.4,4.4c0,2.4,2,4.4,4.4,4.4c0,0,0,0,0,0v0h5.5l0-1.3l-5.5,0c0,0,0,0,0,0c-1.7,0-3.2-1.4-3.2-3.2
	c0-1.7,1.4-3.2,3.2-3.2c0,0,0,0,0,0v0l8,0c1,0,1.9,0.9,1.9,1.9c0,1-0.9,1.9-1.9,1.9l-7.6,0c-0.4,0-0.6-0.3-0.6-0.6
	c0-0.4,0.3-0.6,0.6-0.6L-280,402.7L-280,402.7z"/>
</svg>
