<?xml version="1.0" encoding="utf-8"?>
<!-- Generator: Adobe Illustrator 17.0.2, SVG Export Plug-In . SVG Version: 6.00 Build 0)  -->
<!DOCTYPE svg PUBLIC "-//W3C//DTD SVG 1.1//EN" "http://www.w3.org/Graphics/SVG/1.1/DTD/svg11.dtd">
<svg version="1.1" id="Layer_1" xmlns="http://www.w3.org/2000/svg" xmlns:xlink="http://www.w3.org/1999/xlink" x="0px" y="0px"
	 width="15.616px" height="8.854px" viewBox="5.828 6.794 15.616 8.854" enable-background="new 5.828 6.794 15.616 8.854"
	 xml:space="preserve">
<path d="M17,10.603l0-1.269l-6.348-0.001c-1.052,0-1.905,0.853-1.904,1.904c0,1.051,0.853,1.904,1.905,1.905l7.618,0.001
	c1.753,0.001,3.174-1.421,3.174-3.174c0-1.753-1.421-3.174-3.174-3.174l-7.999,0c-0.006,0-0.012,0-0.017,0
	c-2.445,0-4.427,1.982-4.426,4.426c0,2.444,1.982,4.427,4.427,4.427c0.006,0,0.011-0.001,0.017,0v0.001l5.46,0l-0.001-1.27
	l-5.459-0.001c-0.005,0-0.011,0-0.016,0c-1.741,0-3.157-1.416-3.158-3.158c0-1.741,1.416-3.157,3.157-3.157
	c0.006,0,0.012,0,0.017,0.001l0-0.001l7.999,0.001c1.05,0,1.905,0.854,1.905,1.905c0,1.05-0.855,1.904-1.904,1.904l-7.618-0.001
	c-0.35,0-0.635-0.285-0.635-0.635c0-0.35,0.285-0.635,0.635-0.635L17,10.603L17,10.603z"/>
</svg>
