<?xml version="1.0" encoding="utf-8"?>
<!-- Generator: Adobe Illustrator 17.0.2, SVG Export Plug-In . SVG Version: 6.00 Build 0)  -->
<!DOCTYPE svg PUBLIC "-//W3C//DTD SVG 1.1//EN" "http://www.w3.org/Graphics/SVG/1.1/DTD/svg11.dtd">
<svg version="1.1" id="Layer_1" xmlns="http://www.w3.org/2000/svg" xmlns:xlink="http://www.w3.org/1999/xlink" x="0px" y="0px"
	 width="20px" height="20px" viewBox="0 0 20 20" enable-background="new 0 0 20 20" xml:space="preserve">
<g>
	<path fill="#010101" d="M0,15.056L11.589,3.467l4.975,4.944L4.975,20H0V15.056z M3.306,16.694v1.669h0.989l1.978-2.009
		l-2.627-2.627l-1.978,2.009v0.958L3.306,16.694L3.306,16.694z M5.81,12.552l6.057-6.057c0.123-0.123,0.165-0.263,0.124-0.417
		c-0.041-0.155-0.128-0.242-0.263-0.263c-0.134-0.02-0.273,0.021-0.417,0.124l-6.057,6.057c-0.185,0.185-0.185,0.371,0,0.557
		C5.439,12.739,5.625,12.739,5.81,12.552L5.81,12.552z M12.702,2.354l1.576-1.576c0.33-0.33,0.721-0.495,1.174-0.495
		c0.453,0,0.845,0.165,1.174,0.495l2.627,2.596c0.33,0.33,0.495,0.721,0.495,1.174s-0.165,0.845-0.495,1.174L17.677,7.33
		L12.702,2.354z"/>
</g>
</svg>
