<?xml version="1.0" encoding="utf-8"?>
<!-- Generator: Adobe Illustrator 18.1.1, SVG Export Plug-In . SVG Version: 6.00 Build 0)  -->
<!DOCTYPE svg PUBLIC "-//W3C//DTD SVG 1.1//EN" "http://www.w3.org/Graphics/SVG/1.1/DTD/svg11.dtd">
<svg version="1.1" id="Layer_1" xmlns="http://www.w3.org/2000/svg" xmlns:xlink="http://www.w3.org/1999/xlink" x="0px" y="0px"
	 viewBox="-295 386.8 20 20" enable-background="new -295 386.8 20 20" xml:space="preserve">
<path fill="#010101" d="M-280.7,401.7c-0.4-0.1-0.4-1.1-0.4-1.1s1.1-1.1,1.4-2.6c0.6,0,1-1.6,0.4-2.1c0-0.6,0.8-4.4-3.1-4.5l0,0
	c0,0-0.1,0-0.1,0c0,0-0.1,0-0.1,0v0c-3.9,0.1-3.1,3.9-3.1,4.5c-0.6,0.5-0.2,2.1,0.4,2.1c0.2,1.5,1.4,2.6,1.4,2.6s0,1-0.4,1.1
	c-4.1,1.2-5.1,1-5.7,3.9c0,0.1,0.1,0.4,0.4,0.4h7.3h1.4h5.4c0.3,0,0.5-0.3,0.5-0.4C-275.6,402.6-276.5,402.9-280.7,401.7z"/>
<g>
	<path fill="#010101" d="M-285.5,400.7c-0.4-0.6-0.8-1.4-1-2.3c-0.8,0-1.3-1.9-0.5-2.6c0-0.6-0.8-4.6,2.7-5.4
		c-0.1-1.3-0.7-2.8-3.1-2.8l0,0c0,0-0.1,0-0.1,0c0,0-0.1,0-0.1,0v0c-3.9,0.1-3.1,3.9-3.1,4.5c-0.6,0.5-0.2,2.1,0.4,2.1
		c0.2,1.5,1.4,2.5,1.4,2.5s0,1-0.4,1.1c-4.1,1.2-5.1,1-5.7,4c0,0.1,0.1,0.4,0.4,0.4h5.7c1.8-1.1,3-1.1,3.3-1.3
		C-285.6,400.9-285.5,400.8-285.5,400.7z"/>
</g>
</svg>
