<?xml version="1.0" encoding="utf-8"?>
<!-- Generator: Adobe Illustrator 17.0.2, SVG Export Plug-In . SVG Version: 6.00 Build 0)  -->
<!DOCTYPE svg PUBLIC "-//W3C//DTD SVG 1.1//EN" "http://www.w3.org/Graphics/SVG/1.1/DTD/svg11.dtd">
<svg version="1.1" id="Layer_1" xmlns="http://www.w3.org/2000/svg" xmlns:xlink="http://www.w3.org/1999/xlink" x="0px" y="0px"
	 width="20px" height="18.407px" viewBox="0 0 20 18.407" enable-background="new 0 0 20 18.407" xml:space="preserve">
<path fill="#010101" d="M14.333,14.058c-0.377-0.059-0.386-1.087-0.386-1.087s1.108-1.087,1.35-2.55c0.649,0,1.05-1.555,0.401-2.102
	c0.027-0.567,0.8-4.389-3.078-4.508L12.619,3.8c-0.032,0-0.057,0.005-0.088,0.006c-0.031,0-0.056-0.006-0.088-0.006l0,0.011
	C8.564,3.929,9.337,7.752,9.364,8.319c-0.649,0.547-0.248,2.102,0.401,2.102c0.241,1.462,1.35,2.55,1.35,2.55
	s-0.009,1.028-0.386,1.087c-4.138,1.225-5.055,0.952-5.672,3.95c-0.026,0.127,0.102,0.4,0.378,0.4h7.274h1.385h5.419
	c0.275,0,0.519-0.273,0.493-0.4C19.388,15.01,18.47,15.283,14.333,14.058z"/>
<g>
	<path fill="#010101" d="M9.499,13.113c-0.389-0.561-0.829-1.364-0.983-2.297c-0.796,0-1.288-1.906-0.492-2.577
		c-0.03-0.634-0.808-4.586,2.671-5.382C10.583,1.592,9.972,0.085,7.56,0.011L7.558,0C7.527,0,7.502,0.005,7.47,0.005
		C7.439,0.005,7.414,0,7.383,0l0,0.011C3.504,0.129,4.277,3.953,4.304,4.52C3.654,5.066,4.056,6.621,4.705,6.621
		c0.241,1.462,1.35,2.55,1.35,2.55s-0.009,1.028-0.386,1.087c-4.138,1.225-5.055,0.952-5.672,3.95c-0.026,0.127,0.102,0.4,0.378,0.4
		h5.673c1.838-1.096,2.991-1.08,3.256-1.257C9.388,13.295,9.451,13.209,9.499,13.113z"/>
</g>
</svg>
