<?xml version="1.0" encoding="utf-8"?>
<!-- Generator: Adobe Illustrator 17.0.2, SVG Export Plug-In . SVG Version: 6.00 Build 0)  -->
<!DOCTYPE svg PUBLIC "-//W3C//DTD SVG 1.1//EN" "http://www.w3.org/Graphics/SVG/1.1/DTD/svg11.dtd">
<svg version="1.1" id="Layer_1" xmlns="http://www.w3.org/2000/svg" xmlns:xlink="http://www.w3.org/1999/xlink" x="0px" y="0px"
	 width="20px" height="15.746px" viewBox="0 0 20 15.746" enable-background="new 0 0 20 15.746" xml:space="preserve">
<path fill="#010101" d="M10.057,11.058C9.65,10.994,9.641,9.885,9.641,9.885s1.195-1.172,1.455-2.748c0.7,0,1.132-1.676,0.432-2.265
	c0.029-0.611,0.862-4.731-3.317-4.86L8.209,0C8.175,0,8.148,0.005,8.115,0.006C8.081,0.005,8.054,0,8.02,0l0,0.012
	c-4.181,0.127-3.348,4.249-3.319,4.86c-0.7,0.59-0.268,2.265,0.432,2.265c0.26,1.576,1.455,2.748,1.455,2.748
	s-0.01,1.108-0.416,1.172c-4.46,1.321-5.449,1.026-6.114,4.258c-0.028,0.137,0.11,0.431,0.407,0.431h7.841h1.493h5.841
	c0.297,0,0.56-0.294,0.532-0.431C15.506,12.084,14.517,12.378,10.057,11.058z"/>
<g>
	<path fill="#010101" d="M17.324,11.199c-0.093,0.093-0.205,0.139-0.334,0.139l-0.946,0c-0.13,0-0.241-0.047-0.334-0.139
		c-0.093-0.093-0.14-0.204-0.14-0.334V8.819h-2.046c-0.13,0-0.241-0.046-0.334-0.139s-0.139-0.204-0.139-0.334l0-0.946
		c0-0.13,0.046-0.241,0.139-0.334c0.093-0.093,0.204-0.139,0.334-0.139h2.046V4.881c0-0.13,0.046-0.241,0.139-0.334
		s0.204-0.139,0.334-0.139l0.946,0c0.13,0,0.241,0.046,0.334,0.139c0.093,0.093,0.139,0.204,0.139,0.334v2.046h2.046
		c0.13,0,0.241,0.047,0.334,0.14c0.092,0.092,0.139,0.204,0.139,0.334l0,0.946c-0.001,0.13-0.046,0.241-0.139,0.334
		c-0.093,0.093-0.205,0.139-0.334,0.139h-2.046v2.046C17.462,10.995,17.416,11.106,17.324,11.199z"/>
</g>
</svg>
