<?xml version="1.0" encoding="utf-8"?>
<!-- Generator: Adobe Illustrator 17.0.2, SVG Export Plug-In . SVG Version: 6.00 Build 0)  -->
<!DOCTYPE svg PUBLIC "-//W3C//DTD SVG 1.1//EN" "http://www.w3.org/Graphics/SVG/1.1/DTD/svg11.dtd">
<svg version="1.1" id="Layer_1" xmlns="http://www.w3.org/2000/svg" xmlns:xlink="http://www.w3.org/1999/xlink" x="0px" y="0px"
	 width="20px" height="20px" viewBox="0 0 20 20" enable-background="new 0 0 20 20" xml:space="preserve">
<path fill="#010101" d="M12.208,13.708c-0.492-0.077-0.504-1.419-0.504-1.419s1.447-1.419,1.762-3.328
	c0.848,0,1.371-2.029,0.524-2.743c0.035-0.74,1.044-5.729-4.017-5.885L9.971,0.317c-0.041,0-0.074,0.007-0.115,0.007
	C9.816,0.324,9.783,0.317,9.742,0.317l0,0.014C4.679,0.486,5.688,5.477,5.723,6.217C4.876,6.931,5.399,8.96,6.247,8.96
	c0.315,1.909,1.762,3.328,1.762,3.328s-0.012,1.342-0.504,1.419c-5.401,1.599-6.598,1.243-7.404,5.156
	c-0.034,0.166,0.134,0.522,0.493,0.522h9.495h1.807h7.073c0.359,0,0.678-0.356,0.644-0.522
	C18.807,14.95,17.609,15.307,12.208,13.708z"/>
</svg>
