<?xml version="1.0" encoding="utf-8"?>
<!-- Generator: Adobe Illustrator 18.1.1, SVG Export Plug-In . SVG Version: 6.00 Build 0)  -->
<!DOCTYPE svg PUBLIC "-//W3C//DTD SVG 1.1//EN" "http://www.w3.org/Graphics/SVG/1.1/DTD/svg11.dtd">
<svg version="1.1" id="Layer_1" xmlns="http://www.w3.org/2000/svg" xmlns:xlink="http://www.w3.org/1999/xlink" x="0px" y="0px"
	 viewBox="-294.9 387.2 19.9 19.9" enable-background="new -294.9 387.2 19.9 19.9" xml:space="preserve">
<path fill="#010101" d="M-284.9,400.3c-0.4-0.1-0.4-1.2-0.4-1.2s1.2-1.2,1.5-2.7c0.7,0,1.1-1.7,0.4-2.3c0-0.6,0.9-4.7-3.3-4.9l0,0
	c0,0-0.1,0-0.1,0c0,0-0.1,0-0.1,0v0c-4.2,0.1-3.3,4.2-3.3,4.9c-0.7,0.6-0.3,2.3,0.4,2.3c0.3,1.6,1.5,2.7,1.5,2.7s0,1.1-0.4,1.2
	c-4.5,1.3-5.4,1-6.1,4.3c0,0.1,0.1,0.4,0.4,0.4h7.8h1.5h5.8c0.3,0,0.6-0.3,0.5-0.4C-279.5,401.3-280.5,401.6-284.9,400.3z"/>
<g>
	<path fill="#010101" d="M-277.7,400.5c-0.1,0.1-0.2,0.1-0.3,0.1h-0.9c-0.1,0-0.2,0-0.3-0.1c-0.1-0.1-0.1-0.2-0.1-0.3v-2h-2
		c-0.1,0-0.2,0-0.3-0.1c-0.1-0.1-0.1-0.2-0.1-0.3v-0.9c0-0.1,0-0.2,0.1-0.3c0.1-0.1,0.2-0.1,0.3-0.1h2v-2c0-0.1,0-0.2,0.1-0.3
		c0.1-0.1,0.2-0.1,0.3-0.1h0.9c0.1,0,0.2,0,0.3,0.1c0.1,0.1,0.1,0.2,0.1,0.3v2h2c0.1,0,0.2,0,0.3,0.1c0.1,0.1,0.1,0.2,0.1,0.3v0.9
		c0,0.1,0,0.2-0.1,0.3c-0.1,0.1-0.2,0.1-0.3,0.1h-2v2C-277.5,400.2-277.6,400.4-277.7,400.5z"/>
</g>
</svg>
