<?xml version="1.0" encoding="utf-8"?>
<!-- Generator: Adobe Illustrator 18.1.1, SVG Export Plug-In . SVG Version: 6.00 Build 0)  -->
<!DOCTYPE svg PUBLIC "-//W3C//DTD SVG 1.1//EN" "http://www.w3.org/Graphics/SVG/1.1/DTD/svg11.dtd">
<svg version="1.1" id="Layer_1" xmlns="http://www.w3.org/2000/svg" xmlns:xlink="http://www.w3.org/1999/xlink" x="0px" y="0px"
	 viewBox="-294.9 387.1 19.5 19.5" enable-background="new -294.9 387.1 19.5 19.5" xml:space="preserve">
<path fill="#010101" d="M-282.8,400.7c-0.5-0.1-0.5-1.4-0.5-1.4s1.4-1.4,1.8-3.3c0.8,0,1.4-2,0.5-2.7c0-0.7,1-5.7-4-5.9l0,0
	c0,0-0.1,0-0.1,0c0,0-0.1,0-0.1,0v0c-5.1,0.2-4.1,5.1-4,5.9c-0.8,0.7-0.3,2.7,0.5,2.7c0.3,1.9,1.8,3.3,1.8,3.3s0,1.3-0.5,1.4
	c-5.4,1.6-6.6,1.2-7.4,5.2c0,0.2,0.1,0.5,0.5,0.5h9.5h1.8h7.1c0.4,0,0.7-0.4,0.6-0.5C-276.2,402-277.4,402.3-282.8,400.7z"/>
</svg>
