<?xml version="1.0" encoding="utf-8"?>
<!-- Generator: Adobe Illustrator 17.0.2, SVG Export Plug-In . SVG Version: 6.00 Build 0)  -->
<!DOCTYPE svg PUBLIC "-//W3C//DTD SVG 1.1//EN" "http://www.w3.org/Graphics/SVG/1.1/DTD/svg11.dtd">
<svg version="1.1" id="Layer_1" xmlns="http://www.w3.org/2000/svg" xmlns:xlink="http://www.w3.org/1999/xlink" x="0px" y="0px"
	 width="60px" height="52.5px" viewBox="0 3.75 60 52.5" enable-background="new 0 3.75 60 52.5" xml:space="preserve">
<g>
	<path d="M15,3.75h30v7.5H15V3.75z M56.25,15H3.75C1.688,15,0,16.688,0,18.75V37.5c0,2.063,1.687,3.75,3.75,3.75H15v15h30v-15h11.25
		c2.063,0,3.75-1.688,3.75-3.75V18.75C60,16.688,58.312,15,56.25,15z M41.25,52.5h-22.5V33.75h22.5V52.5z M57.094,20.625
		c0,1.501-1.217,2.719-2.719,2.719c-1.501,0-2.719-1.217-2.719-2.719s1.217-2.719,2.719-2.719
		C55.877,17.906,57.094,19.124,57.094,20.625z"/>
</g>
</svg>
