<?xml version="1.0" encoding="utf-8"?>
<!-- Generator: Adobe Illustrator 18.0.0, SVG Export Plug-In . SVG Version: 6.00 Build 0)  -->
<!DOCTYPE svg PUBLIC "-//W3C//DTD SVG 1.1//EN" "http://www.w3.org/Graphics/SVG/1.1/DTD/svg11.dtd">
<svg version="1.1" id="Layer_1" xmlns="http://www.w3.org/2000/svg" xmlns:xlink="http://www.w3.org/1999/xlink" x="0px" y="0px"
	 viewBox="0 0 612 792" enable-background="new 0 0 612 792" xml:space="preserve">
<g>
	<path d="M305.9,711.1C141.1,711.1,7.4,577.4,7.4,412.6s133.7-298.5,298.5-298.5s298.5,133.7,298.5,298.5S470.7,711.1,305.9,711.1z
		 M313.7,213.6c-63.4,0-110.8,27.2-144.2,82.8c-3.5,5.4-1.9,12.4,3.1,16.3l51.3,38.9c1.9,1.6,4.7,2.3,7.4,2.3c3.5,0,7.4-1.6,9.7-4.7
		c18.3-23.3,26-30.3,33.4-35.8c6.6-4.7,19.4-9.3,33.4-9.3c24.9,0,47.8,15.9,47.8,33c0,20.2-10.5,30.3-34.2,41.2
		c-27.6,12.4-65.3,44.7-65.3,82.4v14c0,7,5.4,12.4,12.4,12.4h74.6c7,0,12.4-5.4,12.4-12.4c0-8.9,11.3-28,29.5-38.5
		c29.5-16.7,70-39.3,70-98.3C455.1,266.9,380.5,213.6,313.7,213.6z M355.6,524.6c0-7-5.4-12.4-12.4-12.4h-74.6
		c-7,0-12.4,5.4-12.4,12.4v74.6c0,7,5.4,12.4,12.4,12.4h74.6c7,0,12.4-5.4,12.4-12.4V524.6z"/>
</g>
</svg>
