<?xml version="1.0" encoding="utf-8"?>
<!-- Generator: Adobe Illustrator 17.0.2, SVG Export Plug-In . SVG Version: 6.00 Build 0)  -->
<!DOCTYPE svg PUBLIC "-//W3C//DTD SVG 1.1//EN" "http://www.w3.org/Graphics/SVG/1.1/DTD/svg11.dtd">
<svg version="1.1" id="Layer_1" xmlns="http://www.w3.org/2000/svg" xmlns:xlink="http://www.w3.org/1999/xlink" x="0px" y="0px"
	 width="17.528px" height="20.043px" viewBox="22.281 15.095 17.528 20.043" enable-background="new 22.281 15.095 17.528 20.043"
	 xml:space="preserve">
<g>
	<path d="M34.81,17.601h-2.506v-1.253c0-0.689-0.564-1.253-1.253-1.253h-2.506c-0.689,0-1.253,0.564-1.253,1.253v1.253h-2.506v2.506
		H34.81V17.601z M31.052,17.601h-2.506v-1.25c0.001-0.001,0.001-0.002,0.002-0.002h2.501c0.001,0.001,0.002,0.001,0.002,0.002
		L31.052,17.601L31.052,17.601z"/>
	<path d="M39.809,30.181c0-1.84-1.005-3.443-2.494-4.299v-7.655c0-0.344-0.282-0.626-0.626-0.626h-1.253v1.253h0.626v6.524
		c-0.389-0.098-0.794-0.156-1.213-0.156c-2.739,0-4.959,2.22-4.959,4.959c0,1.476,0.649,2.798,1.672,3.706h-8.028V18.853h0.626V17.6
		h-1.253c-0.344,0-0.626,0.282-0.626,0.626v16.286c0,0.344,0.282,0.626,0.626,0.626h12.557l0.039-0.048
		C37.933,34.771,39.809,32.697,39.809,30.181z M31.726,29.755c0-0.235,0.191-0.426,0.426-0.426h1.846v-1.846
		c0-0.235,0.191-0.426,0.426-0.426h0.852c0.235,0,0.426,0.191,0.426,0.426v1.846h1.846c0.235,0,0.426,0.191,0.426,0.426v0.852
		c0,0.235-0.191,0.426-0.426,0.426h-1.846v1.846c0,0.235-0.191,0.426-0.426,0.426h-0.852c-0.235,0-0.426-0.191-0.426-0.426v-1.846
		h-1.846c-0.235,0-0.426-0.191-0.426-0.426V29.755z"/>
</g>
</svg>
