<?xml version="1.0" encoding="utf-8"?>
<!-- Generator: Adobe Illustrator 17.0.2, SVG Export Plug-In . SVG Version: 6.00 Build 0)  -->
<!DOCTYPE svg PUBLIC "-//W3C//DTD SVG 1.1//EN" "http://www.w3.org/Graphics/SVG/1.1/DTD/svg11.dtd">
<svg version="1.1" id="Layer_1" xmlns="http://www.w3.org/2000/svg" xmlns:xlink="http://www.w3.org/1999/xlink" x="0px" y="0px"
	 width="20.5px" height="20.5px" viewBox="0 0 20.5 20.5" enable-background="new 0 0 20.5 20.5" xml:space="preserve">
<path d="M19.864,17.444l-4.856-4.13c-0.502-0.452-1.039-0.659-1.472-0.639c1.146-1.343,1.839-3.084,1.839-4.988
	C15.374,3.442,11.933,0,7.687,0C3.442,0,0,3.442,0,7.687s3.442,7.687,7.687,7.687c1.904,0,3.646-0.692,4.988-1.839
	c-0.02,0.434,0.187,0.97,0.639,1.472l4.13,4.856c0.707,0.786,1.862,0.852,2.567,0.147C20.716,19.307,20.65,18.151,19.864,17.444z
	 M7.687,12.812c-2.83,0-5.125-2.294-5.125-5.125s2.294-5.125,5.125-5.125s5.125,2.294,5.125,5.125S10.518,12.812,7.687,12.812z"/>
</svg>
