<?xml version="1.0" encoding="utf-8"?>
<!-- Generator: Adobe Illustrator 18.1.1, SVG Export Plug-In . SVG Version: 6.00 Build 0)  -->
<!DOCTYPE svg PUBLIC "-//W3C//DTD SVG 1.1//EN" "http://www.w3.org/Graphics/SVG/1.1/DTD/svg11.dtd">
<svg version="1.1" id="Layer_1" xmlns="http://www.w3.org/2000/svg" xmlns:xlink="http://www.w3.org/1999/xlink" x="0px" y="0px"
	 viewBox="-295.1 386.6 20 20" enable-background="new -295.1 386.6 20 20" xml:space="preserve">
<g>
	<path fill="#505A63" d="M-281.8,396.9v1.9c0,0.1,0,0.1-0.1,0.2c0,0.1-0.1,0.1-0.2,0.1l-1.6,0.2c-0.1,0.2-0.2,0.5-0.3,0.8
		c0.2,0.3,0.5,0.7,0.9,1.2c0,0.1,0.1,0.1,0.1,0.2c0,0.1,0,0.1-0.1,0.2c-0.2,0.2-0.4,0.5-0.9,0.9c-0.4,0.4-0.7,0.6-0.8,0.6
		c-0.1,0-0.1,0-0.2-0.1l-1.2-0.9c-0.3,0.1-0.5,0.2-0.8,0.3c-0.1,0.8-0.2,1.3-0.2,1.6c0,0.2-0.2,0.2-0.3,0.2h-1.9
		c-0.1,0-0.1,0-0.2-0.1c-0.1-0.1-0.1-0.1-0.1-0.2l-0.2-1.6c-0.2-0.1-0.5-0.2-0.8-0.3l-1.2,0.9c0,0-0.1,0.1-0.2,0.1
		c-0.1,0-0.2,0-0.2-0.1c-1-0.9-1.5-1.5-1.5-1.7c0-0.1,0-0.1,0.1-0.2c0.1-0.1,0.2-0.3,0.4-0.6c0.2-0.3,0.4-0.5,0.5-0.6
		c-0.2-0.3-0.3-0.6-0.4-0.9l-1.6-0.2c-0.1,0-0.1,0-0.2-0.1c0-0.1-0.1-0.1-0.1-0.2v-1.9c0-0.1,0-0.1,0.1-0.2c0-0.1,0.1-0.1,0.2-0.1
		l1.6-0.2c0.1-0.2,0.2-0.5,0.3-0.8c-0.2-0.3-0.5-0.7-0.9-1.2c0-0.1-0.1-0.1-0.1-0.2c0-0.1,0-0.2,0.1-0.2c0.2-0.2,0.4-0.5,0.9-0.9
		c0.4-0.4,0.7-0.6,0.8-0.6c0.1,0,0.1,0,0.2,0.1l1.2,0.9c0.2-0.1,0.5-0.2,0.8-0.3c0.1-0.8,0.2-1.3,0.2-1.6c0-0.2,0.2-0.2,0.3-0.2h1.9
		c0.1,0,0.1,0,0.2,0.1c0.1,0.1,0.1,0.1,0.1,0.2l0.2,1.6c0.2,0.1,0.5,0.2,0.8,0.3l1.2-0.9c0.1,0,0.1-0.1,0.2-0.1c0.1,0,0.1,0,0.2,0.1
		c1,0.9,1.5,1.5,1.5,1.7c0,0.1,0,0.1-0.1,0.2c-0.1,0.1-0.2,0.3-0.4,0.6c-0.2,0.3-0.4,0.5-0.5,0.6c0.2,0.3,0.3,0.6,0.4,0.9l1.6,0.2
		c0.1,0,0.1,0.1,0.2,0.1C-281.8,396.8-281.8,396.9-281.8,396.9z M-286.5,399.8c0.5-0.5,0.8-1.1,0.8-1.9c0-0.7-0.3-1.4-0.8-1.9
		c-0.5-0.5-1.1-0.8-1.9-0.8c-0.7,0-1.4,0.3-1.9,0.8c-0.5,0.5-0.8,1.1-0.8,1.9c0,0.7,0.3,1.4,0.8,1.9c0.5,0.5,1.1,0.8,1.9,0.8
		C-287.7,400.6-287.1,400.3-286.5,399.8z M-275.1,391.8v1.5c0,0.1-0.5,0.2-1.6,0.3c-0.1,0.2-0.2,0.4-0.3,0.5
		c0.4,0.8,0.5,1.3,0.5,1.4c0,0,0,0.1,0,0.1c-0.8,0.5-1.3,0.7-1.3,0.7c-0.1,0-0.2-0.2-0.5-0.5c-0.3-0.3-0.4-0.6-0.5-0.7
		c-0.1,0-0.2,0-0.3,0c-0.1,0-0.2,0-0.3,0c-0.1,0.1-0.3,0.4-0.5,0.7c-0.3,0.3-0.4,0.5-0.5,0.5c0,0-0.4-0.2-1.3-0.7c0,0,0,0,0-0.1
		c0-0.2,0.2-0.7,0.5-1.4c-0.1-0.2-0.2-0.4-0.3-0.5c-1-0.1-1.6-0.2-1.6-0.3v-1.5c0-0.1,0.5-0.2,1.6-0.3c0.1-0.2,0.2-0.4,0.3-0.5
		c-0.4-0.8-0.5-1.3-0.5-1.4c0,0,0-0.1,0-0.1c0,0,0.1-0.1,0.4-0.2c0.2-0.1,0.4-0.2,0.6-0.4c0.2-0.1,0.3-0.2,0.3-0.2
		c0.1,0,0.2,0.2,0.5,0.5c0.3,0.3,0.4,0.6,0.5,0.7c0.1,0,0.2,0,0.3,0c0.1,0,0.2,0,0.3,0c0.4-0.5,0.7-0.9,1-1.2l0.1,0
		c0,0,0.5,0.2,1.3,0.7c0,0,0,0,0,0.1c0,0.2-0.2,0.7-0.5,1.4c0.1,0.2,0.2,0.3,0.3,0.5C-275.6,391.6-275.1,391.7-275.1,391.8z
		 M-277.8,392.5c0-0.4-0.1-0.7-0.4-0.9c-0.3-0.3-0.6-0.4-0.9-0.4s-0.7,0.1-0.9,0.4c-0.3,0.3-0.4,0.6-0.4,0.9c0,0.4,0.1,0.7,0.4,0.9
		c0.3,0.3,0.6,0.4,0.9,0.4c0.4,0,0.7-0.1,0.9-0.4C-277.9,393.2-277.8,392.9-277.8,392.5z"/>
</g>
</svg>
