<?xml version="1.0" encoding="utf-8"?>
<!-- Generator: Adobe Illustrator 17.0.2, SVG Export Plug-In . SVG Version: 6.00 Build 0)  -->
<!DOCTYPE svg PUBLIC "-//W3C//DTD SVG 1.1//EN" "http://www.w3.org/Graphics/SVG/1.1/DTD/svg11.dtd">
<svg version="1.1" id="Layer_1" xmlns="http://www.w3.org/2000/svg" xmlns:xlink="http://www.w3.org/1999/xlink" x="0px" y="0px"
	 width="20px" height="20px" viewBox="0 0 20 20" enable-background="new 0 0 20 20" xml:space="preserve">
<g>
	<path fill="#505A63" d="M13.239,9.935v1.928c0,0.07-0.025,0.137-0.073,0.203c-0.049,0.066-0.104,0.103-0.167,0.109l-1.615,0.25
		c-0.077,0.244-0.188,0.507-0.333,0.792c0.236,0.333,0.548,0.733,0.938,1.198c0.048,0.07,0.073,0.139,0.073,0.208
		c0,0.083-0.025,0.15-0.073,0.198c-0.16,0.208-0.447,0.52-0.86,0.933c-0.414,0.414-0.686,0.62-0.818,0.62
		c-0.077,0-0.15-0.024-0.219-0.073l-1.198-0.938c-0.257,0.132-0.525,0.24-0.802,0.323c-0.077,0.75-0.156,1.289-0.24,1.615
		c-0.049,0.167-0.153,0.25-0.313,0.25H5.601c-0.077,0-0.146-0.026-0.208-0.078c-0.063-0.052-0.098-0.113-0.104-0.182l-0.24-1.594
		c-0.236-0.069-0.497-0.177-0.782-0.323l-1.23,0.927c-0.049,0.049-0.119,0.073-0.208,0.073c-0.077,0-0.15-0.027-0.219-0.083
		c-1-0.923-1.501-1.48-1.501-1.667c0-0.063,0.024-0.128,0.073-0.198c0.069-0.097,0.212-0.281,0.427-0.552
		c0.215-0.271,0.378-0.483,0.49-0.636c-0.16-0.305-0.281-0.59-0.365-0.854l-1.584-0.25c-0.07-0.007-0.129-0.04-0.177-0.099
		c-0.049-0.059-0.073-0.126-0.073-0.203V9.904c0-0.069,0.024-0.137,0.073-0.203C0.022,9.635,0.078,9.599,0.14,9.592l1.615-0.25
		C1.832,9.099,1.943,8.835,2.089,8.55C1.853,8.216,1.54,7.817,1.151,7.351C1.102,7.275,1.078,7.205,1.078,7.143
		c0-0.083,0.024-0.152,0.073-0.208c0.152-0.208,0.438-0.517,0.854-0.927c0.417-0.41,0.691-0.615,0.823-0.615
		c0.076,0,0.149,0.025,0.219,0.073l1.198,0.938C4.482,6.278,4.749,6.167,5.048,6.07c0.076-0.75,0.156-1.285,0.24-1.605
		c0.048-0.167,0.152-0.25,0.313-0.25h1.938c0.076,0,0.146,0.026,0.208,0.078C7.81,4.345,7.844,4.406,7.851,4.475l0.24,1.594
		c0.236,0.07,0.496,0.177,0.782,0.323l1.23-0.927c0.055-0.048,0.125-0.073,0.208-0.073c0.076,0,0.149,0.028,0.219,0.083
		c1,0.924,1.501,1.48,1.501,1.667c0,0.063-0.025,0.129-0.073,0.198c-0.083,0.111-0.229,0.299-0.438,0.563
		c-0.208,0.264-0.365,0.473-0.469,0.625c0.16,0.333,0.277,0.619,0.354,0.854l1.584,0.24c0.069,0.014,0.128,0.051,0.177,0.109
		C13.214,9.791,13.239,9.859,13.239,9.935z M8.456,12.77c0.521-0.521,0.782-1.149,0.782-1.886c0-0.736-0.261-1.365-0.782-1.886
		C7.935,8.477,7.306,8.216,6.57,8.216c-0.737,0-1.365,0.261-1.886,0.782c-0.521,0.521-0.782,1.15-0.782,1.886
		c0,0.737,0.261,1.365,0.782,1.886c0.521,0.521,1.149,0.782,1.886,0.782C7.306,13.551,7.935,13.291,8.456,12.77z M19.907,4.819
		v1.459c0,0.111-0.518,0.219-1.553,0.323c-0.083,0.188-0.188,0.369-0.313,0.542c0.354,0.785,0.531,1.265,0.531,1.438
		c0,0.028-0.014,0.052-0.042,0.073c-0.848,0.494-1.278,0.74-1.292,0.74c-0.056,0-0.216-0.163-0.479-0.49
		c-0.264-0.326-0.445-0.563-0.542-0.709c-0.139,0.014-0.244,0.021-0.313,0.021c-0.07,0-0.174-0.007-0.313-0.021
		c-0.098,0.146-0.278,0.382-0.542,0.709c-0.264,0.327-0.424,0.49-0.479,0.49c-0.014,0-0.445-0.246-1.292-0.74
		c-0.028-0.021-0.042-0.045-0.042-0.073c0-0.173,0.177-0.653,0.531-1.438c-0.125-0.173-0.229-0.354-0.313-0.542
		c-1.036-0.104-1.553-0.212-1.553-0.323V4.819c0-0.111,0.517-0.219,1.553-0.323c0.09-0.201,0.194-0.382,0.313-0.542
		c-0.354-0.785-0.531-1.264-0.531-1.438c0-0.027,0.014-0.052,0.042-0.073c0.027-0.014,0.149-0.083,0.365-0.208
		c0.215-0.125,0.42-0.243,0.615-0.354c0.194-0.111,0.298-0.167,0.313-0.167c0.055,0,0.215,0.162,0.479,0.485
		c0.264,0.323,0.444,0.557,0.542,0.703c0.139-0.014,0.243-0.021,0.313-0.021c0.069,0,0.173,0.007,0.313,0.021
		c0.354-0.493,0.673-0.882,0.959-1.167l0.063-0.021c0.027,0,0.458,0.244,1.292,0.729c0.027,0.021,0.042,0.046,0.042,0.073
		c0,0.174-0.177,0.653-0.531,1.438c0.118,0.16,0.222,0.341,0.313,0.542C19.39,4.6,19.907,4.708,19.907,4.819z M17.24,5.549
		c0-0.361-0.132-0.673-0.396-0.938c-0.264-0.264-0.577-0.396-0.938-0.396c-0.361,0-0.674,0.132-0.938,0.396
		c-0.264,0.264-0.396,0.577-0.396,0.938c0,0.369,0.13,0.683,0.391,0.943c0.261,0.261,0.574,0.391,0.943,0.391
		c0.368,0,0.683-0.13,0.943-0.391C17.11,6.231,17.24,5.917,17.24,5.549z"/>
</g>
</svg>
