<?xml version="1.0" encoding="utf-8"?>
<!-- Generator: Adobe Illustrator 18.1.1, SVG Export Plug-In . SVG Version: 6.00 Build 0)  -->
<!DOCTYPE svg PUBLIC "-//W3C//DTD SVG 1.1//EN" "http://www.w3.org/Graphics/SVG/1.1/DTD/svg11.dtd">
<svg version="1.1" id="Layer_1" xmlns="http://www.w3.org/2000/svg" xmlns:xlink="http://www.w3.org/1999/xlink" x="0px" y="0px"
	 viewBox="-302.5 387.3 19.7 19.7" enable-background="new -302.5 387.3 19.7 19.7" xml:space="preserve">
<path fill="#010101" d="M-286.3,387.3c0,0-4.6,0-6.1,0c-2.7,0-5.3,2.1-5.3,4.5c0,2.5,1.9,4.4,4.6,4.4c0.2,0,0.4,0,0.6,0
	c-0.2,0.3-0.3,0.7-0.3,1.1c0,0.7,0.4,1.2,0.8,1.7c-0.4,0-0.7,0-1.1,0c-3.4,0-6,2.2-6,4.4c0,2.2,2.9,3.6,6.2,3.6c3.9,0,6-2.2,6-4.4
	c0-1.8-0.5-2.8-2.1-4c-0.6-0.4-1.6-1.3-1.6-1.9c0-0.7,0.2-1,1.2-1.7c1-0.8,1.7-1.9,1.7-3.2c0-1.5-0.7-3-2-3.5h1.9L-286.3,387.3z
	 M-288.4,402.2c0,0.2,0.1,0.4,0.1,0.6c0,1.8-1.1,3.2-4.4,3.2c-2.3,0-4-1.5-4-3.3c0-1.7,2.1-3.2,4.4-3.2c0.5,0,1.1,0.1,1.5,0.2
	C-289.6,400.7-288.7,401.2-288.4,402.2z M-292.2,395.6c-1.6,0-3.1-1.8-3.3-3.8c-0.3-2.1,0.8-3.6,2.4-3.6c1.6,0,3.1,1.7,3.3,3.8
	C-289.5,394-290.6,395.6-292.2,395.6z"/>
</svg>
