<?xml version="1.0" encoding="utf-8"?>
<!-- Generator: Adobe Illustrator 17.0.2, SVG Export Plug-In . SVG Version: 6.00 Build 0)  -->
<!DOCTYPE svg PUBLIC "-//W3C//DTD SVG 1.1//EN" "http://www.w3.org/Graphics/SVG/1.1/DTD/svg11.dtd">
<svg version="1.1" id="Layer_1" xmlns="http://www.w3.org/2000/svg" xmlns:xlink="http://www.w3.org/1999/xlink" x="0px" y="0px"
	 width="19.363px" height="19.363px" viewBox="1 0 19.363 19.363" enable-background="new 1 0 19.363 19.363" xml:space="preserve">
<g>
	<path d="M17.111,0H4.252C2.463,0,1,1.464,1,3.252v12.858c0,1.789,1.464,3.252,3.252,3.252h12.858c1.789,0,3.252-1.464,3.252-3.252
		V3.252C20.363,1.464,18.9,0,17.111,0z M8.261,15.733h-2.42V7.261h2.42V15.733z M7.051,6.051c-0.668,0-1.21-0.542-1.21-1.21
		s0.542-1.21,1.21-1.21s1.21,0.542,1.21,1.21S7.719,6.051,7.051,6.051z M16.732,15.733h-2.42v-4.841c0-0.668-0.542-1.21-1.21-1.21
		s-1.21,0.542-1.21,1.21v4.841h-2.42V7.261h2.42v1.503c0.499-0.686,1.262-1.503,2.118-1.503c1.504,0,2.723,1.354,2.723,3.025
		L16.732,15.733z"/>
</g>
</svg>
