<?xml version="1.0" encoding="utf-8"?>
<!-- Generator: Adobe Illustrator 17.0.2, SVG Export Plug-In . SVG Version: 6.00 Build 0)  -->
<!DOCTYPE svg PUBLIC "-//W3C//DTD SVG 1.1//EN" "http://www.w3.org/Graphics/SVG/1.1/DTD/svg11.dtd">
<svg version="1.1" id="Layer_1" xmlns="http://www.w3.org/2000/svg" xmlns:xlink="http://www.w3.org/1999/xlink" x="0px" y="0px"
	 width="20.311px" height="17px" viewBox="15.022 16.167 20.311 17" enable-background="new 15.022 16.167 20.311 17"
	 xml:space="preserve">
<path fill="#010101" d="M34.976,18.583c-0.734,0.326-1.523,0.546-2.351,0.645c0.845-0.507,1.494-1.309,1.8-2.265
	c-0.791,0.469-1.667,0.81-2.6,0.993c-0.747-0.796-1.811-1.293-2.988-1.293c-2.261,0-4.094,1.833-4.094,4.094
	c0,0.321,0.036,0.633,0.106,0.933c-3.402-0.171-6.419-1.8-8.438-4.277c-0.352,0.605-0.554,1.308-0.554,2.058
	c0,1.42,0.723,2.673,1.821,3.407c-0.671-0.021-1.302-0.205-1.854-0.512c0,0.017,0,0.034,0,0.051c0,1.983,1.411,3.638,3.284,4.014
	c-0.343,0.094-0.705,0.144-1.079,0.144c-0.264,0-0.52-0.026-0.77-0.073c0.521,1.626,2.033,2.81,3.824,2.843
	c-1.401,1.098-3.166,1.752-5.084,1.752c-0.33,0-0.656-0.019-0.977-0.057c1.812,1.162,3.963,1.839,6.275,1.839
	c7.53,0,11.647-6.238,11.647-11.648c0-0.177-0.004-0.354-0.012-0.53C33.733,20.125,34.427,19.404,34.976,18.583z"/>
</svg>
