<?xml version="1.0" encoding="utf-8"?>
<!-- Generator: Adobe Illustrator 18.1.1, SVG Export Plug-In . SVG Version: 6.00 Build 0)  -->
<!DOCTYPE svg PUBLIC "-//W3C//DTD SVG 1.1//EN" "http://www.w3.org/Graphics/SVG/1.1/DTD/svg11.dtd">
<svg version="1.1" id="Layer_1" xmlns="http://www.w3.org/2000/svg" xmlns:xlink="http://www.w3.org/1999/xlink" x="0px" y="0px"
	 viewBox="-293 385.6 23.3 23.3" enable-background="new -293 385.6 23.3 23.3" xml:space="preserve">
<path d="M-280.3,387.4c0,0-4.6,0-6.1,0c-2.7,0-5.3,2.1-5.3,4.5c0,2.5,1.9,4.4,4.6,4.4c0.2,0,0.4,0,0.6,0c-0.2,0.3-0.3,0.7-0.3,1.1
	c0,0.7,0.4,1.2,0.8,1.7c-0.4,0-0.7,0-1.1,0c-3.4,0-6,2.2-6,4.4c0,2.2,2.9,3.6,6.2,3.6c3.9,0,6-2.2,6-4.4c0-1.8-0.5-2.8-2.1-4
	c-0.6-0.4-1.6-1.3-1.6-1.9c0-0.7,0.2-1,1.2-1.7c1-0.8,1.7-1.9,1.7-3.2c0-1.5-0.7-3-2-3.5h1.9L-280.3,387.4z M-282.4,402.3
	c0,0.2,0.1,0.4,0.1,0.6c0,1.8-1.1,3.2-4.4,3.2c-2.3,0-4-1.5-4-3.3c0-1.7,2.1-3.2,4.4-3.2c0.5,0,1.1,0.1,1.5,0.2
	C-283.6,400.8-282.7,401.3-282.4,402.3z M-286.2,395.6c-1.6,0-3.1-1.8-3.3-3.8c-0.3-2.1,0.8-3.6,2.4-3.6c1.6,0,3.1,1.7,3.3,3.8
	C-283.5,394.1-284.6,395.7-286.2,395.6z M-274.1,391.7v-4.4h-1.5v4.4h-4.4v1.5h4.4v4.4h1.5v-4.4h4.4v-1.5H-274.1z"/>
</svg>
