<?xml version="1.0" encoding="utf-8"?>
<!-- Generator: Adobe Illustrator 17.0.2, SVG Export Plug-In . SVG Version: 6.00 Build 0)  -->
<!DOCTYPE svg PUBLIC "-//W3C//DTD SVG 1.1//EN" "http://www.w3.org/Graphics/SVG/1.1/DTD/svg11.dtd">
<svg version="1.1" id="Layer_1" xmlns="http://www.w3.org/2000/svg" xmlns:xlink="http://www.w3.org/1999/xlink" x="0px" y="0px"
	 width="12.729px" height="19.698px" viewBox="0 0 12.729 19.698" enable-background="new 0 0 12.729 19.698" xml:space="preserve">
<path fill="#010101" d="M12.729,0c0,0-4.575,0-6.1,0C3.893,0,1.32,2.072,1.32,4.472c0,2.453,1.864,4.432,4.647,4.432
	c0.193,0,0.381-0.004,0.566-0.017c-0.181,0.346-0.31,0.735-0.31,1.139c0,0.682,0.367,1.234,0.83,1.685
	c-0.35,0-0.689,0.01-1.058,0.01C2.607,11.722,0,13.879,0,16.116c0,2.203,2.858,3.582,6.246,3.582c3.862,0,5.995-2.191,5.995-4.395
	c0-1.767-0.521-2.825-2.133-3.965c-0.551-0.39-1.606-1.34-1.606-1.898c0-0.654,0.187-0.976,1.171-1.745
	c1.009-0.788,1.723-1.897,1.723-3.186c0-1.535-0.683-3.03-1.966-3.524h1.934L12.729,0z M10.598,14.923
	c0.048,0.204,0.075,0.415,0.075,0.629c0,1.78-1.147,3.172-4.439,3.172c-2.341,0-4.032-1.482-4.032-3.263
	c0-1.745,2.097-3.198,4.439-3.172c0.546,0.006,1.056,0.094,1.518,0.243C9.429,13.416,10.341,13.916,10.598,14.923z M6.849,8.282
	C5.277,8.235,3.784,6.524,3.512,4.461C3.241,2.396,4.295,0.817,5.866,0.863c1.571,0.047,3.065,1.703,3.337,3.767
	C9.474,6.695,8.42,8.329,6.849,8.282z"/>
</svg>
