<?xml version="1.0" encoding="utf-8"?>
<!-- Generated by IcoMoon.io -->
<!DOCTYPE svg PUBLIC "-//W3C//DTD SVG 1.1//EN" "http://www.w3.org/Graphics/SVG/1.1/DTD/svg11.dtd">
<svg version="1.1" xmlns="http://www.w3.org/2000/svg" xmlns:xlink="http://www.w3.org/1999/xlink" width="1024" height="1024" viewBox="0 0 1024 1024"><g id="icomoon-ignore">
</g>
<path d="M927.812 0h-288.562c-52.906 0-126.796 30.606-164.204 68.014l-446.99 446.99c-37.408 37.408-37.408 98.624 0 136.032l344.91 344.906c37.408 37.41 98.622 37.41 136.030 0l446.99-446.988c37.408-37.41 68.014-111.302 68.014-164.204v-288.562c0-52.904-43.286-96.188-96.188-96.188zM800 320c-53.020 0-96-42.98-96-96s42.98-96 96-96 96 42.98 96 96-42.98 96-96 96z"></path>
</svg>
