<?xml version="1.0" encoding="utf-8"?>
<!-- Generator: Adobe Illustrator 18.1.1, SVG Export Plug-In . SVG Version: 6.00 Build 0)  -->
<!DOCTYPE svg PUBLIC "-//W3C//DTD SVG 1.1//EN" "http://www.w3.org/Graphics/SVG/1.1/DTD/svg11.dtd">
<svg version="1.1" id="Layer_1" xmlns="http://www.w3.org/2000/svg" xmlns:xlink="http://www.w3.org/1999/xlink" x="0px" y="0px"
	 viewBox="12.7 93.4 589.6 589.6" enable-background="new 12.7 93.4 589.6 589.6" xml:space="preserve">
<g enable-background="new    ">
	<path d="M483.1,431.3c0,11-3.8,20.3-11.5,27.9L319.2,612c-8.1,7.7-17.5,11.5-28.3,11.5c-11,0-20.3-3.8-27.9-11.5L41,389.6
		c-7.9-7.7-14.5-18.1-20-31.4c-5.5-13.2-8.2-25.4-8.2-36.3V192.8c0-10.8,3.9-20.1,11.8-27.9C32.4,157,41.7,153,52.5,153h129.2
		c11,0,23.1,2.7,36.3,8.2c13.2,5.5,23.8,12.2,31.7,20l222,221.7C479.3,411.1,483.1,420.5,483.1,431.3z M140.2,280.5
		c7.8-7.8,11.6-17.1,11.6-28.1c0-11-3.9-20.3-11.6-28.1c-7.8-7.8-17.1-11.6-28.1-11.6c-11,0-20.3,3.9-28.1,11.6
		c-7.8,7.8-11.6,17.1-11.6,28.1c0,11,3.9,20.3,11.6,28.1c7.8,7.8,17.1,11.6,28.1,11.6C123.1,292.2,132.4,288.3,140.2,280.5z
		 M602.4,431.3c0,11-3.8,20.3-11.5,27.9L438.4,612c-8.1,7.7-17.5,11.5-28.3,11.5c-7.5,0-13.6-1.5-18.3-4.3
		c-4.8-2.9-10.2-7.6-16.5-14l145.9-145.9c7.7-7.7,11.5-17,11.5-27.9c0-10.8-3.8-20.2-11.5-28.3l-222-221.7
		c-7.9-7.9-18.4-14.5-31.7-20c-13.2-5.5-25.4-8.2-36.3-8.2h69.6c11,0,23.1,2.7,36.3,8.2c13.2,5.5,23.8,12.2,31.7,20l222,221.7
		C598.5,411.1,602.4,420.5,602.4,431.3z"/>
</g>
</svg>
