<?xml version="1.0" encoding="utf-8"?> <!-- Generator: IcoMoon.io --> <!DOCTYPE svg PUBLIC "-//W3C//DTD SVG 1.1//EN" "http://www.w3.org/Graphics/SVG/1.1/DTD/svg11.dtd"> <svg width="60" height="60" viewBox="0 0 60 60" xmlns="http://www.w3.org/2000/svg" xmlns:xlink="http://www.w3.org/1999/xlink" fill="#000000"><g><path d="M 0.899,52.479l0-10.73 q0-1.319 0.929-2.248t 2.308-0.929l 3.177,0 l0-6.414 q0-1.678 1.319-2.997t 2.997-1.319l 17.084,0 l0-6.414 l-3.177,0 q-1.379,0 -2.308-0.929t-0.929-2.248l0-10.73 q0-1.379 0.959-2.308t 2.278-0.929l 10.67,0 q 1.319,0 2.278,0.929t 0.959,2.308l0,10.73 q0,1.319 -0.929,2.248t-2.308,0.929l-3.177,0 l0,6.414 l 17.084,0 q 1.678,0 2.997,1.319t 1.319,2.997l0,6.414 l 3.177,0 q 1.379,0 2.308,0.929 t 0.929,2.248l0,10.73 q0,1.379 -0.929,2.308t-2.308,0.929l-10.67,0 q-1.379,0 -2.308-0.929t-0.929-2.308l0-10.73 q0-1.319 0.929-2.248t 2.308-0.929l 3.177,0 l0-6.414 l-17.084,0 l0,6.414 l 3.177,0 q 1.379,0 2.308,0.929t 0.929,2.248l0,10.73 q0,1.379 -0.959,2.308t-2.278,0.929l-10.67,0 q-1.319,0 -2.278-0.929t-0.959-2.308l0-10.73 q0-1.319 0.929-2.248t 2.308-0.929l 3.177,0 l0-6.414 l-17.084,0 l0,6.414 l 3.177,0 q 1.379,0 2.308,0.929t 0.929,2.248l0,10.73 q0,1.379 -0.929,2.308t-2.308,0.929l-10.67,0 q-1.379,0 -2.308-0.929t-0.929-2.308z"></path></g></svg>