<?xml version="1.0" encoding="utf-8"?>
<!-- Generator: Adobe Illustrator 18.1.1, SVG Export Plug-In . SVG Version: 6.00 Build 0)  -->
<!DOCTYPE svg PUBLIC "-//W3C//DTD SVG 1.1//EN" "http://www.w3.org/Graphics/SVG/1.1/DTD/svg11.dtd">
<svg version="1.1" id="Layer_1" xmlns="http://www.w3.org/2000/svg" xmlns:xlink="http://www.w3.org/1999/xlink" x="0px" y="0px"
	 viewBox="-289 387 32 32" enable-background="new -289 387 32 32" xml:space="preserve">
<path d="M-273,393c-7,0-13,4.1-16,10c3,5.9,9,10,16,10s13-4.1,16-10C-260,397.1-266,393-273,393z M-265.1,398.3
	c1.9,1.2,3.5,2.8,4.7,4.7c-1.2,1.9-2.8,3.5-4.7,4.7c-2.4,1.5-5.1,2.3-7.9,2.3s-5.5-0.8-7.9-2.3c-1.9-1.2-3.5-2.8-4.7-4.7
	c1.2-1.9,2.8-3.5,4.7-4.7c0.1-0.1,0.2-0.2,0.4-0.2c-0.3,0.9-0.5,1.8-0.5,2.7c0,4.4,3.6,8,8,8s8-3.6,8-8c0-1-0.2-1.9-0.5-2.7
	C-265.4,398.1-265.2,398.2-265.1,398.3z M-273,399.8c0,1.7-1.3,3-3,3s-3-1.3-3-3c0-1.7,1.3-3,3-3S-273,398.2-273,399.8z"/>
</svg>
