<?xml version="1.0" encoding="utf-8"?>
<!-- Generator: Adobe Illustrator 18.1.1, SVG Export Plug-In . SVG Version: 6.00 Build 0)  -->
<!DOCTYPE svg PUBLIC "-//W3C//DTD SVG 1.1//EN" "http://www.w3.org/Graphics/SVG/1.1/DTD/svg11.dtd">
<svg version="1.1" id="Layer_1" xmlns="http://www.w3.org/2000/svg" xmlns:xlink="http://www.w3.org/1999/xlink" x="0px" y="0px"
	 viewBox="-295 387.1 20 20" enable-background="new -295 387.1 20 20" xml:space="preserve">
<g>
	<path fill="#010101" d="M-280.4,391.2C-280.4,391.2-280.4,391.3-280.4,391.2c-0.8,1.4-2,3.3-3.5,5.9c-1.6,2.6-2.7,4.5-3.5,5.8
		l-0.5,0.9c-0.1,0.1-0.2,0.2-0.3,0.2c-0.1,0-0.6-0.2-1.5-0.7c-0.1-0.1-0.2-0.2-0.2-0.3c0-0.1,0.2-0.4,0.5-0.9c-1.1-0.4-2-1-2.9-1.8
		c-0.9-0.7-1.7-1.6-2.3-2.5c-0.1-0.2-0.2-0.4-0.2-0.7c0-0.3,0.1-0.5,0.2-0.7c1.1-1.6,2.5-2.9,4.2-3.8c1.7-0.9,3.5-1.4,5.5-1.4
		c0.7,0,1.3,0.1,2,0.2l0.6-1c0.1-0.1,0.2-0.2,0.3-0.2c0,0,0.1,0,0.2,0.1c0.1,0,0.2,0.1,0.3,0.2s0.3,0.1,0.4,0.2
		c0.1,0.1,0.2,0.1,0.4,0.2c0.1,0.1,0.2,0.1,0.2,0.1C-280.5,391-280.4,391.1-280.4,391.2z M-288.8,401l0.9-1.4
		c-0.6-0.4-1.2-1-1.5-1.6c-0.4-0.7-0.5-1.4-0.5-2.1c0-0.8,0.2-1.6,0.7-2.3c-1.7,0.8-3.1,2-4.2,3.6
		C-292.3,398.9-290.8,400.1-288.8,401z M-284.6,393.5c0.1-0.1,0.2-0.2,0.2-0.3c0-0.1-0.1-0.3-0.2-0.3c-0.1-0.1-0.2-0.1-0.4-0.1
		c-0.9,0-1.7,0.3-2.4,0.9s-1,1.3-1,2.2c0,0.1,0.1,0.3,0.2,0.3c0.1,0.1,0.2,0.1,0.4,0.1s0.3,0,0.4-0.1c0.1-0.1,0.2-0.2,0.2-0.3
		c0-0.6,0.2-1.1,0.7-1.5c0.5-0.4,1-0.6,1.6-0.6C-284.9,393.6-284.7,393.6-284.6,393.5z M-275,397.1c0,0.2-0.1,0.5-0.2,0.7
		c-0.3,0.4-0.7,0.9-1.2,1.5c-1.1,1.2-2.4,2.1-3.9,2.7c-1.5,0.6-3,1-4.7,1l0.8-1.4c1.6-0.1,3-0.6,4.4-1.4s2.5-1.9,3.4-3.2
		c-0.9-1.2-1.9-2.2-3.1-3l0.7-1.1c0.7,0.4,1.4,1,2,1.6c0.6,0.6,1.2,1.2,1.6,1.9C-275.1,396.6-275,396.9-275,397.1z M-280,395.8
		c0,1-0.3,1.8-0.9,2.6c-0.6,0.8-1.4,1.3-2.3,1.7l3.1-5.2C-280.1,395.2-280,395.5-280,395.8z"/>
</g>
</svg>
