<?xml version="1.0" encoding="utf-8"?>
<!-- Generator: Adobe Illustrator 17.0.2, SVG Export Plug-In . SVG Version: 6.00 Build 0)  -->
<!DOCTYPE svg PUBLIC "-//W3C//DTD SVG 1.1//EN" "http://www.w3.org/Graphics/SVG/1.1/DTD/svg11.dtd">
<svg version="1.1" id="Layer_1" xmlns="http://www.w3.org/2000/svg" xmlns:xlink="http://www.w3.org/1999/xlink" x="0px" y="0px"
	 width="20px" height="13.803px" viewBox="0 0 20 13.803" enable-background="new 0 0 20 13.803" xml:space="preserve">
<g>
	<path fill="#010101" d="M14.555,0.996c0,0.048-0.004,0.079-0.011,0.092c-0.779,1.287-1.948,3.225-3.508,5.813
		c-1.559,2.588-2.732,4.529-3.519,5.823l-0.545,0.914c-0.074,0.11-0.178,0.164-0.312,0.164c-0.089,0-0.586-0.24-1.492-0.719
		c-0.119-0.069-0.178-0.164-0.178-0.288c0-0.082,0.163-0.38,0.49-0.894c-1.061-0.445-2.039-1.037-2.934-1.777
		C1.65,9.387,0.876,8.548,0.223,7.61C0.074,7.398,0,7.162,0,6.901c0-0.26,0.074-0.496,0.223-0.709
		c1.136-1.609,2.547-2.879,4.232-3.81C6.14,1.452,7.981,0.986,9.978,0.986c0.661,0,1.329,0.058,2.005,0.175l0.601-0.996
		C12.658,0.055,12.762,0,12.895,0c0.037,0,0.104,0.021,0.201,0.062c0.096,0.041,0.211,0.094,0.345,0.159
		c0.134,0.065,0.256,0.128,0.368,0.19c0.111,0.062,0.228,0.125,0.351,0.19c0.123,0.065,0.195,0.104,0.217,0.118
		C14.495,0.788,14.555,0.88,14.555,0.996z M6.18,10.753l0.869-1.448C6.403,8.874,5.898,8.329,5.534,7.672
		C5.171,7.014,4.989,6.32,4.989,5.587c0-0.828,0.226-1.598,0.679-2.311c-1.7,0.801-3.114,2.01-4.243,3.625
		C2.665,8.668,4.25,9.952,6.18,10.753z M10.356,3.307c0.104-0.096,0.156-0.212,0.156-0.349c0-0.137-0.052-0.253-0.156-0.349
		s-0.23-0.144-0.379-0.144c-0.928,0-1.724,0.307-2.389,0.919S6.592,4.731,6.592,5.587c0,0.137,0.052,0.254,0.156,0.349
		C6.852,6.032,6.979,6.08,7.127,6.08s0.275-0.048,0.379-0.144C7.609,5.84,7.662,5.724,7.662,5.587c0-0.589,0.227-1.092,0.679-1.51
		C8.794,3.66,9.339,3.451,9.978,3.451C10.126,3.451,10.252,3.403,10.356,3.307z M19.956,6.901c0,0.24-0.075,0.476-0.223,0.709
		c-0.29,0.438-0.694,0.935-1.214,1.489c-1.114,1.178-2.404,2.092-3.87,2.742s-3.023,0.976-4.671,0.976l0.824-1.356
		c1.574-0.123,3.031-0.592,4.371-1.407c1.34-0.815,2.459-1.866,3.358-3.153c-0.854-1.225-1.901-2.232-3.14-3.019l0.702-1.15
		c0.705,0.438,1.382,0.962,2.032,1.571c0.649,0.609,1.186,1.239,1.609,1.89C19.881,6.426,19.956,6.662,19.956,6.901z M14.967,5.587
		c0,0.952-0.293,1.82-0.88,2.604c-0.586,0.784-1.363,1.347-2.327,1.69l3.118-5.156C14.937,5.032,14.967,5.32,14.967,5.587z"/>
</g>
</svg>
