<?xml version="1.0" encoding="utf-8"?>
<!-- Generator: Adobe Illustrator 17.0.2, SVG Export Plug-In . SVG Version: 6.00 Build 0)  -->
<!DOCTYPE svg PUBLIC "-//W3C//DTD SVG 1.1//EN" "http://www.w3.org/Graphics/SVG/1.1/DTD/svg11.dtd">
<svg version="1.1" id="Layer_1" xmlns="http://www.w3.org/2000/svg" xmlns:xlink="http://www.w3.org/1999/xlink" x="0px" y="0px"
	 width="32px" height="20px" viewBox="0 6 32 20" enable-background="new 0 6 32 20" xml:space="preserve">
<path d="M16,6C9.021,6,2.972,10.064,0,16c2.972,5.936,9.021,10,16,10s13.027-4.064,16-10C29.028,10.064,22.979,6,16,6z
	 M23.889,11.303c1.88,1.199,3.473,2.805,4.67,4.697c-1.197,1.891-2.79,3.498-4.67,4.697C21.527,22.204,18.799,23,16,23
	s-5.527-0.796-7.889-2.303c-1.88-1.199-3.473-2.805-4.67-4.697c1.197-1.891,2.79-3.498,4.67-4.697
	c0.122-0.078,0.246-0.154,0.371-0.228C8.171,11.929,8,12.851,8,13.812c0,4.418,3.582,8,8,8s8-3.582,8-8
	c0-0.962-0.17-1.883-0.482-2.737C23.642,11.149,23.766,11.225,23.889,11.303z M16,12.813c0,1.657-1.343,3-3,3s-3-1.343-3-3
	s1.343-3,3-3S16,11.156,16,12.813z"/>
</svg>
