<?xml version="1.0" encoding="utf-8"?>
<!-- Generator: Adobe Illustrator 18.1.1, SVG Export Plug-In . SVG Version: 6.00 Build 0)  -->
<svg version="1.1" id="Layer_1" xmlns="http://www.w3.org/2000/svg" xmlns:xlink="http://www.w3.org/1999/xlink" x="0px" y="0px"
	 viewBox="-956.5 526.2 32 29.7" enable-background="new -956.5 526.2 32 29.7" xml:space="preserve">
<g>
	<path d="M-924.8,552.6c0.4,0.7,0.4,1.6,0,2.2c-0.4,0.7-1.2,1.1-2,1.1h-27.4c-0.8,0-1.6-0.4-2-1.1c-0.4-0.7-0.4-1.6,0-2.2l13.7-25.1
		c0.4-0.7,1.2-1.2,2-1.2s1.6,0.5,2,1.2L-924.8,552.6z M-938,535.9c0-0.1-0.1-0.2-0.2-0.3c-0.1-0.1-0.3-0.2-0.4-0.2h-3.9
		c-0.2,0-0.3,0.1-0.4,0.2c-0.1,0.1-0.2,0.3-0.2,0.4l0.3,8.2c0,0.2,0.3,0.4,0.6,0.4h3.3c0.3,0,0.6-0.2,0.6-0.4L-938,535.9z
		 M-938.2,547.4c0-0.3-0.2-0.6-0.6-0.6h-3.4c-0.3,0-0.6,0.3-0.6,0.6v3.4c0,0.3,0.2,0.6,0.6,0.6h3.4c0.3,0,0.6-0.3,0.6-0.6V547.4z"/>
</g>
</svg>
