<?xml version="1.0" standalone="no"?> 
<!DOCTYPE svg PUBLIC "-//W3C//DTD SVG 1.1//EN" "http://www.w3.org/Graphics/SVG/1.1/DTD/svg11.dtd" >
<svg xmlns="http://www.w3.org/2000/svg">
<defs>
  <font id="icons" horiz-adv-x="1098">
    <font-face font-family="icons"
      units-per-em="1024" ascent="1024"
      descent="0" />
    <missing-glyph horiz-adv-x="0" />
    <glyph glyph-name="alert"
      unicode="&#xE001;"
      horiz-adv-x="791.2727272727274" d=" M778.2141414141414 292.4606060606061C787.7818181818182 275.5232323232323 787.2646464646465 254.7070707070707 777.3090909090909 237.8989898989899C767.3535353535352 220.9616161616161 749.1232323232324 210.6181818181817 729.6 210.6181818181817H63.7414141414141C44.2181818181818 210.6181818181817 25.9878787878787 220.9616161616161 16.0323232323232 237.8989898989899C6.0767676767676 254.8363636363636 5.6888888888888 275.6525252525253 15.1272727272727 292.4606060606061L348.0565656565657 902.8525252525252C357.6242424242424 920.5656565656566 376.2424242424243 931.9434343434344 396.6707070707071 931.9434343434344S435.7171717171718 920.6949494949494 445.2848484848486 902.8525252525252L778.2141414141414 292.4606060606061zM459.119191919192 697.0181818181818C459.119191919192 699.6040404040403 457.8262626262627 703.0949494949494 454.7232323232324 705.2929292929293C452.1373737373738 707.4909090909091 448.258585858586 710.0767676767676 444.3797979797981 710.0767676767676H348.9616161616163C345.0828282828284 710.0767676767676 341.2040404040405 707.4909090909091 338.6181818181819 705.2929292929293C335.6444444444445 703.0949494949496 334.2222222222224 698.8282828282828 334.2222222222224 696.2424242424242L341.5919191919193 498.1656565656565C341.5919191919193 492.4767676767676 348.0565656565658 488.210101010101 356.3313131313132 488.210101010101H436.4929292929294C444.2505050505052 488.210101010101 450.8444444444445 492.6060606060605 451.2323232323233 498.1656565656565L459.119191919192 697.0181818181818zM452.1373737373738 418.2626262626262C452.1373737373738 426.020202020202 446.0606060606061 432.6141414141414 438.3030303030304 432.6141414141414H355.0383838383839C347.2808080808082 432.6141414141414 341.2040404040405 426.149494949495 341.2040404040405 418.2626262626262V335.9030303030302C341.2040404040405 328.1454545454544 347.2808080808082 321.551515151515 355.0383838383839 321.551515151515H438.3030303030304C446.0606060606061 321.551515151515 452.1373737373738 328.0161616161614 452.1373737373738 335.9030303030302V418.2626262626262z" />
    <glyph glyph-name="api"
      unicode="&#xE002;"
      horiz-adv-x="1024" d="" />
    <glyph glyph-name="arrow-double"
      unicode="&#xE003;"
      horiz-adv-x="555.0694400000001" d=" M0 277.99552C0 287.0476799999999 3.54304 295.17824 10.67008 302.32576S25.88672 312.9958400000001 35.00032 312.9958400000001H521.05216C530.10432 312.9958400000001 538.05056 309.4528 544.8704 302.32576C551.69024 295.19872 555.08992 287.10912 555.08992 277.99552C555.08992 268.288 551.85408 260.1984 545.3824 253.66528L302.36672 10.67008C295.23968 3.54304 287.15008 0 278.0364800000001 0S260.85376 3.54304 253.70624 10.67008L10.71104 253.6652800000001C3.54304 260.79232 0 268.8819199999999 0 277.99552z M0 745.12384C0 754.8313599999999 3.54304 763.2691199999999 10.67008 770.39616L253.66528 1013.41184C260.1984 1019.94496 268.288 1023.1808 277.99552 1023.1808S295.79264 1019.94496 302.32576 1013.47328L545.32096 770.4576C551.79264 763.98592 555.02848 755.54816 555.02848 745.1852799999999C555.02848 736.13312 551.64928 728.18688 544.8089600000001 721.36704C537.9891200000001 714.5472 530.04288 711.14752 520.99072 711.14752H34.97984C25.92768 711.14752 17.79712 714.52672 10.6496 721.36704C3.54304 728.1459199999999 0 736.07168 0 745.12384z" />
    <glyph glyph-name="arrow-down"
      unicode="&#xE004;"
      horiz-adv-x="1730.979469879518" d=" M40.2691084337349 890.5098795180724C40.2691084337349 918.1455421686748 51.1259759036145 942.8202409638554 72.8397108433735 964.5339759036146C94.5534457831325 986.2477108433736 119.2281445783133 997.1045783132532 146.8638072289157 997.1045783132532H1627.345734939759C1654.9813975903617 997.1045783132532 1679.1626024096386 986.2477108433736 1699.8893493975904 964.5339759036146C1720.6160963855423 942.8202409638554 1730.979469879518 918.1455421686748 1730.979469879518 890.5098795180724C1730.979469879518 860.9002409638554 1721.1095903614457 836.2255421686747 1701.3698313253012 816.4857831325302L961.1288674698797 76.2448192771085C939.4151325301204 54.5310843373495 914.7404337349396 43.6742168674701 887.1047710843374 43.6742168674701S834.7944096385543 54.5310843373495 813.0806746987952 76.2448192771085L72.8397108433735 816.4857831325302C51.1259759036145 838.1995180722892 40.2691084337349 862.8742168674698 40.2691084337349 890.5098795180724z" />
    <glyph glyph-name="arrow-left"
      unicode="&#xE005;"
      horiz-adv-x="634.032634032634" d=" M24.3468531468531 512C24.3468531468531 528.7086247086247 30.9109557109557 543.6270396270396 44.0391608391608 556.7552447552448L491.5916083916084 1004.3076923076922C504.7198135198135 1017.4358974358973 519.6382284382285 1024 536.346853146853 1024C553.0554778554778 1024 567.6755244755244 1017.4358974358973 580.2069930069929 1004.3076923076922S599.0041958041957 976.2610722610722 599.0041958041957 959.5524475524476V64.4475524475525C599.0041958041957 47.7389277389278 592.7384615384614 32.8205128205129 580.2069930069929 19.6923076923079S553.0554778554778 2e-13 536.346853146853 2e-13C519.6382284382285 2e-13 504.7198135198135 6.5641025641028 491.5916083916084 19.6923076923079L44.0391608391608 467.2447552447553C30.9109557109557 480.3729603729604 24.3468531468531 495.2913752913754 24.3468531468531 512z" />
    <glyph glyph-name="arrow-right"
      unicode="&#xE006;"
      horiz-adv-x="574.6573426573427" d=" M0 64.4475524475525V959.5524475524476C0 976.2610722610722 6.5641025641026 991.1794871794872 19.6923076923077 1004.3076923076922S47.7389277389277 1024 64.4475524475525 1024S96.0745920745921 1017.4358974358973 109.2027972027972 1004.3076923076922L556.7552447552447 556.7552447552448C568.6899766899767 544.8205128205129 574.6573426573427 529.9020979020979 574.6573426573427 512S568.6899766899768 479.1794871794872 556.7552447552447 467.2447552447553L109.2027972027972 19.6923076923079C96.074592074592 6.5641025641028 81.1561771561771 2e-13 64.4475524475524 2e-13S32.8205128205128 6.5641025641028 19.6923076923077 19.6923076923079S0 47.7389277389278 0 64.4475524475525z" />
    <glyph glyph-name="arrow-up"
      unicode="&#xE007;"
      horiz-adv-x="1864.892211838006" d=" M0 111.6510903426793C0 143.551401869159 11.6967808930426 171.1983385254415 35.0903426791277 194.5919003115266L832.5981308411214 992.0996884735202C853.8650051921078 1013.3665628245068 880.448598130841 1024 912.3489096573207 1024S970.8328141225338 1013.3665628245068 992.0996884735202 992.0996884735202L1789.6074766355136 194.5919003115266C1810.8743509865 173.3250259605401 1821.5077881619936 145.6780893042577 1821.5077881619936 111.6510903426793C1821.5077881619936 81.8774662512982 1810.3426791277257 55.8255451713396 1788.0124610591895 33.4953271028039C1765.6822429906538 11.165109034268 1739.6303219106956 2e-13 1709.8566978193144 2e-13H114.8411214953269C85.0674974039458 2e-13 58.4839044652127 11.1651090342682 35.0903426791275 33.4953271028039C11.6967808930426 55.8255451713396 0 81.8774662512982 0 111.6510903426793z" />
    <glyph glyph-name="asterisk"
      unicode="&#xE008;"
      horiz-adv-x="1024" d="" />
    <glyph glyph-name="bell"
      unicode="&#xE009;"
      horiz-adv-x="1024" d=" M497.3056 156.8256C518.8949333333334 156.8256 536.9002666666667 164.9151999999999 551.2874666666667 181.1114666666667C565.6917333333333 197.3077333333333 572.8768 217.1050666666668 572.8768 240.4864C572.8768 248.576 547.6864 252.6378666666667 497.3056 252.6378666666667C446.9248 252.6378666666667 421.7344 248.5930666666667 421.7344 240.4864C421.7344 217.088 428.9365333333334 197.2906666666668 443.3237333333334 181.1114666666667S475.7162666666666 156.8256 497.3056 156.8256zM977.7664 167.6288000000001C977.7664 129.8432000000002 949.4186666666666 97.4506666666667 892.7402666666666 70.4512C836.0618666666667 43.4517333333333 772.1813333333333 24.1152 701.0986666666666 12.4245333333333C630.016 0.7338666666667 561.8688 -5.1199999999999 496.6399999999999 -5.1199999999999C431.4112 -5.1199999999999 363.4858666666667 0.7338666666668 292.8469333333333 12.4245333333333C222.2250666666666 24.1152000000001 158.7882666666666 43.4688000000001 102.5536 70.4512C46.3189333333333 97.4506666666667 18.2101333333333 129.8261333333334 18.2101333333333 167.6288000000001C18.2101333333333 185.6170666666668 24.9514666666666 202.2741333333335 38.4512 217.5658666666668C84.3434666666666 312.0469333333334 118.7498666666666 402.9098666666668 141.7045333333333 490.1888000000001C164.6421333333333 577.4677333333334 181.9648 648.3114666666668 193.6725333333333 702.7541333333335C205.3632 757.1968000000002 223.8122666666666 801.0581333333334 249.0026666666666 834.3381333333334C290.3893333333333 891.9210666666668 344.832 927.9146666666668 412.3136 942.3018666666668C415.0101333333334 965.7002666666668 424.2432 984.5930666666668 439.9786666666667 998.9802666666668S474.8117333333333 1020.5866666666668 497.3056 1020.5866666666668C519.7994666666667 1020.5866666666668 539.136 1012.9408 555.3322666666667 997.6490666666666S580.0789333333335 963.9082666666666 580.9664 942.3189333333333C648.4480000000001 927.9146666666666 703.3344000000001 891.9381333333333 745.6256000000001 834.3552C769.9114666666668 801.0581333333333 787.9168000000002 757.1967999999999 799.6074666666667 702.7712C811.2981333333335 648.3285333333333 828.6208000000001 577.4848 851.5754666666668 490.2058666666667C874.5130666666668 402.9269333333334 909.3802666666668 312.064 956.1770666666667 217.5829333333333C970.5642666666666 200.4650666666668 977.7664 183.8250666666667 977.7664 167.6288000000001zM497.3056 100.1472C696.1493333333333 100.1472 823.0058666666666 133.4442666666668 877.8922666666666 200.0213333333334C823.0058666666666 266.5984 695.9274666666666 299.8954666666667 496.6229333333333 299.8954666666667S170.2570666666667 266.5984000000001 115.3706666666667 200.0213333333334C173.8410666666667 130.7477333333334 301.1584000000001 97.4506666666667 497.3056 100.1472z" />
    <glyph glyph-name="cake"
      unicode="&#xE00A;"
      horiz-adv-x="1024" d=" M0 409.5999999999999H1024V0H0z M870.4000000000001 819.2L870.4000000000001 1024L716.8000000000001 1024L716.8000000000001 819.2L614.4000000000001 819.2L614.4000000000001 1024L409.6 1024L409.6 819.2L307.2000000000001 819.2L307.2000000000001 1024L153.6 1024L153.6 819.2L0 819.2L0 512L1024 512L1024 819.2z" />
    <glyph glyph-name="calendar"
      unicode="&#xE00B;"
      horiz-adv-x="1001.216" d=" M978.432 847.6672C963.1744000000002 862.8736 945.1008 870.5024 924.3136 870.5024H847.2576000000001V928.3072C847.2576000000001 954.7776 837.7856000000002 977.4592 818.9952000000002 996.3008C800.1024000000002 1015.1424 777.4208000000002 1024.5632 751.0016000000002 1024.5632H712.4992000000002C685.9776000000002 1024.5632 663.3472000000002 1015.1424 644.5056000000002 996.3008C625.6640000000002 977.4592 616.2432000000002 954.7264 616.2432000000002 928.3072V870.5024H385.1264000000001V928.3072C385.1264000000001 954.7776 375.6544000000001 977.4592 356.7616000000001 996.3008C337.92 1015.1424 315.2896000000001 1024.5632 288.768 1024.5632H250.368C223.8464 1024.5632 201.216 1015.1424 182.3744 996.3008C163.4816 977.408 154.0096 954.7264 154.0096 928.3072V870.5024H77.056C56.1664 870.5024 38.0928 862.8736 22.9376 847.6672C7.6288 832.4096 0 814.336 0 793.4976V77.0559999999999C0 56.1663999999998 7.6288 38.1439999999998 22.8864 22.8863999999999C38.0928 7.6288 56.1664 0 77.056 0H924.2624C945.0496 0 963.1232 7.6288 978.3808 22.8352C993.5872 38.0927999999999 1001.216 56.1152 1001.216 77.0048000000001V793.4976C1001.216 814.336 993.5872 832.4096 978.432 847.6672zM308.0704000000001 102.2976H89.4464V344.9856H308.1216V102.2976zM308.0704000000001 421.9904H89.4464V664.6784H308.1216V421.9904zM311.9616000000001 754.9952000000001C311.9616000000001 749.7728 310.016 745.2672 306.2784000000001 741.4784C302.3872 737.6384 297.9328 735.7439999999999 292.6592 735.7439999999999H254.208C248.9344 735.7439999999999 244.48 737.6895999999999 240.5888 741.4784C236.8512000000001 745.2672 234.9056 749.7728 234.9056 754.9952000000001V928.3072C234.9056 933.5296 236.8512000000001 937.984 240.5888 941.824C244.4288 945.664 248.9344 947.5584 254.208 947.5584H292.6592C297.9328 947.5584 302.3872000000001 945.6128 306.2784000000001 941.824C310.016 937.984 311.9616000000001 933.5296 311.9616000000001 928.3072V754.9952000000001zM616.1408000000001 102.2976H385.0752V344.9856H616.1408V102.2976zM616.1408000000001 421.9904H385.0752V664.6784H616.1408V421.9904zM696.9856 928.3072C696.9856 933.5296 698.9312 937.984 702.7712 941.824C706.56 945.664 711.0144 947.5584 716.288 947.5584H754.7904C759.9616000000001 947.5584 764.4672 945.6128 768.3072 941.824C772.096 937.984 773.9904 933.5296 773.9904 928.3072V754.9952000000001C773.9904 749.7728 772.0448 745.2672 768.3072 741.4784C764.4672 737.6384 759.9616 735.7439999999999 754.7904 735.7439999999999H716.288C711.0144 735.7439999999999 706.56 737.6895999999999 702.7712 741.4784C698.9312 745.2672 696.9856 749.7728 696.9856 754.9952000000001V928.3072zM911.7696 102.2976H693.0944V344.9856H911.7696V102.2976zM911.7696 421.9904H693.0944V664.6784H911.7696V421.9904z" />
    <glyph glyph-name="check"
      unicode="&#xE00C;"
      horiz-adv-x="1295.7765939550272" d=" M1291.527393035384 829.627768743341C1291.527393035384 807.4055963662872 1283.7754724387373 788.513878764089 1268.2142096113948 772.9526159367465L664.9425222901364 169.7383502495372L551.6496383109965 56.4454662703975C536.0883754836539 40.8842034430548 517.2540795155049 33.1322828464082 494.974485504402 33.1322828464082C472.7523131273481 33.1322828464082 453.86059552515 40.8842034430552 438.2993326978074 56.4454662703975L325.0064487186677 169.6809286154879L23.3706050580385 471.3167722761171C7.7519205966467 486.8780351034598 0 505.769752705658 0 527.9919250827118C0 550.2140974597655 7.7519205966467 569.1058150619638 23.3131834239892 584.6670778893063L136.6634890371783 697.959961868446C152.2247518645209 713.5212246957888 171.0590478326698 721.2731452924354 193.3386418437728 721.2731452924354S234.4525318230248 713.5212246957888 250.0137946503673 697.959961868446L494.974485504402 452.137946503673L1041.5135983850166 999.538383895026C1057.0748612123593 1015.0996467223686 1075.9091571805081 1022.8515673190154 1098.1887511916111 1022.8515673190154C1120.4109235686649 1022.8515673190154 1139.3026411708631 1015.0996467223686 1154.8639039982056 999.538383895026L1268.1567879773454 886.2454999158863C1283.7180508046881 870.7416587225929 1291.527393035384 851.7925194863456 1291.527393035384 829.627768743341z" />
    <glyph glyph-name="chevron-left"
      unicode="&#xE00D;"
      horiz-adv-x="669.0133333333333" d=" M11.9466666666667 512C11.9466666666667 534.1866666666667 20.48 554.6666666666667 35.84 571.7333333333333L460.8 996.6933333333334C476.16 1012.0533333333332 496.64 1020.5866666666668 518.8266666666666 1020.5866666666668S561.4933333333333 1012.0533333333332 576.8533333333332 996.6933333333334L626.3466666666666 947.2C641.7066666666666 930.1333333333334 650.2399999999999 909.6533333333334 650.2399999999999 887.4666666666667C650.2399999999999 863.5733333333333 641.7066666666666 844.8 626.3466666666666 829.44L310.6133333333334 512L628.0533333333333 196.2666666666667C643.4133333333334 179.2000000000001 651.9466666666667 158.7199999999999 651.9466666666667 136.5333333333333C651.9466666666667 112.64 643.4133333333334 93.8666666666667 628.0533333333333 78.5066666666667L578.5600000000001 29.0133333333334C563.2 11.9466666666667 542.72 3.4133333333334 520.5333333333334 3.4133333333334C496.6400000000001 3.4133333333334 477.8666666666667 11.9466666666667 462.5066666666667 29.0133333333334L35.84 453.9733333333334C18.7733333333333 469.3333333333334 11.9466666666667 488.1066666666667 11.9466666666667 512L11.9466666666667 512z" />
    <glyph glyph-name="chevron-right"
      unicode="&#xE00E;"
      horiz-adv-x="669.8666666666667" d=" M652.2026666666667 512.0170666666668C652.2026666666667 489.4037333333333 644.1472 469.6064 628.0533333333334 452.6250666666667L202.5984 27.8186666666667C186.5045333333334 11.7248000000001 166.9290666666667 3.6693333333334 143.872 3.6693333333334C120.8149333333333 3.6693333333334 101.2394666666667 11.7248000000001 85.1456 27.8186666666667L35.5498666666667 76.7658666666667C19.456 93.7301333333335 11.4005333333333 113.5274666666667 11.4005333333333 136.1578666666667C11.4005333333333 159.2149333333333 19.456 178.7904 35.5498666666667 194.8842666666668L352.6826666666667 512L35.5498666666667 828.5013333333334C19.456 845.4656 11.4005333333333 865.2629333333333 11.4005333333333 887.8933333333333C11.4005333333333 910.9504 19.456 930.5258666666666 35.5498666666667 946.6197333333334L85.1456 995.5669333333332C100.8128 1012.0704 120.3882666666667 1020.3306666666666 143.872 1020.3306666666666C167.3557333333333 1020.3306666666666 186.9312 1012.0704 202.5984 995.5328L628.0533333333333 570.7264C644.1471999999999 554.6325333333333 652.2026666666666 535.0570666666667 652.2026666666666 512V512.0170666666668z" />
    <glyph glyph-name="clipboard-check"
      unicode="&#xE00F;"
      horiz-adv-x="767.232" d=" M735.232 895.6928H671.2832V831.744H703.2832V64.3584000000001H477.44H388.608H64.9216V831.744H96.9216V895.6928H32.9728C15.4112 895.6928 0.9728 881.3056 0.9728 863.6928V32.3584000000001C0.9728 14.7968000000001 15.36 0.3584000000001 32.9728 0.3584000000001H383.3344H384.9216H735.2832000000001C752.8448000000001 0.3584000000001 767.2832000000001 14.7456 767.2832000000001 32.3584000000001V863.744C767.232 881.3056 752.8448000000001 895.6928 735.232 895.6928z M456.3456 767.7952H639.2832000000001V895.6928H511.4368000000001V959.6416C511.4368000000001 994.816 482.6624000000001 1023.5904 447.4880000000001 1023.5904H387.072H381.1328000000001H320.7168000000001C285.5424 1023.5904 256.7680000000001 994.816 256.7680000000001 959.6416V895.6928H128.8704V767.7952H311.808H456.3456zM320.7168000000001 895.6928V959.5392C320.7680000000001 959.5904 320.7680000000001 959.6416 320.8192 959.6416H447.3344C447.3856 959.5904 447.4368000000001 959.5392 447.4880000000001 959.5392V895.6928H320.7168000000001zM389.12 895.6928H379.0848000000001 M602.88 514.6112C602.88 507.0848 600.2688 500.6848 594.9952000000001 495.4112L390.6048000000001 291.0208L352.2048000000001 252.6208000000001C346.9312000000001 247.3472000000001 340.5312000000001 244.736 333.0048000000001 244.736C325.4784 244.736 319.0784000000001 247.3472000000001 313.8048000000001 252.6208000000001L275.4048 291.0208L173.2096 393.2159999999999C167.936 398.4895999999999 165.3248 404.8896 165.3248 412.416C165.3248 419.9424 167.936 426.3424 173.2096 431.616L211.6096 470.016C216.8832 475.2896 223.2832 477.9008 230.8096 477.9008S244.736 475.2896 250.0096 470.016L333.0048 386.7136L518.1952 572.2112C523.4688 577.4848 529.8688 580.0959999999999 537.3951999999999 580.0959999999999C544.9216 580.0959999999999 551.3216 577.4848 556.5952 572.2112L594.9952 533.8111999999999C600.2688 528.5376 602.88 522.1376 602.88 514.6112z" />
    <glyph glyph-name="clipboard-paste"
      unicode="&#xE010;"
      horiz-adv-x="974.6506024096386" d=" M784.9515180722894 695.5304096385539V853.5965301204803C784.9515180722894 870.9675180722863 770.7388915662649 885.229493975903 753.3185542168668 885.229493975903H532.0358554216871V948.4460722891562C532.0358554216871 983.2373975903604 503.5612530120486 1011.6626506024096 468.8192771084338 1011.6626506024096H342.3861204819272C307.5947951807231 1011.6626506024096 279.1695421686739 983.1880481927712 279.1695421686739 948.4460722891562V885.229493975903H57.8868433734941C40.5158554216881 885.229493975903 26.2538795180714 871.0168674698784 26.2538795180714 853.5965301204803V221.3320481927689C26.2538795180714 203.9610602409629 40.4665060240961 189.6990843373462 57.8868433734941 189.6990843373462H342.4354698795192V0H785.0502168674707L974.7493012048226 189.6990843373491V695.5304096385539H784.9515180722894zM342.3861204819272 948.298024096386C342.4354698795164 948.3473734939752 342.4354698795164 948.3967228915672 342.4848192771084 948.3967228915672H468.7205783132526C468.7699277108418 948.3473734939778 468.8192771084338 948.298024096386 468.8192771084338 948.298024096386V885.1801445783138H342.3861204819272V948.298024096386zM152.687036144578 758.7469879518072V821.9635662650605H658.5183614457828V758.7469879518072H152.687036144578zM784.9515180722894 89.4211084337355V189.6990843373491H885.2294939759031L784.9515180722894 89.4211084337355zM911.4340240963854 252.9156626506024H721.7349397590361V63.2165783132533H405.6026987951805V632.2644819277114H911.4340240963854V252.9156626506024z" />
    <glyph glyph-name="clipboard"
      unicode="&#xE011;"
      horiz-adv-x="768" d=" M736 896H672V832H704V320H448V64H64V832H96V896H32C14.4042666666667 896 0 881.5957333333333 0 864V32C0 14.4042666666667 14.4042666666667 0 32 0H535.9957333333333L768 232.0042666666667V864C768 881.5957333333333 753.5957333333333 896 736 896zM512 64V256H704L512 64zM640 896H512V960C512 995.2085333333334 483.1914666666666 1024 448 1024H320C284.7914666666667 1024 256 995.1914666666667 256 960V896H128V768H640V896zM448 896H320V959.8805333333333C320.0341333333334 959.9146666666666 320.0682666666667 959.9658666666666 320.1194666666667 960H447.8805333333334C447.9146666666668 959.9658666666666 447.9658666666668 959.9317333333335 448 959.8805333333333V896z" />
    <glyph glyph-name="clock"
      unicode="&#xE012;"
      horiz-adv-x="1024" d=" M511.9999674479187 1024C229.2223854264332 1024 0 794.7776145735668 0 512.0000325520813S229.2223854264332 0.0000651041626 511.9999674479187 0.0000651041626S1023.9999348958374 229.2224505305957 1023.9999348958374 512.0000325520813S794.7775494694043 1024 511.9999674479187 1024zM658.7391581184922 274.7392476367158L447.9999715169289 485.4955009038606L447.9999715169289 768.0000162760407L575.9999633789085 768.0000162760407L575.9999633789085 538.5045642003018L749.2607523632843 365.2437752159263L658.7391581184922 274.7392476367158z" />
    <glyph glyph-name="collapse"
      unicode="&#xE013;"
      horiz-adv-x="1024" d=" M848.7594666666666 472.3029333333334V557.1925333333334C848.7594666666666 568.6954666666667 844.5610666666666 578.6453333333334 836.1642666666667 587.0421333333334C827.7674666666667 595.4389333333334 817.8176 599.6373333333333 806.3146666666667 599.6373333333333H212.1898666666667C200.6869333333334 599.6373333333333 190.7370666666667 595.4389333333334 182.3402666666667 587.0421333333334S169.7450666666667 568.6954666666667 169.7450666666667 557.1925333333334V472.3029333333334C169.7450666666667 460.8 173.9434666666667 450.8501333333334 182.3402666666667 442.4533333333333S200.6869333333333 429.8581333333333 212.1898666666667 429.8581333333333H806.3146666666667C817.8176 429.8581333333333 827.7674666666666 434.0565333333334 836.1642666666667 442.4533333333333C844.5610666666666 450.8672 848.7594666666666 460.8 848.7594666666666 472.3029333333334zM1018.5216 833.024V196.4544000000001C1018.5216 143.8549333333334 999.8506666666668 98.8672000000001 962.4917333333332 61.5082666666667C925.1328 24.1493333333333 880.1621333333334 5.4613333333333 827.5456 5.4784H190.976C138.3765333333333 5.4784 93.3888 24.1493333333333 56.0298666666667 61.5082666666667S-0.0170666666667 143.8378666666666 0 196.4544000000001V833.024C0 885.6234666666667 18.6709333333333 930.6112 56.0298666666667 967.9701333333334S138.3594666666667 1024.0170666666668 190.976 1024H827.5455999999999C880.1450666666666 1024 925.1327999999997 1005.3290666666666 962.4917333333332 967.9701333333334S1018.5386666666666 885.6405333333333 1018.5216 833.024z" />
    <glyph glyph-name="copy"
      unicode="&#xE014;"
      horiz-adv-x="1024" d=" M640 768V1024H192L0 832V256H384V0H1024V768H640zM192 933.504V832H90.496L192 933.504zM64 320V768H256V960H576V768L384 576V320H64zM576 677.504V576H474.496L576 677.504zM960 64H448V512H640V704H960V64z" />
    <glyph glyph-name="delete-inverted"
      unicode="&#xE015;"
      horiz-adv-x="1024" d=" M518.4 35.2C260.8 35.2 52.8 243.2000000000001 52.8 500.8000000000001S260.8 966.4 518.4 966.4C776 966.4 984 758.4000000000001 984 500.8000000000001S774.4 35.2 518.4 35.2zM737.6 390.4L627.2 500.8L737.6 611.1999999999999C745.6 619.1999999999999 748.8000000000001 628.8 748.8000000000001 638.3999999999999S744.0000000000001 659.1999999999999 737.6 665.5999999999999L683.2 720C675.2 728 665.6 731.2 656 731.2S635.2 726.4 628.8 720L518.4 609.6L408 720C400 728 390.4 731.2 380.8 731.2S360 726.4 353.6 720L299.2000000000001 665.6C291.2000000000001 657.6 288.0000000000001 648 288.0000000000001 638.4000000000001S292.8000000000001 617.6 299.2000000000001 611.2L409.6 500.8000000000001L299.2000000000001 390.4000000000001C291.2000000000001 382.4000000000001 288.0000000000001 372.8000000000001 288.0000000000001 363.2000000000001S292.8000000000001 342.4000000000001 299.2000000000001 336L353.6 281.6C361.6 273.6 371.2000000000001 270.4 380.8 270.4S401.6 275.2 408 281.6L518.4 392L628.8 281.6C636.8 273.6 646.4 270.4 656 270.4S676.8 275.2 683.2 281.6L737.6 336C745.6 344 748.8000000000001 353.6 748.8000000000001 363.2000000000001S745.6 384 737.6 390.4z" />
    <glyph glyph-name="delete"
      unicode="&#xE016;"
      horiz-adv-x="1024" d=" M1023.36512 199.45472C1023.36512 176.4966399999999 1015.2345600000002 157.0201599999999 999.3216000000002 140.9638399999999L882.3193600000001 24.064C866.2425599999999 7.9872 846.7251200000001 0 823.86944 0C800.9113600000001 0 781.3939200000001 8.0281600000001 765.31712 24.0435199999999L512.512 276.8486400000001L259.7273600000001 24.0435199999999C243.65056 7.9872 224.23552 0 201.27744 0S158.90432 8.0281600000001 142.82752 24.0435199999999L25.82528 140.94336C9.74848 157.0201599999999 1.78176 176.4761599999999 1.78176 199.4342399999999C1.78176 222.28992 9.80992 241.80736 25.82528 257.88416L278.6304 510.6892799999999L25.82528 763.4944C9.74848 779.5712 1.78176 799.0272 1.78176 821.98528S9.80992 864.3584 25.82528 880.4761599999999L142.82752 997.376C158.90432 1013.4528 178.29888 1021.41952 201.27744 1021.41952S243.65056 1013.39136 259.72736 997.376L512.53248 744.57088L765.31712 997.376C781.39392 1013.4528 800.89088 1021.41952 823.86944 1021.41952C846.68416 1021.41952 866.2425600000001 1013.39136 882.3193600000001 997.376L999.3216000000002 880.4761599999999C1015.2345600000002 864.3584 1023.36512 844.94336 1023.36512 821.98528S1015.2345600000002 779.55072 999.3216000000002 763.4944L746.51648 510.6892799999999L999.3216000000002 257.88416C1015.21408 241.8278399999999 1023.36512 222.3104 1023.36512 199.45472z" />
    <glyph glyph-name="denied"
      unicode="&#xE017;"
      horiz-adv-x="1024" d=" M512 5.12C231.936 5.12 4.608 232.448 4.608 512.512S231.936 1019.904 512 1019.904S1019.392 792.576 1019.392 512.5120000000001S792.064 5.12 512 5.12zM807.936 555.008C807.936 578.048 788.9920000000002 597.504 765.44 597.504H258.048C235.008 597.504 215.552 578.56 215.552 555.008V470.528C215.552 447.4880000000001 234.496 428.0320000000001 258.048 428.0320000000001H765.44C788.48 428.0320000000001 807.936 446.976 807.936 470.528V555.008z" />
    <glyph glyph-name="disabled"
      unicode="&#xE018;"
      horiz-adv-x="1024" d=" M0 512C0 229.216 229.216 0 512 0C794.784 0 1024 229.216 1024 512S794.784 1024 512 1024C229.216 1024 0 794.784 0 512zM896 512C896 438.752 875.488 370.304 839.904 312.096L312.096 839.904C370.336 875.488 438.784 896 512 896C724.064 896 896 724.064 896 512zM128 512C128 585.248 148.512 653.664 184.096 711.904L711.904 184.096C653.664 148.512 585.216 128 512 128C299.9360000000001 128 128 299.9360000000001 128 512z" />
    <glyph glyph-name="document-blank"
      unicode="&#xE019;"
      horiz-adv-x="855.04" d=" M855.0399999999995 768L599.0399999999994 1024H0V0H855.0399999999995V768zM762.8799999999989 768H599.0399999999994V931.8399999999993L762.8799999999989 768zM61.4399999999994 962.5600000000006H532.4799999999989V706.5600000000006H788.4799999999989V66.5600000000005H61.4399999999994V962.5600000000006z" />
    <glyph glyph-name="document"
      unicode="&#xE01A;"
      horiz-adv-x="852.7872" d=" M189.1328 500.7872H663.6544V413.0816000000001H189.1328V500.7872zM189.1328 323.3792H663.6544V235.6736000000001H189.1328V323.3792z M852.7872 768.1536L596.9408000000001 1024H0V0.6656H852.7872V768.1536zM760.6272 768.1536H596.9408V932.8128L760.6272 768.1536zM63.744 960.256H533.5552V703.8463999999999H788.9920000000001V64.4096H63.744V960.256z" />
    <glyph glyph-name="download"
      unicode="&#xE01B;"
      horiz-adv-x="1096.2051282051282" d=" M841.1503589743589 585.150358974359L548.601435897436 292.601435897436L256 585.150358974359H438.849641025641V1024H658.3007179487179V585.150358974359H841.1503589743589zM548.5489230769231 292.5489230769231H0V0H1097.150358974359V292.5489230769231H548.5489230769231zM1024 146.3007179487181H877.6992820512819V219.4510769230771H1024V146.3007179487181z" />
    <glyph glyph-name="drag"
      unicode="&#xE01C;"
      horiz-adv-x="1024" d=" M317.952 805.12H471.5520000000001V651.52H317.9520000000001z M522.7520000000001 805.12H676.3520000000001V651.52H522.7520000000001z M317.952 600.3199999999999H471.5520000000001V446.7199999999999H317.9520000000001z M522.7520000000001 600.3199999999999H676.3520000000001V446.7199999999999H522.7520000000001z M317.952 395.52H471.5520000000001V241.92H317.9520000000001z M522.7520000000001 395.52H676.3520000000001V241.92H522.7520000000001z" />
    <glyph glyph-name="email"
      unicode="&#xE01D;"
      horiz-adv-x="1440.4949954504093" d=" M0 778.1597256246938L0 73.3220410163087C0 53.110100090992 7.2390284874361 35.9084482396586 21.7887590116889 21.5020648141668C36.3384895359418 7.1673549380557 54.1852033317001 1e-13 75.4005739483446 1e-13H1363.875971162595C1385.0913417792397 1e-13 1403.1530762231396 7.1673549380556 1418.0611744942953 21.5020648141668C1432.9692727654508 35.8367746902779 1440.4233219010289 53.110100090992 1440.4233219010289 73.3220410163087V778.1597256246938L720.2474977252047 361.5930566249038L0 778.1597256246938z M1440.4949954504093 893.7691607755303V950.6779589836914C1440.4949954504093 970.8898999090082 1433.2559669629732 988.0915517603416 1418.7062364387205 1002.4979351858332C1404.1565059144675 1016.8326450619444 1386.309792118709 1024 1365.0944215020645 1024L76.6190242878141 1024C55.4036536711696 1024 37.3419192272695 1016.8326450619444 22.4338209561139 1002.4979351858332S0 970.8182263596276 0 950.6779589836914L0 893.7691607755303L720.2474977252047 487.0217680408764L1440.4949954504093 893.7691607755303z" />
    <glyph glyph-name="exit"
      unicode="&#xE01E;"
      horiz-adv-x="1072" d=" M419.444 146.792H215.154C113.726 146.792 31.402 229.12 31.402 330.6460000000001V779.7760000000001C31.402 881.2520000000001 113.73 963.6300000000002 215.154 963.6300000000002H419.444C430.216 963.6300000000002 439.838 954.054 439.838 943.182C439.838 925.334 448.118 881.9460000000001 419.444 881.9460000000001H215.154C159.0560000000001 881.9460000000001 113.084 835.9760000000001 113.084 779.7760000000001V330.5940000000001C113.084 274.3960000000001 159.0560000000001 228.4220000000001 215.154 228.4220000000001H399.0080000000001C414.9180000000001 228.4220000000001 439.8460000000001 231.562 439.8460000000001 207.9740000000001C439.8460000000001 190.124 448.1260000000001 146.788 419.4520000000001 146.788zM1019.868 526.4100000000001L672.758 179.3C665.028 171.67 654.908 167.18 644.032 167.18C621.69 167.18 603.192 185.582 603.192 207.9179999999999V391.8219999999999H317.322C294.9820000000001 391.8219999999999 276.484 410.3219999999999 276.484 432.6599999999999V677.6939999999998C276.484 700.0359999999998 294.984 718.5339999999999 317.322 718.5339999999999H603.192V902.388C603.192 924.7279999999998 621.692 943.1259999999997 644.03 943.1259999999997C654.904 943.1259999999997 665.068 938.6359999999999 672.756 931.0059999999997L1019.866 583.8959999999998C1027.496 576.1679999999999 1031.988 566.0439999999999 1031.988 555.1719999999998S1027.498 534.1339999999998 1019.868 526.3959999999998z" />
    <glyph glyph-name="expand"
      unicode="&#xE01F;"
      horiz-adv-x="1024" d=" M848.7594666666666 472.3029333333334V557.1925333333334C848.7594666666666 568.6954666666667 844.5610666666666 578.6453333333334 836.1642666666667 587.0421333333334C827.7674666666667 595.4389333333334 817.8176 599.6373333333333 806.3146666666667 599.6373333333333H594.1247999999999V811.8101333333334C594.1247999999999 823.3130666666666 589.9264 833.2629333333333 581.5296 841.6597333333334S563.2 854.2549333333334 551.6970666666666 854.2549333333334H466.8074666666666C455.3045333333333 854.2549333333334 445.3546666666666 850.0565333333334 436.9578666666667 841.6597333333334S424.3626666666667 823.3130666666667 424.3626666666667 811.8101333333334V599.6202666666667H212.1898666666667C200.6869333333334 599.6202666666667 190.7370666666667 595.4218666666667 182.3402666666667 587.0250666666667S169.7450666666667 568.6784 169.7450666666667 557.1754666666667V472.2858666666667C169.7450666666667 460.7829333333334 173.9434666666667 450.8330666666667 182.3402666666667 442.4362666666667S200.6869333333333 429.8410666666666 212.1898666666667 429.8410666666666H424.3797333333333V217.6512C424.3797333333333 206.1482666666667 428.5781333333333 196.1984000000001 436.9749333333333 187.8016S455.3216 175.2064 466.8245333333333 175.2064H551.7141333333333C563.2170666666666 175.2064 573.1669333333333 179.4048 581.5637333333333 187.8016S594.1589333333334 206.1482666666667 594.1589333333334 217.6512V429.8752000000001H806.3488C817.8517333333333 429.8752000000001 827.8015999999999 434.0736000000001 836.1984 442.4704000000001C844.5610666666666 450.8672 848.7594666666666 460.8 848.7594666666666 472.3029333333334zM1018.5216 833.024V196.4544000000001C1018.5216 143.8549333333334 999.8506666666668 98.8672000000001 962.4917333333332 61.5082666666667C925.1328 24.1493333333333 880.1621333333334 5.4613333333333 827.5456 5.4784H190.976C138.3765333333333 5.4784 93.3888 24.1493333333333 56.0298666666667 61.5082666666667S-0.0170666666667 143.8378666666666 0 196.4544000000001V833.024C0 885.6234666666667 18.6709333333333 930.6112 56.0298666666667 967.9701333333334S138.3594666666667 1024.0170666666668 190.976 1024H827.5455999999999C880.1450666666666 1024 925.1327999999997 1005.3290666666666 962.4917333333332 967.9701333333334S1018.5386666666666 885.6405333333333 1018.5216 833.024z" />
    <glyph glyph-name="export"
      unicode="&#xE020;"
      horiz-adv-x="1312.8205128205127" d=" M984.6153846153846 131.2820512820513H131.2820512820513V722.051282051282H301.6205128205129C301.6205128205129 722.051282051282 346.8307692307693 780.8820512820513 444.0615384615384 853.3333333333334L65.6410256410256 853.3333333333334C29.4153846153846 853.3333333333334 0 823.9179487179488 0 787.6923076923077V65.6410256410258C0 29.3333333333334 29.4153846153846 0 65.6410256410256 0H1050.2564102564102C1086.5641025641025 0 1115.897435897436 29.3333333333334 1115.897435897436 65.6410256410258V311.5487179487181L984.6153846153846 203.5692307692308V131.2820512820513zM877.0871794871795 587.4871794871794V354.4615384615385L1312.8205128205127 695.876923076923L877.0871794871795 1024V818.5435897435898C347.8974358974359 818.4615384615385 347.8974358974359 295.3846153846154 347.8974358974359 295.3846153846154C497.6820512820512 541.4153846153846 589.8666666666667 587.4871794871794 877.0871794871795 587.4871794871794z" />
    <glyph glyph-name="feed"
      unicode="&#xE021;"
      horiz-adv-x="1024" d=" M136.04864 274.8416C60.94848 274.8416 0 213.6064 0 138.99776C0 63.95904 61.00992 3.42016 136.04864 3.42016C211.3536 3.42016 272.30208 63.9590400000001 272.30208 138.99776C272.32256 213.6064 211.3536 274.8416 136.04864 274.8416zM0.16384 677.15072V481.2390399999999C127.71328 481.2390399999999 247.74656 431.34976 338.08384 340.9510399999999C428.31872 250.81856 478.14656 130.2732799999999 478.14656 2.1913599999999H674.93888C674.89792 374.41536 372.1011200000001 677.15072 0.16384 677.15072zM0.36864 1024.512V828.49792C455.39328 828.49792 825.71264 457.8099199999999 825.71264 2.2118400000001H1022.2592C1022.2592 565.71904 563.79392 1024.512 0.36864 1024.512z" />
    <glyph glyph-name="flag"
      unicode="&#xE022;"
      horiz-adv-x="773.8026666666667" d=" M0 68.1301333333333V955.7162666666666C0 974.5066666666665 6.8608 990.5834666666668 20.5994666666667 1003.9466666666668S50.944 1024 70.4512 1024H704.4437333333334C723.9509333333334 1024 740.3861333333334 1017.3098666666668 753.7493333333334 1003.9466666666668C767.1125333333333 990.5834666666668 773.8026666666667 974.5066666666665 773.8026666666667 955.7162666666666V68.1130666666667C773.8026666666667 48.6058666666667 767.3002666666667 32.5290666666666 754.2954666666667 19.8826666666666C741.2906666666667 7.2362666666667 724.6677333333334 0.9216 704.4437333333334 0.9216C684.9365333333334 0.9216 667.9552000000001 7.4240000000001 653.4997333333334 20.4288L386.9013333333334 276.2069333333333L120.3029333333334 20.4458666666667C105.1306666666667 6.7242666666666 88.5077333333333 -0.1536000000001 70.4512 -0.1536000000001C50.944 -0.1536000000001 34.3210666666667 6.5365333333334 20.5994666666667 19.8997333333333C6.8608 33.2629333333333 0 49.3397333333334 0 68.1301333333333z" />
    <glyph glyph-name="flagpole"
      unicode="&#xE023;"
      horiz-adv-x="1024" d=" M832 851.694C908.466 851.694 977.092 893.316 1024 924.8V329.1099999999999C977.092 297.6239999999999 908.466 255.9999999999999 832 255.9999999999999S686.908 278.6699999999999 640 310.1559999999999C593.092 341.6359999999999 524.466 364.3059999999998 448 364.3059999999998S302.91 325.3899999999999 256 293.9099999999999V889.5999999999999C302.91 921.084 371.534 959.9999999999998 448 959.9999999999998S593.092 937.3319999999998 640 905.848C686.908 874.3639999999999 755.534 851.694 832 851.694zM128 1024C163.346 1024 192 995.346 192 960V0H64V960C64 995.346 92.654 1024 128 1024z" />
    <glyph glyph-name="folder-open"
      unicode="&#xE024;"
      horiz-adv-x="1098" d=" M0 265.144V813.716Q0 866.2860000000001 37.714 904.002T128 941.716H310.856Q363.428 941.716 401.142 904.002T438.856 813.716V795.4300000000001H749.712Q802.284 795.4300000000001 839.998 757.716T877.712 667.4300000000001V576.002H402.284Q348.57 576.002 289.712 548.858T195.998 480.572L0.568 250.858Q0.568 253.1439999999999 0.282 258.002T-0.004 265.146zM41.714 169.144Q41.714 186.858 59.428 206.858L251.428 433.144Q276 462.288 320.284 482.572T402.284 502.8579999999999H1023.998Q1043.428 502.8579999999999 1058.568 495.4299999999999T1073.712 470.8579999999999Q1073.712 453.144 1055.998 433.144L863.998 206.858Q839.426 177.714 795.142 157.43T713.142 137.144H91.428Q71.998 137.144 56.858 144.572T41.714 169.144z" />
    <glyph glyph-name="folder"
      unicode="&#xE025;"
      horiz-adv-x="952" d=" M0 265.144V813.716Q0 866.2860000000001 37.714 904.002T128 941.716H310.856Q363.428 941.716 401.142 904.002T438.856 813.716V795.4300000000001H822.856Q875.428 795.4300000000001 913.142 757.716T950.856 667.4300000000001V265.144Q950.856 212.572 913.142 174.858T822.856 137.144H128Q75.43 137.144 37.714 174.858T0 265.144z" />
    <glyph glyph-name="graph"
      unicode="&#xE026;"
      horiz-adv-x="1260.3076923076924" d=" M0 157.5384615384614H1260.3076923076924V0H0V157.5384615384614zM157.5384615384616 472.6153846153845H315.0769230769231V236.3076923076923H157.5384615384616V472.6153846153845zM393.8461538461539 787.6923076923076H551.3846153846155V236.3076923076923H393.8461538461539V787.6923076923076zM630.1538461538462 551.3846153846154H787.6923076923077V236.3076923076923H630.1538461538462V551.3846153846154zM866.4615384615386 1024H1024V236.3076923076923H866.4615384615386V1024z" />
    <glyph glyph-name="heart-outline"
      unicode="&#xE027;"
      horiz-adv-x="1024" d=" M878.4 432L532.8 99.2000000000001C526.4 92.8000000000001 516.8 89.6 508.8 89.6C499.1999999999999 89.6 491.1999999999999 92.8000000000001 484.8 99.2000000000001L139.2 432C134.4 435.2000000000001 12.8 547.2 12.8 680C12.8 843.2 112 940.8 276.8 940.8C374.4 940.8 464 864 508.8 820.8C552 864 643.2 940.8 740.8 940.8C907.2 940.8 1006.4 843.2 1006.4 681.6C1004.8 547.2 883.2 436.8 878.4 432zM740.8 868.8C657.5999999999999 868.8 564.8 779.2 536 745.6C523.2 729.6 494.4 729.6 481.6 745.6C452.8 779.2 360 868.8 276.8 868.8C188.8 868.8 83.2 836.8 83.2 680C83.2 579.2 185.6 484.8 187.2 483.2L508.8000000000001 172.8000000000001L830.4000000000001 483.2C832.0000000000001 484.8000000000001 934.4 579.2 934.4 680C934.4 836.8 828.8 868.8 740.8 868.8z" />
    <glyph glyph-name="heart"
      unicode="&#xE028;"
      horiz-adv-x="1024" d=" M484.8 99.2000000000001L139.2 432C134.4 435.2000000000001 12.8 547.2 12.8 680C12.8 843.2 112 940.8 276.8 940.8C374.4 940.8 464 864 508.8 820.8C552 864 643.2 940.8 740.8 940.8C907.2 940.8 1006.4 843.2 1006.4 681.6C1006.4 548.8 884.8 436.8 880 432L532.8 99.2000000000001C526.4 92.8000000000001 516.8 89.6 508.8 89.6C500.8 89.6 491.2 92.8 484.8 99.2000000000001z" />
    <glyph glyph-name="help"
      unicode="&#xE029;"
      horiz-adv-x="1024" d=" M512 1020.7744C231.0144 1020.7744 3.1744 792.9856 3.1744 511.9487999999999S231.0144 3.1744 512 3.1744C792.9856 3.1744 1020.8256000000002 230.9632000000001 1020.8256000000002 512S792.9856 1020.7744 512 1020.7744zM410.2144000000001 817.2544H512H613.7856V715.4688H512H410.2144000000001V817.2544zM715.52 206.6944H613.7344H512H410.2144000000001H308.48V308.4288H410.2144000000001V410.2144V512H308.48V613.7344H410.2144000000001H512H613.7856V512V410.2144V308.4288H715.5712V206.6944z" />
    <glyph glyph-name="home"
      unicode="&#xE02A;"
      horiz-adv-x="1208.0716921454928" d=" M1208.0716921454928 419.9641539272536L996.7701048439056 631.2657412288409L997.4898377555204 986.273999882856H830.5118022608798V797.5240438118667L604.0358460727464 1024L0 419.9641539272536V382.2381538101096H151.0239559538453V4.738241668131H468.0063257775435V270.2597083113689H742.8843202717741V4.738241668131H1057.0477361916476V382.2381538101096H1208.0716921454928V419.9641539272536z" />
    <glyph glyph-name="key"
      unicode="&#xE02B;"
      horiz-adv-x="1024" d=" M680 1024C696 1024 712 1024 728 1024C730.2 1023.4 732.4 1022.6 734.6 1022.4C867 1009.6 976.8 917.8 1012 789.5999999999999C1017.6 769.5999999999999 1020 748.5999999999999 1024 728C1024 712 1024 696 1024 680C1023.4 677.4 1022.8 674.8 1022.2 672.2C1016.8 647.2 1013.4 621.5999999999999 1005.4 597.4C949 430.8 759.2 341.6 595.2 404C589.8 406 586.4 405.8 582.2 401.4C560.8 379.4 538.8 358.2000000000001 517.4 336.2000000000001C514.4 333 512.2 327.6 512.2 323.4C511.8 296 510.8 268.8 512.2 241.4C514.2 204.5999999999999 501.6 189.5999999999999 462.4 191.8C436.6 193.1999999999999 410.6 192 383.8 192C383.8 187.3999999999999 383.8 183.8 383.8 180.1999999999999C383.8 152.8 384 125.5999999999999 383.8 98.1999999999999C383.6 77 370.6 64.1999999999999 349.2000000000001 64C325.2000000000001 63.8 301 62.1999999999999 277.2000000000001 64.3999999999999C253.4 66.5999999999999 236.6 59 221.2000000000001 41.1999999999999C208.0000000000001 25.8 191.0000000000001 13.5999999999999 175.8000000000001 0C125.2000000000001 0 74.4000000000001 0 23.8000000000001 0C12.6000000000001 4.7999999999998 4.6000000000001 12.7999999999998 -0.1999999999999 23.9999999999999C-0.1999999999999 74.5999999999999 -0.1999999999999 125.3999999999999 -0.1999999999999 175.9999999999999C5.2 182.9999999999999 9.8000000000001 190.8 16.0000000000001 196.9999999999999C143.8000000000001 324.9999999999999 271.8000000000001 452.9999999999999 399.8000000000001 580.8C404.0000000000001 584.9999999999999 406.4000000000001 588.3999999999999 404.0000000000001 595.1999999999998C383.4000000000001 650.3999999999999 377.4000000000001 707.3999999999999 390.2000000000001 764.9999999999999C418.0000000000001 890.9999999999999 494.4000000000001 973.3999999999997 617.6000000000001 1011.6C637.6 1018 659.2 1020 680 1024zM767.8 864C714.8 864 672 820.8 672 768C672 715.2 715.4 672.2 768.2 672.2C820.8 672.2 864 715.8 864 768.4C863.8 821.2 820.8 864 767.8 864z" />
    <glyph glyph-name="list"
      unicode="&#xE02C;"
      horiz-adv-x="1024" d=" M0 1024H256V768H0zM384 960H1024V832H384zM0 640H256V384H0zM384 576H1024V448H384zM0 256H256V0H0zM384 192H1024V64H384z" />
    <glyph glyph-name="location"
      unicode="&#xE02D;"
      horiz-adv-x="640" d=" M320 1024C143.264 1024 0 880.736 0 704C0 384 320 0 320 0S640 384 640 704C640 880.736 496.736 1024 320 1024zM320 512C213.952 512 128 597.952 128 704S213.952 896 320 896S512 810.048 512 704S426.048 512 320 512z" />
    <glyph glyph-name="lock"
      unicode="&#xE02E;"
      horiz-adv-x="836.2734257425742" d=" M232.2553663366337 559.3270495049505H603.9775049504951V698.7532673267326C603.9775049504951 750.0546534653465 585.8496633663367 793.8534653465347 549.5128712871287 830.1497029702971C513.2166336633663 866.4459405940595 469.4178217821783 884.6143366336634 418.1164356435644 884.6143366336634S323.0162376237624 866.4459405940594 286.7200000000001 830.1497029702971C250.4237623762376 793.8129108910891 232.2959207920792 750.014099009901 232.2959207920792 698.7532673267326L232.2553663366337 559.3270495049505L232.2553663366337 559.3270495049505zM836.2734257425742 489.6139405940594V71.416396039604C836.2734257425742 52.0719207920793 829.5008316831683 35.6068118811883 815.9150891089109 22.0210693069308C802.369900990099 8.4758811881189 785.9047920792079 1.6627326732674 766.5197623762376 1.6627326732674H69.5914455445545C50.2469702970297 1.6627326732674 33.7818613861386 8.4353267326735 20.1961188118812 22.0210693069308C6.6509306930693 35.5662574257426 -0.1622178217822 52.0313663366337 -0.1622178217822 71.416396039604V489.6139405940594C-0.1622178217822 508.9584158415842 6.6103762376238 525.4235247524753 20.1961188118812 539.0092673267327S50.2064158415842 559.3676039603961 69.5914455445545 559.3676039603961H92.8291485148515V698.7532673267326C92.8291485148515 787.8108514851485 124.7860594059406 864.2965544554455 188.6593267326732 928.1698217821782S329.018297029703 1024 418.0758811881188 1024S583.5786138613862 992.0836435643564 647.4924356435644 928.1698217821782C711.3657029702971 864.256 743.3226138613861 787.8108514851485 743.3226138613861 698.7532673267326V559.3676039603961H766.5603168316832C785.9047920792079 559.3676039603961 802.369900990099 552.5950099009901 815.9556435643565 539.0092673267327C829.5008316831684 525.4235247524753 836.3139801980199 508.9584158415842 836.2734257425742 489.6139405940594L836.2734257425742 489.6139405940594L836.2734257425742 489.6139405940594z" />
    <glyph glyph-name="mobile"
      unicode="&#xE02F;"
      horiz-adv-x="1024" d=" M736 1024L288 1024C235.1957333333334 1024 192 980.8042666666666 192 928L192 96C192 43.1957333333334 235.1957333333334 0 288 0L736 0C788.8042666666666 0 832 43.1957333333334 832 96L832 928C832 980.8042666666666 788.8042666666666 1024 736 1024zM384 975.9914666666666L640 975.9914666666666L640 943.9914666666666L384 943.9914666666666L384 975.9914666666666zM512 64C476.6549333333333 64 448 92.6549333333334 448 128S476.6549333333333 192 512 192S576 163.3450666666667 576 128S547.3450666666666 64 512 64zM768 256L256 256L256 896L768 896L768 256z" />
    <glyph glyph-name="namely-inverted"
      unicode="&#xE030;"
      horiz-adv-x="1024" d=" M870.4000000000001 1024H153.6C68.7616 1024 0 955.2384 0 870.4V153.5999999999999C0 68.7615999999999 68.7616 0 153.6 0H870.4000000000001C955.2384 0 1024 68.7615999999999 1024 153.5999999999999V870.4C1024 955.2384 955.2384 1024 870.4000000000001 1024zM730.8288 377.1904C717.8240000000001 350.4128000000001 699.6992 328.9088000000001 676.0448 312.7808C652.4416 296.5504000000001 625.8688 288.5120000000001 596.2751999999999 288.5120000000001C575.8976 288.5120000000001 556.544 292.4032000000001 538.0096 300.3392C519.6288 308.1216 509.184 315.136 495.3088 329.0624000000001C491.264 333.0048000000001 485.5808 338.7392 482.0992000000001 343.0912L393.3696 156.2624L128 279.552L293.4784 647.5264C305.5104000000001 674.3040000000001 323.7376000000001 695.6032 348.2624000000001 711.3216C372.7872000000001 727.04 399.7184000000001 734.9248 429.4656 734.9248C449.6384000000001 734.9248 468.9408000000001 730.9312 486.8608 723.0976C504.9856 715.2128 514.6624 710.2464 528.5376 696.32C532.3776 692.5312000000001 539.392 684.4416000000001 542.8224 680.3456000000001L631.7056000000001 867.7888L896 744.96L730.8288 377.1904z" />
    <glyph glyph-name="namely"
      unicode="&#xE031;"
      horiz-adv-x="1024" d=" M732.1600000000001 378.88C716.8000000000001 353.28 701.44 332.8 675.8400000000001 312.32C650.2400000000001 296.9599999999999 624.6400000000001 286.7199999999999 593.9200000000001 286.7199999999999C573.44 286.7199999999999 552.96 291.8399999999999 537.6000000000001 296.9599999999999C517.1200000000001 307.1999999999998 506.8800000000001 312.32 496.6400000000001 327.6799999999999C491.5200000000001 332.7999999999999 486.4000000000001 337.9199999999999 481.28 343.04L394.24 158.7199999999998L128 281.5999999999999L291.8400000000001 650.2399999999999C307.2000000000001 675.8399999999999 322.56 696.3199999999999 348.1600000000001 711.6800000000001C373.76 727.04 399.36 737.28 430.0800000000001 737.28C450.5600000000001 737.28 471.0400000000001 732.1600000000001 486.4 727.04C506.8800000000001 716.8 512 711.6800000000001 527.36 701.44C532.48 696.3199999999999 537.6 691.2 542.7200000000001 686.0799999999999L629.7600000000001 875.52L896 752.6400000000001L732.1600000000001 378.88z" />
    <glyph glyph-name="paperclip"
      unicode="&#xE032;"
      horiz-adv-x="1806.0519539191325" d=" M1292.0858369098714 583.4741359837361L1292.0858369098714 730.23898802801L557.9146148633387 730.3546419697311C436.2466681725776 730.3546419697311 337.5938558843463 631.7018296814998 337.7095098260674 510.1495369324598C337.7095098260674 388.5972441834198 436.3623221142987 289.9444318951886 558.0302688050599 289.8287779534674L1439.0819968375877 289.7131240117461C1641.8233566749493 289.597470070025 1806.167607860854 454.0573751976508 1806.167607860854 656.7987350350124C1806.167607860854 859.5400948723741 1641.8233566749493 1023.8843460582787 1439.0819968375877 1023.8843460582787L513.9661170092616 1023.8843460582787C513.272193358934 1023.8843460582787 512.5782697086064 1023.8843460582787 512.0000000000002 1023.8843460582787C229.2261124915295 1023.8843460582787 3e-13 794.6582335667495 0.1156539417215 511.9999999999999C0.1156539417215 229.3417664332506 229.3417664332508 1e-13 512.1156539417215 1e-13C512.809577592049 1e-13 513.3878473006552 0.115653941721 514.0817709509828 1e-13V-0.1156539417213L1145.5522927490401 -0.1156539417213L1145.4366388073188 146.7648520442738L514.0817709509828 146.880505985995C513.5035012423764 146.880505985995 512.809577592049 146.880505985995 512.2313078834427 146.880505985995C310.8777953467361 146.880505985995 147.1118138694377 310.6464874632934 146.9961599277165 512.1156539417211C146.9961599277165 713.4691664784277 310.7621414050149 877.2351479557261 512.1156539417215 877.2351479557261C512.809577592049 877.2351479557261 513.5035012423766 877.2351479557261 514.0817709509828 877.1194940140049L514.0817709509828 877.2351479557261L1439.1976507793092 877.1194940140049C1560.634289586628 877.1194940140049 1659.518409758302 778.3510277840525 1659.518409758302 656.7987350350124C1659.518409758302 535.3620962276937 1560.634289586628 436.5936299977411 1439.3133047210306 436.5936299977411L558.2615766885027 436.7092839394624C517.7826970860632 436.7092839394624 484.8213236955052 469.6706573300203 484.8213236955052 510.1495369324598C484.8213236955052 550.6284165348993 517.7826970860632 583.5897899254574 558.2615766885027 583.5897899254574L1292.0858369098714 583.4741359837361L1292.0858369098714 583.4741359837361z" />
    <glyph glyph-name="pencil"
      unicode="&#xE033;"
      horiz-adv-x="1024" d=" M0 253.1328L593.3568 846.4896L848.0768 593.3568L254.72 0H0V253.1328zM169.2672 169.2672V83.8144H219.904L321.1776 186.6752L186.6752 321.1776L85.4016 218.3168V169.2672L169.2672 169.2672L169.2672 169.2672zM297.472 381.3376L607.5904 691.456C613.888 697.7536 616.0384 704.9216 613.9392000000001 712.8063999999999C611.84 720.7424000000001 607.3856000000001 725.1967999999999 600.4736000000001 726.2719999999999C593.6128000000001 727.296 586.4960000000001 725.1967999999999 579.1232000000001 719.9232L269.0048000000001 409.8048C259.5328000000001 400.3328 259.5328000000001 390.8096000000001 269.0048000000001 381.2864C278.4768000000001 371.7631999999999 288 371.7631999999999 297.472 381.3376L297.472 381.3376zM650.3424 903.4752L731.0336000000001 984.1664C747.9296 1001.0624 767.9488000000001 1009.5104 791.1424000000001 1009.5104C814.336 1009.5104 834.4064000000001 1001.0624 851.2512000000002 984.1664L985.7536 851.2511999999999C1002.6496 834.3552 1011.0976 814.336 1011.0976 791.1424S1002.6496000000002 747.8784 985.7536 731.0336L905.0624 648.704L650.3424 903.4752z" />
    <glyph glyph-name="people"
      unicode="&#xE034;"
      horiz-adv-x="1112.620198837399" d=" M797.3592654968219 241.9392622371924C776.3863747487369 245.2214918237627 775.8856956592601 302.410170044005 775.8856956592601 302.410170044005S837.524854674852 362.8810778508177 850.9875590807845 444.2692453957734C887.0920845330581 444.2692453957734 909.400119519748 530.7754658553811 873.2955940674743 561.205628293584C874.7976313359048 592.7484109306242 917.8004020209702 805.3701309284512 702.0633454663987 811.9902211115337L702.0077144564568 812.6021622208942C700.2275221383169 812.6021622208942 698.8367468897702 812.3240071711849 697.1121855815722 812.268376161243C695.3876242733743 812.268376161243 693.9968490248276 812.6021622208942 692.2166567066878 812.6021622208942L692.2166567066878 811.9902211115336C476.4239691421742 805.425761938393 519.4267398272397 592.7484109306242 520.9287770956702 561.2056282935839C484.8242516433965 530.7754658553811 507.1322866300865 444.2692453957733 543.23681208236 444.2692453957733C556.6438854783506 362.9367088607595 618.3386755038844 302.410170044005 618.3386755038844 302.410170044005S617.8379964144076 245.2214918237627 596.8651056663226 241.9392622371924C366.6639865268649 173.7912750584018 315.6503504101701 188.9785407725323 281.3260172760364 22.1967729668062C279.8796110175478 15.1316347041887 287.0003802901071 -0.0556310099416 302.3545390340632 -0.0556310099416H707.0145053512251H784.063454120715H1085.5278969957083C1100.8264247297225 -0.0556310099416 1114.4003911555387 15.1316347041887 1112.95398489705 22.1967729668062C1078.5740207529745 188.9785407725323 1027.5047536263378 173.7912750584018 797.3592654968219 241.9392622371924z M528.4389634378226 294.5105666322595C506.7985005704352 325.7195632096486 482.3208561960124 370.3912641929701 473.7536806649644 422.2949964687348C429.471396751236 422.2949964687348 402.100939859836 528.3277014179389 446.3832237735645 565.6561090889336C444.7142934753084 600.9261693920791 401.4333677405336 820.7799206823491 594.9736513282991 865.0622045960777C588.7429782148096 935.435432172543 554.7524311403271 1019.271364154941 420.5704351605367 1023.3880588906394L420.459173140653 1024C418.7346118324551 1024 417.3438365839083 1023.7218449502906 415.5636442657685 1023.7218449502906C413.8390829575705 1023.7218449502906 412.4483077090237 1024 410.7237464008258 1024L410.7237464008258 1023.3880588906394C194.9310588363123 1016.8235997174988 237.9338295213778 804.0906176997881 239.4358667898083 772.5478350627479C203.2757103275928 742.173303634487 225.6393763242245 655.667083174879 261.7439017764981 655.667083174879C275.1509751724887 574.3345466398653 336.8457651980225 513.8080078231108 336.8457651980225 513.8080078231108S336.3450861085456 456.6193296028684 315.3721953604607 453.3371000162982C85.1710762210029 385.1891128375076 34.1574401043081 400.3763785516381 -0.1668930298256 233.594610745912C-1.6132992883142 226.5294724832944 5.5074699842451 211.342206769164 20.8616287282012 211.342206769164H336.4563481284294C438.7061444015864 272.3137936654535 502.8486988645624 271.4236975063835 517.590916499158 281.2703862660944C522.263921334275 284.3857228228392 525.7686749606129 289.16998967784 528.4389634378226 294.5105666322595z" />
    <glyph glyph-name="person-add"
      unicode="&#xE035;"
      horiz-adv-x="1300.6477835640796" d=" M654.0307379651975 304.8718404674204C627.5625555696685 309.0339133748254 626.9772640670647 381.1548329734536 626.9772640670647 381.1548329734536S704.6909691350183 457.3727930903087 721.5993903213514 559.8638384351582C767.1220627460941 559.8638384351582 795.2160548710783 668.8581226978281 749.6933824463356 707.1621999237902C751.5793217325034 746.8969897116729 805.7513019179474 1014.8304331258732 533.9809475422329 1023.2196113298616L533.8508827638765 1024C531.6397815318177 1024 529.883907024006 1023.674838054109 527.7378381811253 1023.6098056649308C525.5267369490664 1023.674838054109 523.770862441255 1024 521.5597612091959 1024L521.5597612091959 1023.2196113298616C249.6593420551251 1014.9604979042296 303.831322240569 746.8969897116729 305.717261526737 707.1621999237902C260.1945891019941 668.7930903086499 288.2885812269783 559.8638384351582 333.8112536517211 559.8638384351582C350.7196748380541 457.3727930903086 428.4333799060079 381.1548329734535 428.4333799060079 381.1548329734535S427.7830560142259 309.0989457640035 401.379906007875 304.9368728565984C111.3354502730852 219.029086752191 47.0184173758415 238.2136415597611 3.7718785723358 28.0289597358059C1.9509716753461 19.1195224183919 10.9254413819383 0 30.2400609678648 0H540.1590245141623H637.2523815572208H1017.1065667471104C1036.421186333037 0 1053.5247046869044 19.1195224183921 1051.703797789915 28.0289597358059C1008.392226597231 238.1486091705831 944.0751936999872 219.0290867521911 654.0307379651975 304.8718404674204z M1126.6211101232059 295.7022735932937C1120.573097929633 289.6542613997207 1113.2894703416741 286.6627714975233 1104.900292137686 286.6627714975233L1043.3796519751047 286.6627714975233C1034.9254413819383 286.6627714975233 1027.7068461831577 289.7192937888989 1021.6588339895847 295.7022735932937C1015.6108217960116 301.7502857868666 1012.5542995046362 308.9688809856473 1012.5542995046362 317.4230915788137V450.479359837419H879.4980312460308C871.0438206528642 450.479359837419 863.8252254540836 453.4708497396164 857.7772132605106 459.5188619331893S848.7377111647403 472.785469325543 848.7377111647403 481.2396799187094L848.7377111647403 542.7603200812904C848.7377111647403 551.2145306744569 851.7292010669377 558.4331258732375 857.7772132605106 564.4811380668104C863.8252254540836 570.5291502603834 871.0438206528643 573.5206401625808 879.4980312460308 573.5206401625808H1012.5542995046362V706.5769084211863C1012.5542995046362 715.0311190143528 1015.5457894068334 722.2497142131335 1021.5938016004064 728.2977264067065S1034.86040899276 737.3372285024768 1043.3146195859265 737.3372285024768L1104.8352597485075 737.3372285024768C1113.289470341674 737.3372285024768 1120.5080655404547 734.3457386002794 1126.5560777340277 728.2977264067065C1132.6040899276006 722.2497142131335 1135.595579829798 715.0311190143528 1135.595579829798 706.5769084211863V573.520640162581H1268.6518480884033C1277.1060586815697 573.520640162581 1284.3246538803505 570.4641178712054 1290.3726660739235 564.4161056776325C1296.355645878318 558.4331258732377 1299.4121681696938 551.1494982852789 1299.4121681696938 542.6952876921124L1299.4121681696938 481.1746475295314C1299.3471357805154 472.7204369363648 1296.4206782674964 465.5018417375842 1290.3726660739235 459.4538295440112C1284.3246538803505 453.4058173504383 1277.0410262923917 450.4143274482409 1268.6518480884033 450.4143274482409H1135.595579829798V317.3580591896356C1135.595579829798 308.9688809856473 1132.6040899276006 301.7502857868666 1126.6211101232059 295.7022735932937z" />
    <glyph glyph-name="person"
      unicode="&#xE036;"
      horiz-adv-x="1024" d=" M625.0496 322.1504C599.8592000000001 326.0927999999999 599.2448 394.8032 599.2448 394.8032S673.3312000000001 467.456 689.4592000000001 565.1967999999999C732.8768000000001 565.1967999999999 759.6544000000001 669.0816 716.2880000000001 705.6384C718.0800000000002 743.5264 769.7408000000001 998.9632 510.6176000000002 1006.9504L510.5152 1007.7696C508.416 1007.7696 506.7264 1007.4112 504.6272 1007.4112C502.5792000000001 1007.4112 500.8896 1007.7696 498.7904000000001 1007.7696L498.7904000000001 1007.0528C239.5648 999.1168 291.2256 743.5776 293.0176 705.6895999999999C249.6512 669.1328 276.4288 565.2479999999999 319.8464 565.2479999999999C335.9744000000001 467.5071999999999 410.0608000000001 394.8544 410.0608000000001 394.8544S409.4464000000001 326.1439999999999 384.2560000000001 322.2015999999999C107.7248000000001 240.3327999999999 46.4384000000001 258.56 5.1712 58.2144C3.4304 49.7152 12.032 31.4880000000001 30.4128000000001 31.4880000000001H516.5568000000001H609.0752000000001H971.2128000000002C989.5936000000002 31.4880000000001 1005.9264000000002 49.7152000000001 1004.1856 58.2144C962.9184 258.56 901.5808000000002 240.2815999999999 625.0496 322.1504z" />
    <glyph glyph-name="phone"
      unicode="&#xE037;"
      horiz-adv-x="1024" d=" M762.5704186046511 400.0744186046512C693.2241860465116 330.7281860465117 693.2241860465116 261.4295813953489 623.9255813953488 261.4295813953489S485.2807441860465 330.7758139534884 415.934511627907 400.0744186046512S277.2896744186047 538.7192558139535 277.2896744186047 608.065488372093S346.6359069767442 677.4117209302325 415.934511627907 746.7103255813953S277.2896744186047 1024 207.9910697674419 1024S0 816.0089302325581 0 816.0089302325581C0 677.3640930232558 142.4550697674419 396.2641860465117 277.2896744186047 261.4295813953489C412.1719069767442 126.5473488372094 693.2241860465116 -15.8600930232558 831.869023255814 -15.8600930232558C831.869023255814 -15.8600930232558 1039.8600930232558 122.7847441860466 1039.8600930232558 192.1309767441862S831.9166511627906 469.4206511627907 762.5704186046511 400.0744186046512z" />
    <glyph glyph-name="pin"
      unicode="&#xE038;"
      horiz-adv-x="1024" d=" M543.6928 1020.1088L448.6144000000001 925.0304L543.6928 829.952L321.8432 576.3584H99.9424L274.2784 402.0224L4.864 44.8V5.7855999999999H43.8784L401.1008 275.2L575.4368 100.8639999999999V322.7647999999999L829.0304000000001 544.6655999999998L924.1088 449.5872L1019.1872 544.6655999999998L543.6928 1020.1088zM448.6144000000001 481.28L385.2288000000001 544.6656L607.1296000000001 766.5663999999999L670.5152 703.1808L448.6144000000001 481.28z" />
    <glyph glyph-name="plane"
      unicode="&#xE039;"
      horiz-adv-x="1023.9616928011143" d=" M756.9348501027692 393.2545997965858L576.7507142294166 573.4387356699383L1009.2464668036924 897.8441916495385L883.0738376787841 1024L342.4541469609396 807.7184821639687L172.2447303344968 977.9447195648582C123.1953520478374 1026.9940978515176 54.6675169518667 1038.7518191897807 19.9830800427131 1004.067382280627C-14.7181776408872 969.3661245970268 -2.9604563026242 900.8551102755029 46.105742758482 851.7889112143966L216.298338610478 681.5963153624007L0 140.9093415467693L126.1389875760148 14.7535331963077L450.5949058789552 447.2997480939236L630.7790417523076 267.0987914461243L630.7790417523076 14.8039955196479L756.9348501027692 14.8039955196479L819.9959335035533 204.0208872708935L1009.2128252547988 267.0987914461243L1009.2128252547988 393.2545997965858L756.9348501027692 393.2545997965858L756.9348501027692 393.2545997965858z" />
    <glyph glyph-name="print"
      unicode="&#xE03A;"
      horiz-adv-x="1170.2857142857144" d=" M292.5714285714286 1024H877.7142857142858V877.7142857142857H292.5714285714286V1024zM1097.1428571428573 804.5714285714286H73.1428571428572C32.9240380952381 804.5714285714286 0 771.6473904761905 0 731.4285714285713V365.7142857142857C0 325.4759619047618 32.9045333333333 292.5714285714286 73.1428571428572 292.5714285714286H292.5714285714286V0H877.7142857142858V292.5714285714286H1097.1428571428573C1137.381180952381 292.5714285714286 1170.2857142857144 325.4954666666667 1170.2857142857144 365.7142857142857V731.4285714285713C1170.2857142857144 771.6473904761905 1137.3616761904761 804.5714285714286 1097.1428571428573 804.5714285714286zM804.5714285714287 73.1428571428571H365.7142857142857V438.8571428571428H804.5714285714287V73.1428571428571zM1113.6048761904763 694.8571428571429C1113.6048761904763 665.5804952380952 1089.867580952381 641.8236952380952 1060.5714285714287 641.8236952380952C1031.2947809523812 641.8236952380952 1007.537980952381 665.5609904761905 1007.537980952381 694.8571428571429S1031.2752761904762 747.8905904761905 1060.5714285714287 747.8905904761905C1089.867580952381 747.8905904761905 1113.6048761904763 724.1337904761905 1113.6048761904763 694.8571428571429z" />
    <glyph glyph-name="search"
      unicode="&#xE03B;"
      horiz-adv-x="1024" d=" M992.231024390244 152.6509268292683L749.6679024390245 358.9494634146341C724.5923902439025 381.5274146341464 697.7685853658537 391.8673170731708 676.1397073170733 390.8682926829267C733.3838048780489 457.9527804878048 768.0000000000001 544.9178536585365 768.0000000000001 640.0249756097561C767.9500487804878 852.0679024390244 596.0679024390244 1024 383.9750243902439 1024C171.9320975609756 1024 0 852.0679024390244 0 640.0249756097561S171.9320975609756 256.0499512195122 383.9750243902439 256.0499512195122C479.0821463414635 256.0499512195122 566.0971707317074 290.6161951219512 633.1317073170733 347.910243902439C632.1326829268294 326.2314146341463 642.4725853658537 299.4575609756097 665.0505365853659 274.3820487804878L871.3490731707317 31.8189268292683C906.6645853658536 -7.4427317073171 964.358243902439 -10.739512195122 999.5738536585366 24.4760975609756C1034.7894634146342 59.5918048780488 1031.4926829268293 117.3354146341463 992.231024390244 152.6509268292683zM383.9750243902439 384.0249756097561C242.6130731707317 384.0249756097561 127.9750243902439 498.6130731707317 127.9750243902439 640.0249756097561S242.5631219512195 896.0249756097561 383.9750243902439 896.0249756097561S639.975024390244 781.4368780487805 639.975024390244 640.0249756097561S525.3869268292683 384.0249756097561 383.9750243902439 384.0249756097561z" />
    <glyph glyph-name="settings"
      unicode="&#xE03C;"
      horiz-adv-x="1024" d=" M677.8368 515.328V416.6144000000001C677.8368 413.0304 676.5568000000001 409.5999999999999 674.0992000000001 406.2208000000001C671.5904 402.8416 668.7744000000001 400.9472000000001 665.5488 400.64L582.8608 387.8400000000001C578.9184 375.3472000000001 573.2352 361.8816000000001 565.8112 347.2896000000001C577.8944 330.24 593.8688000000001 309.76 613.8368 285.952C616.2944000000001 282.368 617.5744000000001 278.8352 617.5744000000001 275.3024000000001C617.5744000000001 271.0528 616.2944000000001 267.6224 613.8368 265.1648C605.6448 254.5152 590.9504000000001 238.5408 569.8048000000001 217.3951999999999C548.6080000000001 196.1984 534.6816000000001 185.6512 527.9232000000001 185.6512C523.9808000000002 185.6512 520.2432000000001 186.8800000000001 516.7104000000002 189.3888000000001L455.3728000000001 237.4144000000001C442.2144000000002 230.6560000000001 428.4928000000001 225.1264000000001 414.3104000000002 220.8768C410.3680000000002 182.4767999999999 406.3232000000002 154.8800000000001 402.0224000000001 138.1888C399.5136000000001 129.6383999999999 394.1888000000002 125.3888000000001 385.9968000000001 125.3888000000001H286.7712C282.8288 125.3888000000001 279.296 126.72 276.1216 129.3824C272.896 132.0448 271.104 135.168 270.7968 138.7008L258.5088 220.3136C246.4256 223.8463999999999 233.0624 229.3759999999999 218.4704 236.8512L155.4944 189.3887999999998C152.9856 186.8799999999999 149.4016 185.6511999999998 144.8448 185.6511999999998C140.9024 185.6511999999998 137.1648 187.0335999999999 133.632 189.9007999999998C82.432 237.1583999999998 56.7808 265.6767999999998 56.7808 275.2511999999997C56.7808 278.4767999999998 58.0096 281.8047999999998 60.5184 285.3887999999997C64.0512 290.3551999999998 71.3728 299.7759999999999 82.3808 313.6511999999998C93.3888 327.5263999999998 101.7344 338.3807999999998 107.4688 346.2143999999998C99.2768 361.8303999999997 93.0816 376.4223999999997 88.7808 389.9391999999997L7.68 402.7391999999997C4.096 403.0975999999996 1.0752 404.7871999999997 -1.3824 407.8079999999997C-3.8912 410.8287999999997 -5.12 414.2591999999996 -5.12 418.2015999999997V516.9151999999999C-5.12 520.4480000000001 -3.8912 523.9295999999999 -1.3824 527.3088C1.1264 530.688 3.9936 532.5311999999999 7.168 532.8896L89.856 545.6895999999999C93.7984 558.1312 99.4816 571.6479999999999 106.9568 586.24C94.8736 603.3408 78.848 623.7696 58.9312 647.6288C56.4224 651.52 55.1936 655.104 55.1936 658.2783999999999C55.1936 662.528 56.4224 666.0608 58.9312 668.928C66.7136 679.5776000000001 81.3568 695.3984 102.656 716.3904C124.0064 737.3824 138.0352 747.8784 144.7936 747.8784C148.6848 747.8784 152.4224 746.5984000000001 156.0064 744.1408L217.344 696.1152C229.4784 702.5663999999999 243.1488 708.2496 258.4576 713.2159999999999C262.3488 751.616 266.4448 779.008 270.7456 795.392C273.2032000000001 803.9424 278.528 808.192 286.7712 808.192H385.9968C389.888 808.192 393.472 806.8608 396.6464000000001 804.1984C399.872 801.5360000000001 401.6128000000001 798.4128000000001 401.9712 794.88L414.2592 713.2672C426.3424 709.6831999999999 439.6544 704.2048 454.2976 696.7295999999999L517.2736 744.192C520.0896 746.6496 523.6736 747.9295999999999 527.9232000000001 747.9295999999999C531.8144000000001 747.9295999999999 535.552 746.4960000000001 539.136 743.6800000000001C590.336 696.3712 615.9872 667.904 615.9872 658.3296C615.9872 655.104 614.7072 651.7248 612.2496 648.192C607.9999999999999 642.5088000000001 600.5248 632.8832 589.824 619.3664C579.1743999999999 605.8496 571.1359999999999 595.1487999999999 565.8112 587.3664000000001C574.0032 570.3168000000001 579.9935999999999 555.6736000000001 583.9359999999999 543.6416000000002L665.0367999999999 531.3536000000001C668.5695999999999 530.6368000000001 671.5903999999999 528.7424000000001 674.0991999999999 525.7728000000001C676.5568000000001 522.7008 677.8368 519.2192 677.8368 515.328zM432.9472 370.176C459.6224 396.8512000000001 472.9856 429.0048000000001 472.9856 466.7392C472.9856 504.4224 459.6224 536.6271999999999 432.9472 563.3023999999999C406.272 589.9775999999999 374.0672 603.3408 336.384 603.3408C298.6496 603.3408 266.4960000000001 589.9776 239.8208 563.3024C213.1456 536.6271999999999 199.7824 504.4224 199.7824 466.7392000000001C199.7824 429.0048000000001 213.1456 396.8512000000001 239.8208 370.1760000000001C266.4960000000001 343.5008000000001 298.6496 330.1376 336.384 330.1376C374.0672 330.1887999999999 406.272 343.5007999999999 432.9472 370.176zM1019.2384 777.2672V702.5663999999999C1019.2384 696.8832 992.7168 691.3535999999999 939.7248 686.0287999999999C935.4752 676.4032 930.0992000000002 667.136 923.6992 658.2783999999999C941.824 618.0863999999999 950.8864 593.5103999999999 950.8864 584.6527999999998C950.8864 583.2191999999999 950.1696 581.9903999999999 948.7359999999998 580.9151999999999C905.3184 555.6224 883.3024 543.0271999999999 882.5855999999999 543.0271999999999C879.7183999999997 543.0271999999999 871.5263999999997 551.3727999999999 858.0607999999999 568.1152C844.5439999999999 584.8063999999999 835.2767999999999 596.9407999999999 830.3103999999998 604.4159999999999C823.1935999999998 603.6991999999999 817.8175999999999 603.3407999999998 814.2847999999998 603.3407999999998C810.7007999999997 603.3407999999998 805.3759999999997 603.6991999999998 798.2591999999997 604.4159999999999C793.2415999999997 596.9407999999999 784.0255999999997 584.8575999999998 770.5087999999997 568.1152C756.9919999999997 551.3727999999999 748.7999999999997 543.0271999999999 745.9839999999998 543.0271999999999C745.2671999999998 543.0271999999999 723.1999999999998 555.6224 679.8335999999998 580.9151999999999C678.3999999999997 581.9903999999999 677.6831999999998 583.2191999999999 677.6831999999998 584.6527999999998C677.6831999999998 593.5103999999999 686.7455999999997 618.0863999999999 704.8703999999998 658.2783999999999C698.4703999999998 667.136 693.1455999999998 676.4032 688.8447999999999 686.0287999999998C635.8015999999998 691.3535999999999 609.3311999999999 696.8831999999999 609.3311999999999 702.5663999999999V777.2672C609.3311999999999 782.9504 635.8015999999998 788.48 688.8447999999999 793.8048C693.4527999999999 804.096 698.7775999999999 813.3632 704.8703999999999 821.5552C686.7456 861.7472 677.6831999999999 886.272 677.6831999999999 895.1808C677.6831999999999 896.5632 678.3999999999999 897.8432 679.8335999999999 898.9184C681.2159999999999 899.6351999999999 687.4623999999999 903.168 698.5215999999999 909.568C709.5295999999998 915.968 720.0255999999999 922.0096 730.0095999999999 927.6928C739.9423999999999 933.376 745.2671999999999 936.2432 746.0351999999999 936.2432C748.8512 936.2432 757.0432 927.9488 770.56 911.4112C784.0767999999998 894.8736 793.2927999999999 882.8928 798.3103999999998 875.4176C805.4271999999999 876.1344 810.752 876.4928 814.3359999999999 876.4928C817.8688 876.4928 823.1935999999998 876.1344 830.3615999999998 875.4176C848.4863999999998 900.6592 864.8191999999999 920.576 879.4623999999999 935.168L882.6879999999998 936.2432C884.0703999999998 936.2432 906.1375999999996 923.7504 948.8383999999998 898.9184C950.2208 897.8432 950.9888 896.5632 950.9888 895.1808C950.9888 886.272 941.9264 861.7472 923.8016 821.5552C929.8432 813.3632 935.1680000000002 804.096 939.8272 793.8048C992.768 788.48 1019.2384 782.9504 1019.2384 777.2672zM882.688 739.8912C882.688 758.3743999999999 875.9295999999999 774.3488 862.4128 787.9168C848.896 801.4336 832.8703999999998 808.192 814.3871999999999 808.192C795.9039999999999 808.192 779.8783999999999 801.4336 766.3615999999998 787.9168C752.8447999999999 774.4 746.0863999999998 758.3743999999999 746.0863999999998 739.8912C746.0863999999998 720.9984 752.7423999999999 704.9215999999999 766.1055999999999 691.6096C779.4687999999998 678.2464 795.4943999999998 671.5904 814.3871999999998 671.5904C833.2287999999998 671.5904 849.3567999999998 678.2464 862.6687999999999 691.6096C876.032 704.9728 882.688 721.0496 882.688 739.8912z" />
    <glyph glyph-name="social-fb"
      unicode="&#xE03D;"
      horiz-adv-x="478.53377873061777" d=" M319.8564092336841 -2e-13H127.9936181881638V512.025527247345H0V688.469860896445L127.9936181881638 688.5209153911353L127.7894002094032 792.4678665802463C127.7894002094032 936.4415416064218 166.8460886473551 1024 336.3980655132873 1024H477.5637433315054V847.5046118562099H389.3415765069553C323.3281148726132 847.5046118562099 320.1116817071347 822.8452909208755 320.1116817071347 776.7941367103754L319.8564092336841 688.469860896445H478.5337787306178L459.8478336740291 512.025527247345L320.0095727177545 511.9744727526548L319.8564092336841 -2e-13z" />
    <glyph glyph-name="social-google"
      unicode="&#xE03E;"
      horiz-adv-x="661.7167225098995" d=" M661.7167225098995 1024C661.7167225098995 1024 423.8854706061529 1024 344.6083866382374 1024C202.3775002538329 1024 68.6201644837039 916.2871357498223 68.6201644837039 791.523200324906C68.6201644837039 664.0040613260229 165.5201543303889 561.1257995735607 310.1943344501981 561.1257995735607C320.227434257285 561.1257995735607 330.0006091989035 561.3337394659357 339.6178292212408 562.0095441161538C330.2085490912783 544.0227434257285 323.5024875621891 523.8005888922733 323.5024875621891 502.7986597624124C323.5024875621891 467.3449081124987 342.5809726875825 438.6492029647681 366.6500152299726 415.2039800995025C348.4552746471724 415.2039800995025 330.832368768403 414.6841303685653 311.6499136968221 414.6841303685653C135.5248248553153 414.6321453954717 0 302.5005584323282 0 186.2101736216876C0 71.6872778962331 148.5730531018378 0 324.6981419433445 0C525.4641080312722 0 636.3480556401665 113.8990760483297 636.3480556401665 228.4739567468778C636.3480556401665 320.3314042034724 609.2638846583409 375.331505736623 525.4641080312722 434.5943750634582C496.8203878566352 454.8685145700071 441.9762412427658 504.2542390090364 441.9762412427658 533.2618539953294C441.9762412427658 567.2600263986191 451.6974312112905 583.9991877347952 502.8506447355061 623.9756320438623C555.3034825870647 664.9397908417097 592.4207533759773 722.5911260026398 592.4207533759773 789.5997563204386C592.4207533759773 869.3966900192912 556.9150167529699 947.1142247943955 490.2182962737335 972.7948015026906H590.7572342369784L661.7167225098995 1024zM550.9367448471927 248.2282465224896C553.432023555691 237.6233120113717 554.8356178292213 226.6544826885979 554.8356178292213 215.5296984465429C554.8356178292213 122.9964463397299 495.20885369073 50.6333637932785 324.0743222662199 50.6333637932785C202.3775002538329 50.6333637932785 114.4709107523607 127.6750939181642 114.4709107523607 220.2603309980708C114.4709107523607 310.9741090466037 223.4833993298812 386.5082749517718 345.232206315362 385.1566656513352C373.6160016245305 384.8447558127729 400.1283379023251 380.270078180526 424.1453954716215 372.5243171895624C490.1663113006397 326.5696009747183 537.5766067621078 300.5771144278607 550.9367448471927 248.2282465224896zM356.0450807188547 593.4604528378516C274.3247030155346 595.9037465732562 196.7111381866179 684.8500355366027 182.5712255051274 792.095035028937C168.4832977967306 899.4440044674586 223.2754594375064 981.5282769824348 304.9438521677328 979.1369682201238C386.6122448979592 976.6936744847192 464.2777946999695 890.6065590415271 478.41770738146 783.3095745760991C492.5056350898569 675.9606051375774 437.7134734490811 591.0171591024468 356.0450807188547 593.4604528378516z" />
    <glyph glyph-name="social-googleplus"
      unicode="&#xE03F;"
      horiz-adv-x="1219.2194474235228" d=" M665.6705990500996 1027.0854399673153C665.6705990500996 1027.0854399673153 426.4182626015015 1027.0854399673153 346.6674837853021 1027.0854399673153C203.6390378428068 1027.0854399673153 69.0301823195955 918.7289719626168 69.0301823195955 793.2195495633522C69.0301823195955 664.9384607527705 166.509167049691 561.4454828660436 312.0478014401716 561.4454828660436C322.1408508247791 561.4454828660436 331.9724222460549 561.654665236709 341.6471068893315 562.3345079413716C332.1816046167203 544.240232878811 325.4354731627598 523.8972473315969 325.4354731627598 502.7698278943874C325.4354731627598 467.1042336959297 344.6279556713141 438.2370665440989 368.8408150758389 414.6517542515703C350.5373576426128 414.6517542515703 332.8091517287167 414.1287983249067 313.5120780348297 414.1287983249067C136.3869056738676 414.1287983249067 0 301.3272049435677 0 184.2896685562536C0 69.082477912262 149.4608038404576 -3.0331443746488 326.6382717940862 -3.0331443746488C528.6038506715694 -3.0331443746488 640.1503498289158 111.5464991573464 640.1503498289158 226.8059853940043C640.1503498289158 319.2122976354629 612.9043460497421 374.541034676472 528.6038506715694 434.1580103161228C499.7889791124049 454.5532914560033 444.6171288493949 504.2341044890454 444.6171288493949 533.4150451968744C444.6171288493949 567.6163628006741 454.3964046780042 584.455543639242 505.8552678617027 624.6708543996731C558.6215208620602 665.8797814207651 595.9605740258414 723.8755936877585 595.9605740258414 791.2846126346969C595.9605740258414 871.5583473775598 560.2426842347174 949.7402584137684 493.1474388437773 975.5742811909504H594.2871150605179L665.6705990500996 1027.0854399673153zM554.228691078086 246.6260150145549C556.7388795260713 235.9577141106173 558.1508605280629 224.9233440580155 558.1508605280629 213.7320872274144C558.1508605280629 120.645932281293 498.1678157397477 47.8504672897195 326.0107246820898 47.8504672897195C203.5867422501405 47.8504672897195 115.1548950513253 125.3525356212654 115.1548950513253 218.490986160053C115.1548950513253 309.7467953628517 224.8187528726827 385.7322915070731 347.2950308972985 384.3726060977479C375.8484244931311 384.0588325417497 402.5191767529749 379.45682038711 426.6797405648333 371.6647770798222C493.0951432511108 325.4354731627598 540.7887237628313 299.3399724222461 554.228691078086 246.6260150145549zM358.1725141719014 593.9210459118533C275.9638425003831 596.3789387671723 197.8865226495072 685.8566978193146 183.6621214442572 793.7948010826822C169.4900158316736 901.7329043460498 224.6095705020173 984.359940758899 306.7659465808692 981.90204790358S467.0519381032634 892.8426535927686 481.2763393085133 784.904550329401S440.3811858434197 591.4631530565343 358.1725141719014 593.9210459118533zM990.6354118788624 798.4491088299883V1027.0331443746488H914.4407333639754V798.4491088299883H685.8566978193147V722.2544303151014H914.4407333639754V493.6703947704407H990.6354118788624V722.2544303151014H1219.2194474235228V798.4491088299883H990.6354118788624z" />
    <glyph glyph-name="social-linkedin"
      unicode="&#xE040;"
      horiz-adv-x="1023.9999999999999" d=" M852.0200382172184 1024H171.9799617827816C77.369829055415 1024 0 946.5772865774932 0 852.0200382172184V172.0328461498735C0 77.4227134225068 77.4227134225069 0.052884367092 171.9799617827816 0.052884367092H851.9671538501265C946.5772865774932 0.052884367092 1023.947115632908 77.4755977895987 1023.947115632908 172.0328461498735V852.0200382172184C1023.9999999999998 946.5772865774932 946.630170944585 1024 852.0200382172184 1024zM383.9933894541135 191.9702525435108H256.013221091773V640.0066105458865H383.9933894541135V191.9702525435108zM320.0033052729433 703.9966947270568C284.6765480555699 703.9966947270568 256.013221091773 732.6600216908537 256.013221091773 767.986778908227S284.6765480555699 831.9768630893973 320.0033052729433 831.9768630893973S383.9933894541135 803.3135361256004 383.9933894541135 767.986778908227S355.3300624903166 703.9966947270568 320.0033052729433 703.9966947270568zM831.9768630893973 191.9702525435108H703.9966947270567V447.9834736352839C703.9966947270567 483.3102308526571 675.3333677632597 511.9735578164541 640.0066105458865 511.9735578164541S576.0165263647161 483.3102308526572 576.0165263647161 447.9834736352839V191.9702525435108H448.0363580023756V640.0066105458865H576.0165263647161V560.5214068067964C602.4058255435624 596.8000826318237 642.756597634664 640.0066105458866 688.0256158653101 640.0066105458866C767.5637039714919 640.0066105458866 832.0297474564892 568.4011775034861 832.0297474564892 480.0314000929609L831.9768630893973 191.9702525435108z" />
    <glyph glyph-name="social-tumblr"
      unicode="&#xE041;"
      horiz-adv-x="1024" d=" M853.376 1024H170.688C76.8 1024 0 947.2 0 853.312V170.688C0 76.736 76.8 0 170.688 0H853.376C947.232 0 1024 76.736 1024 170.688V853.312C1024 947.168 947.232 1024 853.376 1024zM731.712 199.328C701.568 185.1519999999999 674.1759999999999 175.136 649.696 169.376C625.216 163.68 598.72 160.832 570.3040000000001 160.832C537.984 160.832 518.9440000000001 164.896 494.1120000000001 173.024C469.3120000000001 181.216 448.0960000000001 192.896 430.6240000000001 207.904C413.0560000000001 223.04 400.9280000000001 239.1040000000001 394.1440000000001 256.096C387.3600000000001 273.088 384.0000000000001 297.7920000000001 384.0000000000001 330.112V577.92H288.0000000000001V677.9839999999999C315.7440000000001 686.9759999999999 347.9360000000001 699.904 367.6800000000001 716.7359999999999C387.5200000000001 733.5999999999999 403.3920000000001 753.7919999999999 415.3600000000001 777.4079999999999C427.3600000000001 800.9599999999999 435.6160000000001 831.04 440.1280000000001 867.4879999999999H540.6400000000001V704.0319999999999H704.0000000000001V577.92H540.6080000000002V396.736C540.6080000000002 355.7440000000001 540.0640000000002 332.096 544.4160000000002 320.48C548.7360000000002 308.928 559.5520000000001 296.928 571.3280000000002 289.9840000000001C586.9760000000002 280.6080000000001 604.8320000000002 275.9360000000001 624.9600000000002 275.9360000000001C660.7360000000001 275.9360000000001 696.3520000000001 287.552 731.7120000000001 310.8160000000001V199.3920000000001z" />
    <glyph glyph-name="social-twitter"
      unicode="&#xE042;"
      horiz-adv-x="1223.4390588235294" d=" M1201.9350588235295 878.4715294117649C1157.7223529411765 858.8348235294119 1110.1967058823527 845.5830588235297 1060.3218823529412 839.6197647058825C1111.220705882353 870.1590588235297 1150.313411764706 918.4677647058826 1168.7454117647058 976.0527058823532C1121.099294117647 947.8023529411767 1068.3331764705881 927.2621176470592 1012.1336470588234 916.2390588235298C967.137882352941 964.1863529411768 903.0475294117643 994.1232941176474 832.1505882352939 994.1232941176474C695.9585882352939 994.1232941176474 585.5472941176467 883.7120000000004 585.5472941176467 747.5200000000002C585.5472941176467 728.1844705882354 587.7157647058821 709.3910588235296 591.9322352941174 691.3204705882356C387.0117647058821 701.6207058823531 205.2818823529409 799.7440000000003 83.6668235294114 948.946823529412C62.4639999999996 912.5044705882356 50.2964705882349 870.1590588235297 50.2964705882349 824.9825882352944C50.2964705882349 739.4484705882355 93.8465882352938 663.9736470588236 159.9849411764702 619.7609411764709C119.5670588235291 621.0258823529416 81.5585882352938 632.1091764705884 48.3087058823526 650.6014117647062C48.3087058823526 649.5774117647063 48.3087058823526 648.5534117647063 48.3087058823526 647.5294117647063C48.3087058823526 528.0828235294122 133.3007058823527 428.3934117647065 246.1214117647055 405.7449411764711C225.4607058823526 400.0828235294122 203.6555294117644 397.07105882353 181.1275294117643 397.07105882353C165.2254117647055 397.07105882353 149.8051764705878 398.6371764705888 134.7463529411761 401.4682352941183C166.1289411764702 303.525647058824 257.2047058823526 232.2070588235302 365.0861176470583 230.2192941176477C280.6964705882348 164.0809411764713 174.3811764705877 124.68705882353 58.8498823529407 124.68705882353C38.9722352941171 124.68705882353 19.3355294117642 125.8315294117653 -5e-13 128.1204705882359C109.146352941176 58.1270588235301 238.7124705882348 17.347764705883 377.9764705882347 17.347764705883C831.548235294117 17.347764705883 1079.53694117647 393.0955294117654 1079.53694117647 718.968470588236C1079.53694117647 729.6301176470595 1079.2959999999996 740.291764705883 1078.814117647058 750.893176470589C1127.062588235294 785.588705882353 1168.8658823529413 829.0183529411765 1201.9350588235295 878.4715294117649z" />
    <glyph glyph-name="star"
      unicode="&#xE043;"
      horiz-adv-x="1024" d=" M1024 626.944L670.2080000000001 678.3679999999999L512.0000000000001 998.944L353.7920000000002 678.3679999999999L2e-13 626.944L256.0000000000002 377.408L195.5520000000002 25.056L512.0000000000001 191.424L828.4480000000001 25.056L768.0000000000001 377.408L1024 626.944z" />
    <glyph glyph-name="tag"
      unicode="&#xE044;"
      horiz-adv-x="1024" d=" M927.812 1024H639.25C586.344 1024 512.454 993.394 475.046 955.986L28.056 508.996C-9.352 471.588 -9.352 410.372 28.056 372.964L372.966 28.058C410.374 -9.3520000000001 471.588 -9.3520000000001 508.996 28.058L955.986 475.046C993.394 512.456 1024 586.3480000000001 1024 639.25V927.8120000000002C1024 980.7160000000002 980.714 1024 927.812 1024zM800 704C746.98 704 704 746.98 704 800S746.98 896 800 896S896 853.02 896 800S853.02 704 800 704z" />
    <glyph glyph-name="tags"
      unicode="&#xE045;"
      horiz-adv-x="1024" d="" />
    <glyph glyph-name="team"
      unicode="&#xE046;"
      horiz-adv-x="1024" d=" M15.3429333333333 128.3584000000001L15.3429333333333 311.4837333333335Q15.3429333333333 333.9946666666669 31.1978666666667 349.8496T70.5877333333333 365.7045333333334L124.8085333333334 365.7045333333334L124.8085333333334 475.1701333333334Q124.8085333333334 503.8080000000001 147.3194666666667 526.3189333333335T198.4682666666667 548.8298666666667L490.0352 548.8298666666667L490.0352 658.2954666666667L435.8144000000001 658.2954666666667Q412.2794666666667 658.2954666666667 396.4245333333334 674.1504T380.5696000000001 712.5162666666668L380.5696000000001 895.6416Q380.5696000000001 919.1765333333334 396.9365333333334 935.0314666666666T435.8144000000001 950.8864L617.9157333333334 950.8864Q640.4266666666667 950.8864 656.7936 935.0314666666666T673.1605333333334 895.6416L673.1605333333334 712.5162666666668Q673.1605333333334 690.0053333333334 657.3056 674.1504T617.9157333333334 658.2954666666667L563.6949333333334 658.2954666666667L563.6949333333334 548.8298666666667L855.2618666666666 548.8298666666667Q883.8997333333333 548.8298666666667 906.4106666666665 526.3189333333335T928.9216 475.1701333333333L928.9216 365.7045333333333L983.1424 365.7045333333333Q1006.6773333333334 365.7045333333333 1022.5322666666668 349.8495999999999T1038.3872000000001 311.4837333333333L1038.3872000000001 128.3584000000001Q1038.3872000000001 104.8234666666667 1022.5322666666668 88.9685333333333T983.1424 73.1136L801.0410666666667 73.1136Q777.5061333333333 73.1136 761.6512 88.9685333333333T745.7962666666666 128.3584000000001L745.7962666666666 311.4837333333335Q745.7962666666666 333.9946666666669 761.6512 349.8496T801.0410666666667 365.7045333333334L855.2618666666666 365.7045333333334L855.2618666666666 475.1701333333334L563.6949333333332 475.1701333333334L563.6949333333332 365.7045333333334L617.9157333333333 365.7045333333334Q641.4506666666665 365.7045333333334 657.3055999999999 349.8496T673.1605333333333 311.4837333333335L673.1605333333333 128.3584000000001Q673.1605333333333 104.8234666666667 656.7935999999999 88.9685333333333T617.9157333333333 73.1136L435.8143999999999 73.1136Q413.3034666666666 73.1136 396.9365333333333 88.9685333333333T380.5695999999999 128.3584000000001L380.5695999999999 311.4837333333335Q380.5695999999999 333.9946666666669 396.4245333333332 349.8496T435.8143999999999 365.7045333333334L490.0351999999999 365.7045333333334L490.0351999999999 475.1701333333334L198.4682666666666 475.1701333333334L198.4682666666666 365.7045333333334L252.6890666666666 365.7045333333334Q276.224 365.7045333333334 292.0789333333333 349.8496T307.9338666666665 311.4837333333335L307.9338666666665 128.3584000000001Q307.9338666666665 104.8234666666667 292.0789333333333 88.9685333333333T252.6890666666666 73.1136L70.5877333333332 73.1136Q47.0527999999999 73.1136 31.1978666666666 88.9685333333333T15.3429333333332 128.3584000000001z" />
    <glyph glyph-name="upload"
      unicode="&#xE047;"
      horiz-adv-x="1096" d=" M256 731.452L548.548 1024L841.148 731.452H658.35V292.602H438.846V731.452H255.996zM548.548 292.496H0V0H1097.15V292.496H548.5500000000001zM1024 146.302H877.7V219.504H1024V146.302z" />
    <glyph glyph-name="view-stop"
      unicode="&#xE048;"
      horiz-adv-x="1483.7354198362675" d=" M1079.7884517858436 950.1099760921538C1079.7884517858436 946.5490110845468 1079.4917047018764 944.2492211838006 1078.9723973049338 943.284793160907C1021.1809027023112 847.8064188944433 934.4565674128814 704.0324567123089 818.7252046656525 512.0370933854958C703.0680286894155 320.0417300586828 616.0469463160184 176.0452075635732 557.6619575454613 80.0475259001667L517.230167354923 12.2408172136492C511.7403463015287 4.0802724045498 504.0249221183802 0.0741867709918 494.0838948054771 0.0741867709918C487.4812721872057 0.0741867709918 450.6104470042745 17.879011809027 383.3972324856916 53.4144751141056C374.5690067376658 58.5333623125408 370.1919872491489 65.581105556763 370.1919872491489 74.7802651597478C370.1919872491489 80.8635803810767 382.2844309208145 102.971238136637 406.5435050351374 141.103238426429C327.8313410128235 174.116351517786 255.2766789828299 218.0349199449395 188.879518945157 272.9331304788814C122.4081721364921 327.6087806998478 64.9876113888285 389.8514815619793 16.5436499311744 459.4386727523001C5.4898210533942 475.1662682025647 0 492.6743461566326 0 512.0370933854958C0 531.3256538433674 5.4898210533942 548.8337317974353 16.5436499311744 564.6355140186915C100.8198217778744 684.0020285445194 205.4973556473231 778.2192277041222 330.5020647685286 847.2871114975005C455.5067738897341 916.280808519887 592.0846192856625 950.851843802072 740.2356009563139 950.851843802072C789.2730565819024 950.851843802072 838.8298196044339 946.5490110845468 888.9800767948997 937.8691588785045L933.5663261609797 1011.7591827863508C939.0561472143738 1019.9197275954502 946.7715713975222 1024 956.6384119394334 1024C959.3833224661306 1024 964.353836122582 1022.442077809172 971.549952908788 1019.4004201985076C978.671882924002 1016.3587625878432 987.2033615880606 1012.4268637252771 997.1443889009636 1007.6047236108092C1007.0854162138666 1002.7825834963414 1016.1362022748679 998.1088169238571 1024.445120625951 993.5092371223647C1032.6798522060424 988.9096573208722 1041.3597044120845 984.235890748388 1050.4846772440774 979.4137506339202C1059.6096500760705 974.5916105194522 1064.951097587481 971.6983264507716 1066.583206549301 970.6597116568862C1075.3372455263348 965.540824458451 1079.7884517858436 958.7156415272042 1079.7884517858436 950.1099760921538zM458.4742447294066 226.2696515250308L522.9425487212925 333.6920959211766C475.017894660581 365.666594218648 437.5535753097153 406.0983844091864 410.5495906686952 454.8390929508078C383.619792798667 503.653988263421 370.117800478157 555.1396073317394 370.117800478157 609.5185104687387C370.117800478157 670.9451568499602 386.8840107223068 728.0689705136565 420.4906179815983 780.9641382308193C294.3731072955155 721.5405346663769 189.4730131130914 631.8487285372746 105.7161486633341 512.0370933854958C197.7077446931827 380.9490690429617 315.2937767152069 285.6932550894733 458.4742447294066 226.2696515250308zM768.2782003912193 778.6643483300732C775.9936245743678 785.7862783452872 779.8513366659422 794.3919437803377 779.8513366659422 804.555531406216C779.8513366659422 814.7191190320945 775.993624574368 823.3247844671448 768.2782003912193 830.4467144823589S751.2152430631022 841.12960950518 740.1614141853221 841.12960950518C671.3160907049192 841.12960950518 612.2634209954358 818.3542708106934 562.92921828588 772.9519669637035S489.0391943780338 673.0223864377309 489.0391943780338 609.5185104687387C489.0391943780338 599.3549228428602 492.896906469608 590.6750706368182 500.6123306527566 583.6273273925958C508.3277548359053 576.5053973773818 517.7494747518656 572.9444323697746 528.7291168586539 572.9444323697746S549.1304788814026 576.5053973773818 556.8459030645512 583.6273273925958C564.487140476708 590.7492574078099 568.419039339274 599.3549228428602 568.419039339274 609.5185104687387C568.419039339274 653.2145185829168 585.2594363544157 690.5304643917989 618.7918568427153 721.5405346663769C652.3984641020069 752.476418169963 692.8302542925452 767.981453307252 740.2356009563139 767.981453307252C751.2152430631022 767.981453307252 760.5627762080708 771.5424183148591 768.2782003912193 778.6643483300732zM1480.4712019126277 512.0370933854958C1480.4712019126277 494.2322683474607 1474.9071940882418 476.7241903933927 1463.9275519814535 459.4386727523002C1442.4133883938275 426.944867057886 1412.441932913135 390.0740418749547 1373.864811997392 348.9745707454901C1291.2207491125118 261.5825545171339 1195.5198145330728 193.7758458306165 1086.7620082590743 145.5544446859377S862.4953995508224 73.148156197928 740.235600956314 73.148156197928L801.3655002535681 173.7454176628269C918.1354777946824 182.8703904948199 1026.2256031297545 217.6639860899804 1125.6358762587845 278.1262044483083C1225.0461493878145 338.5884228066361 1308.0611461276535 416.5587191190321 1374.7550532492937 512.0370933854958C1311.3995508222852 602.9158878504672 1233.7260015938566 677.6219662392234 1141.8085923349997 736.0069550097805L1193.8877055712528 821.3217416503659C1246.1893791204811 788.8279359559516 1296.4138230819392 749.9540679562414 1344.6352242266178 704.774324422227C1392.7824386003047 659.5945808882127 1432.6207346229085 612.8569151633703 1464.0017387524454 564.5613272476999C1474.9071940882418 547.2758096066073 1480.4712019126277 529.7677316525393 1480.4712019126277 512.0370933854958zM1110.353401434471 609.5185104687387C1110.353401434471 538.8927044845324 1088.6166775338695 474.4985872636383 1045.069042961675 416.3361588060567C1001.5955951604724 358.1737303484751 943.9524740998334 316.4065782800841 872.4364268637253 290.9605158298922L1103.7507788161995 673.4675070636819C1108.1277983047164 650.6921683691951 1110.353401434471 629.3263783235528 1110.353401434471 609.5185104687387z" />
    <glyph glyph-name="view"
      unicode="&#xE049;"
      horiz-adv-x="1638.4" d=" M819.2 1024C461.8752000000001 1024 152.1664 815.9232 0 512C152.1664 208.0767999999999 461.8752000000001 0 819.2 0S1486.1824000000001 208.0767999999999 1638.4 512C1486.2336 815.9232 1176.5248 1024 819.2 1024zM1223.1168 752.4864C1319.3728 691.0975999999999 1400.9344 608.8704 1462.2208 512C1400.9344 415.1808000000001 1319.3728 332.9024 1223.1167999999998 271.5136C1102.1824000000001 194.3552 962.5088 153.5999999999999 819.2 153.5999999999999S536.2176 194.3552 415.2832000000001 271.5136C319.0272000000001 332.9024000000001 237.4656000000001 415.1296 176.1792 512C237.4656000000001 608.8191999999999 319.0272000000001 691.0976 415.2832000000001 752.4864C421.5296000000001 756.4799999999999 427.8784000000001 760.3711999999999 434.2784000000001 764.1599999999999C418.3552 720.4351999999999 409.6 673.2287999999999 409.6 624.0255999999999C409.6 397.824 592.9984000000001 214.4256 819.2 214.4256S1228.8000000000002 397.8240000000001 1228.8000000000002 624.0256000000002C1228.8000000000002 673.2800000000001 1220.096 720.4352000000001 1204.1216000000002 764.1600000000001C1210.4704 760.3712 1216.8192 756.48 1223.1168 752.4864zM819.2 675.1743999999999C819.2 590.336 750.4384 521.5744 665.6 521.5744S512 590.336 512 675.1743999999999S580.7616 828.7744 665.6 828.7744S819.2 760.0128 819.2 675.1743999999999z" />
  </font>
</defs>
</svg>
